<?xml version="1.0" encoding="iso-8859-1"?>
<!-- Generator: Adobe Illustrator 19.0.0, SVG Export Plug-In . SVG Version: 6.00 Build 0)  -->
<svg version="1.1" id="Layer_1" xmlns="http://www.w3.org/2000/svg" xmlns:xlink="http://www.w3.org/1999/xlink" x="0px" y="0px"
	 viewBox="0 0 392.598 392.598" style="enable-background:new 0 0 392.598 392.598;" xml:space="preserve">
<path style="fill:#FFC10D;" d="M359.855,21.786H32.743c-6.012,0-10.925,4.848-10.925,10.925v327.111
	c0,6.012,4.848,10.925,10.925,10.925h327.111c6.012,0,10.925-4.848,10.925-10.925V32.711
	C370.78,26.699,365.867,21.786,359.855,21.786z"/>
<path style="fill:#FFFFFF;" d="M207.224,77.705c0,6.012-4.848,10.925-10.925,10.925c-6.077,0-10.925-4.848-10.925-10.925V65.358
	H65.455v119.919h12.347c6.012,0,10.925,4.848,10.925,10.925c0,6.012-4.848,10.925-10.925,10.925H65.455v119.919h119.919v-12.347
	c0-6.012,4.848-10.925,10.925-10.925c6.012,0,10.925,4.848,10.925,10.925v12.347h119.919V207.192h-12.348
	c-6.012,0-10.925-4.848-10.925-10.925s4.848-10.925,10.925-10.925h12.348V65.422H207.224V77.705z"/>
<g>
	<path style="fill:#194F82;" d="M359.855,0H32.743C14.707,0,0.032,14.675,0.032,32.711v327.111
		c0,18.101,14.675,32.776,32.711,32.776h327.111c18.036,0,32.711-14.675,32.711-32.711V32.711C392.566,14.675,377.891,0,359.855,0z
		 M359.855,370.747H32.743c-6.012,0-10.925-4.848-10.925-10.925V32.711c0-6.012,4.848-10.925,10.925-10.925h327.111
		c6.012,0,10.925,4.848,10.925,10.925v327.111h0.065C370.78,365.899,365.931,370.747,359.855,370.747z"/>
	<path style="fill:#194F82;" d="M338.004,43.572H54.594c-6.012,0-10.925,4.848-10.925,10.925v283.539
		c0,6.012,4.848,10.925,10.925,10.925h283.539c6.012,0,10.925-4.848,10.925-10.925V54.562
		C348.994,48.549,344.016,43.572,338.004,43.572z M327.143,185.341h-12.347c-6.012,0-10.925,4.848-10.925,10.925
		s4.848,10.925,10.925,10.925h12.347v119.919H207.224v-12.347c0-6.012-4.848-10.925-10.925-10.925
		c-6.012,0-10.925,4.848-10.925,10.925v12.347H65.455V207.192h12.347c6.012,0,10.925-4.848,10.925-10.925
		c0-6.012-4.848-10.925-10.925-10.925H65.455V65.422h119.919V77.77c0,6.012,4.848,10.925,10.925,10.925s10.925-4.848,10.925-10.925
		V65.422h119.919V185.341L327.143,185.341z"/>
</g>
<rect x="101.01" y="100.978" style="fill:#56ACE0;" width="190.642" height="190.642"/>
<g>
	<path style="fill:#194F82;" d="M214.659,262.982H177.81c-6.012,0-10.925,4.849-10.925,10.925s4.848,10.925,10.925,10.925h36.848
		c6.012,0,10.925-4.848,10.925-10.925C225.648,267.83,220.735,262.982,214.659,262.982z"/>
	<path style="fill:#194F82;" d="M249.697,185.341h-42.473v-65.422c0-6.012-4.848-10.925-10.925-10.925
		c-6.077,0-10.925,4.848-10.925,10.925v76.347c0,6.012,4.848,10.925,10.925,10.925h53.398c6.012,0,10.925-4.848,10.925-10.925
		S255.709,185.341,249.697,185.341z"/>
</g>
<g>
</g>
<g>
</g>
<g>
</g>
<g>
</g>
<g>
</g>
<g>
</g>
<g>
</g>
<g>
</g>
<g>
</g>
<g>
</g>
<g>
</g>
<g>
</g>
<g>
</g>
<g>
</g>
<g>
</g>
</svg>
