<?xml version="1.0" encoding="iso-8859-1"?>
<!-- Generator: Adobe Illustrator 19.0.0, SVG Export Plug-In . SVG Version: 6.00 Build 0)  -->
<svg version="1.1" id="Layer_1" xmlns="http://www.w3.org/2000/svg" xmlns:xlink="http://www.w3.org/1999/xlink" x="0px" y="0px"
	 viewBox="0 0 392.533 392.533" style="enable-background:new 0 0 392.533 392.533;" xml:space="preserve">
<path style="fill:#FFFFFF;" d="M22.044,140.412h47.774c6.012,0,10.925,4.848,10.925,10.925c0,6.012-4.848,10.925-10.925,10.925
	H22.044v22.949h15.063c6.012,0,10.925,4.848,10.925,10.925c0,6.077-4.848,10.925-10.925,10.925H22.044v152.76
	c0,6.012,4.848,10.925,10.925,10.925h326.723c6.012,0,10.925-4.848,10.925-10.925V114.747H22.044V140.412z"/>
<path style="fill:#56ACE0;" d="M370.489,32.711c0-6.012-4.848-10.925-10.925-10.925H32.905c-6.012,0-10.925,4.848-10.925,10.925
	v59.798h348.509V32.711z"/>
<g>
	<path style="fill:#FFC10D;" d="M315.216,202.537c-6.659-6.659-10.279-15.451-10.279-24.824c0-7.37-5.947-13.317-13.317-13.317
		c-9.374,0-18.166-3.62-24.824-10.279c-2.521-2.521-5.883-3.879-9.438-3.879c-3.556,0-6.853,1.422-9.438,3.879
		c-6.659,6.659-15.451,10.279-24.824,10.279c-7.37,0-13.317,5.947-13.317,13.317c0,9.374-3.62,18.166-10.279,24.824
		c-5.172,5.172-5.172,13.576,0,18.877c6.659,6.659,10.279,15.451,10.279,24.824c0,7.37,5.947,13.317,13.317,13.317
		c9.374,0,18.166,3.62,24.824,10.279c5.042,5.042,13.834,5.042,18.877,0c6.659-6.659,15.451-10.279,24.824-10.279
		c7.37,0,13.317-5.947,13.317-13.317c0-9.374,3.62-18.166,10.279-24.824C320.388,216.113,320.388,207.709,315.216,202.537z"/>
	<path style="fill:#FFC10D;" d="M262.853,314.958l20.816,12.218v-43.249c-0.517,0.388-10.02,11.507-26.376,11.507
		c-9.374,0-16.485-2.327-26.376-11.507v43.249l20.816-12.218c1.681-1.034,3.62-1.487,5.495-1.487
		C259.232,313.471,261.172,313.923,262.853,314.958z"/>
</g>
<g>
	<path style="fill:#194F82;" d="M359.628,0H32.905C14.869,0,0.194,14.675,0.194,32.711v327.111
		c0,18.036,14.675,32.711,32.711,32.711h326.723c18.036,0,32.711-14.675,32.711-32.711V32.711C392.339,14.675,377.6,0,359.628,0z
		 M370.489,359.822c0,6.012-4.848,10.925-10.925,10.925H32.905c-6.012,0-10.925-4.848-10.925-10.925V206.933h15.063
		c6.012,0,10.925-4.848,10.925-10.925c0-6.012-4.848-10.925-10.925-10.925H22.044v-22.949h47.774
		c6.012,0,10.925-4.848,10.925-10.925c0-6.012-4.848-10.925-10.925-10.925H22.044v-25.729h348.509v245.269H370.489z M370.489,92.509
		H22.044V32.711c0-6.012,4.848-10.925,10.925-10.925h326.723c6.012,0,10.925,4.848,10.925,10.925v59.798H370.489z"/>
	<path style="fill:#194F82;" d="M69.818,46.416H52.945c-6.012,0-10.925,4.848-10.925,10.925s4.848,10.925,10.925,10.925h16.873
		c6.012,0,10.99-4.848,10.99-10.925S75.895,46.416,69.818,46.416z"/>
	<path style="fill:#194F82;" d="M135.176,46.416h-16.937c-6.012,0-10.925,4.848-10.925,10.925s4.848,10.925,10.925,10.925h16.937
		c5.947,0,10.925-4.848,10.925-10.925S141.188,46.416,135.176,46.416z"/>
	<path style="fill:#194F82;" d="M331.119,46.416H183.531c-6.012,0-10.925,4.848-10.925,10.925s4.848,10.925,10.925,10.925h147.588
		c6.012,0,10.925-4.848,10.925-10.925S337.131,46.416,331.119,46.416z"/>
	<path style="fill:#194F82;" d="M188.057,246.109c0,14.481,8.727,26.828,21.269,32.194v67.814c0,3.943,2.069,7.499,5.495,9.438
		s7.564,1.939,10.925-0.065l31.677-18.554l31.677,18.554c4.59,2.844,9.244,1.034,10.925,0.065c3.426-1.939,5.495-5.56,5.495-9.438
		v-67.814c12.412-5.43,21.204-17.778,21.204-32.194c0-3.556,1.422-6.853,3.879-9.438c13.77-13.705,13.77-35.943,0.065-49.584
		c-2.521-2.521-3.879-5.883-3.879-9.438c0-19.329-15.774-35.103-35.103-35.103c-3.556,0-6.853-1.422-9.438-3.879
		c-6.659-6.659-15.451-10.279-24.824-10.279c-9.374,0-18.166,3.62-24.824,10.279c-2.521,2.521-5.883,3.879-9.438,3.879
		c-19.329,0-35.103,15.774-35.103,35.103c0,3.556-1.422,6.853-3.879,9.438c-13.705,13.705-13.705,35.943,0,49.584
		C186.764,239.257,188.057,242.554,188.057,246.109z M283.733,327.176l-20.816-12.218c-1.681-1.034-3.62-1.487-5.495-1.487
		c-1.939,0-3.814,0.453-5.495,1.487l-20.945,12.218v-43.249c9.826,9.18,16.937,11.507,26.376,11.507
		c16.226,0,25.794-11.119,26.376-11.507V327.176L283.733,327.176z M199.499,202.537c6.659-6.659,10.279-15.451,10.279-24.824
		c0-7.37,5.947-13.317,13.317-13.317c9.374,0,18.166-3.62,24.824-10.279c2.521-2.521,5.883-3.879,9.438-3.879
		c3.556,0,6.853,1.422,9.438,3.879c6.659,6.659,15.451,10.279,24.824,10.279c7.37,0,13.317,5.947,13.317,13.317
		c0,9.374,3.62,18.166,10.279,24.824c5.172,5.172,5.172,13.576,0,18.877c-6.659,6.659-10.279,15.451-10.279,24.824
		c0.065,7.24-5.947,13.317-13.317,13.317c-9.374,0-18.166,3.62-24.824,10.279c-5.042,5.042-13.77,5.042-18.877,0
		c-6.659-6.659-15.451-10.279-24.824-10.279c-7.37,0-13.317-5.947-13.317-13.317c0-9.374-3.62-18.166-10.279-24.824
		C194.327,216.178,194.327,207.774,199.499,202.537z"/>
	<path style="fill:#194F82;" d="M60.897,292.396h-7.952c-6.012,0-10.925,4.848-10.925,10.925c0,6.012,4.848,10.925,10.925,10.925
		h8.016c6.012,0,10.925-4.848,10.925-10.925C71.758,297.244,66.909,292.396,60.897,292.396z"/>
	<path style="fill:#194F82;" d="M105.826,314.182h8.016c6.012,0,10.925-4.848,10.925-10.925c0-6.012-4.848-10.925-10.925-10.925
		h-8.016c-6.012,0-10.925,4.848-10.925,10.925C94.966,309.269,99.879,314.182,105.826,314.182z"/>
	<path style="fill:#194F82;" d="M158.836,314.182h8.016c6.012,0,10.925-4.848,10.925-10.925c0-6.012-4.848-10.925-10.925-10.925
		h-8.016c-6.012,0-10.925,4.848-10.925,10.925C147.976,309.269,152.824,314.182,158.836,314.182z"/>
</g>
<g>
</g>
<g>
</g>
<g>
</g>
<g>
</g>
<g>
</g>
<g>
</g>
<g>
</g>
<g>
</g>
<g>
</g>
<g>
</g>
<g>
</g>
<g>
</g>
<g>
</g>
<g>
</g>
<g>
</g>
</svg>
