<?xml version="1.0" encoding="iso-8859-1"?>
<!-- Generator: Adobe Illustrator 19.0.0, SVG Export Plug-In . SVG Version: 6.00 Build 0)  -->
<svg version="1.1" id="Layer_1" xmlns="http://www.w3.org/2000/svg" xmlns:xlink="http://www.w3.org/1999/xlink" x="0px" y="0px"
	 viewBox="0 0 392.598 392.598" style="enable-background:new 0 0 392.598 392.598;" xml:space="preserve">
<g>
	<path style="fill:#FFFFFF;" d="M261.883,131.103c10.602,0,20.881,1.293,30.772,3.685V32.711c0-6.012-4.848-10.925-10.925-10.925
		H32.711c-6.012,0-10.925,4.848-10.925,10.925v248.954c0,6.012,4.848,10.925,10.925,10.925h102.141
		c-2.392-9.891-3.685-20.17-3.685-30.772C131.103,189.802,189.802,131.103,261.883,131.103z"/>
	<path style="fill:#FFFFFF;" d="M261.883,153.018c-60.057,0-108.865,48.808-108.865,108.865
		c0,60.057,48.808,108.865,108.865,108.865s108.865-48.808,108.865-108.865S321.939,153.018,261.883,153.018z"/>
</g>
<path style="fill:#FFC10D;" d="M261.883,131.103c3.038,0,5.948,0.129,8.986,0.323V65.422H43.636v42.02h35.879
	c6.012,0,10.925,4.848,10.925,10.925c0,6.012-4.848,10.925-10.925,10.925H43.572v24.824h10.02c6.012,0,10.925,4.848,10.925,10.925
	c0,6.012-4.848,10.925-10.925,10.925h-10.02v94.836h87.855c-0.259-2.909-0.323-5.947-0.323-8.986
	C131.103,189.802,189.802,131.103,261.883,131.103z"/>
<g>
	<path style="fill:#194F82;" d="M314.44,142.222V32.711C314.44,14.675,299.766,0,281.729,0H32.711C14.675,0,0,14.675,0,32.711
		v248.954c0,18.036,14.675,32.711,32.711,32.711h108.865c0.259,0,0.388-0.065,0.646-0.065
		c20.234,46.028,66.327,78.287,119.725,78.287c72.081,0,130.651-58.634,130.651-130.651
		C392.533,208.485,360.404,162.521,314.44,142.222z M131.103,261.818c0,10.667,1.293,20.945,3.685,30.772H32.711
		c-6.012,0-10.925-4.848-10.925-10.925V32.711c0-6.012,4.848-10.925,10.925-10.925h248.954c6.012,0,10.925,4.848,10.925,10.925
		v102.141c-9.891-2.392-20.17-3.685-30.772-3.685C189.673,131.103,131.103,189.802,131.103,261.818z M261.883,370.747
		c-60.057,0-108.865-48.808-108.865-108.865s48.808-108.865,108.865-108.865s108.865,48.808,108.865,108.865
		S321.939,370.747,261.883,370.747z"/>
	<path style="fill:#194F82;" d="M61.673,32H48.291c-6.012,0-10.925,4.848-10.925,10.925S42.214,53.85,48.291,53.85h13.382
		c6.012,0,10.925-4.848,10.925-10.925S67.685,32,61.673,32z"/>
	<path style="fill:#194F82;" d="M111.838,32H98.457c-6.012,0-10.925,4.848-10.925,10.925S92.38,53.85,98.457,53.85h13.382
		c6.012,0,10.925-4.848,10.925-10.925S117.851,32,111.838,32z"/>
	<path style="fill:#194F82;" d="M282.764,42.861c0-6.012-4.849-10.925-10.925-10.925H150.497c-6.012,0-10.925,4.848-10.925,10.925
		s4.848,10.925,10.925,10.925h121.341C277.851,53.786,282.764,48.937,282.764,42.861z"/>
	<path style="fill:#194F82;" d="M311.919,248.566h-39.176v-67.749c0-6.012-4.849-10.925-10.925-10.925
		c-6.012,0-10.925,4.848-10.925,10.925v78.675c0,6.012,4.848,10.925,10.925,10.925h50.101c6.012,0,10.925-4.848,10.925-10.925
		C322.844,253.479,317.996,248.566,311.919,248.566z"/>
</g>
<path style="fill:#56ACE0;" d="M271.192,175.321c1.034,1.616,1.552,3.491,1.552,5.56v67.749h39.176
	c6.012,0,10.925,4.848,10.925,10.925c0,6.012-4.848,10.925-10.925,10.925h-50.101c-6.012,0-10.925-4.848-10.925-10.925v-78.739
	c0-2.004,0.646-3.943,1.552-5.56c-43.636,4.719-77.705,41.697-77.705,86.562c0,47.968,39.111,87.079,87.079,87.079
	s87.079-39.111,87.079-87.079C348.962,216.954,314.828,179.976,271.192,175.321z"/>
<g>
</g>
<g>
</g>
<g>
</g>
<g>
</g>
<g>
</g>
<g>
</g>
<g>
</g>
<g>
</g>
<g>
</g>
<g>
</g>
<g>
</g>
<g>
</g>
<g>
</g>
<g>
</g>
<g>
</g>
</svg>
