<?xml version="1.0" encoding="iso-8859-1"?>
<!-- Generator: Adobe Illustrator 19.0.0, SVG Export Plug-In . SVG Version: 6.00 Build 0)  -->
<svg version="1.1" id="Layer_1" xmlns="http://www.w3.org/2000/svg" xmlns:xlink="http://www.w3.org/1999/xlink" x="0px" y="0px"
	 viewBox="0 0 392.553 392.553" style="enable-background:new 0 0 392.553 392.553;" xml:space="preserve">
<g>
	<polygon style="fill:#FFFFFF;" points="21.851,366.49 123.539,333.326 123.539,122.579 21.851,155.807 	"/>
	<polygon style="fill:#FFFFFF;" points="268.929,366.49 370.683,333.326 370.683,122.579 268.929,155.807 	"/>
</g>
<path style="fill:#FFC10D;" d="M247.143,173.197c-14.739,29.543-29.543,54.691-32.453,60.38c-2.65,5.107-12.606,8.986-18.877,0
	c-5.172-7.434-31.935-55.725-50.36-98.78v198.529l101.754,33.228V173.197H247.143z"/>
<path style="fill:#FFFFFF;" d="M260.461,77.068c0-30.448-24.824-55.273-55.273-55.273s-52.752,21.333-55.273,55.273
	c-1.552,21.075,38.335,98.392,55.273,128.905C230.206,160.785,260.461,98.854,260.461,77.068z"/>
<g>
	<polygon style="fill:#56ACE0;" points="43.636,171.645 101.754,152.639 101.754,317.488 43.636,336.429 	"/>
	<polygon style="fill:#56ACE0;" points="290.715,171.645 348.897,152.639 348.897,317.488 290.715,336.429 	"/>
</g>
<path style="fill:#FFC10D;" d="M205.253,54.635c-12.347,0-22.432,10.02-22.432,22.432S192.84,99.5,205.253,99.5
	s22.432-10.02,22.432-22.432S217.6,54.635,205.253,54.635z"/>
<g>
	<path style="fill:#194F82;" d="M378.182,97.237l-112.743,36.784c9.632-22.562,16.873-43.766,16.873-56.954
		c0-42.473-34.521-77.059-77.059-77.059s-77.059,34.521-77.059,77.059c0,5.43,1.228,12.218,3.297,19.846L7.564,137.577
		C3.103,139.064,0,143.201,0,147.92v233.697c0,3.491,1.616,6.788,4.461,8.792c4.655,3.232,8.663,1.939,9.826,1.552l120.178-39.24
		l120.178,39.176c2.457,1.228,5.624,0.388,6.723,0l123.669-40.275c4.461-1.487,7.499-5.624,7.499-10.343V107.581
		C392.986,101.181,385.681,94.522,378.182,97.237z M123.539,333.326L21.786,366.555V155.807l101.754-33.228V333.326z
		 M247.014,366.555l-101.754-33.228V134.862h0.065c18.489,43.055,45.253,91.345,50.36,98.78c6.271,8.986,16.226,5.107,18.877,0
		c2.909-5.624,17.713-30.836,32.453-60.38L247.014,366.555L247.014,366.555z M205.253,205.908
		c-16.937-30.513-56.824-107.766-55.273-128.905c2.457-33.939,24.824-55.273,55.273-55.273s55.273,24.824,55.273,55.273
		C260.461,98.854,230.206,160.72,205.253,205.908z M370.683,333.326l-101.754,33.228V155.807l101.754-33.228V333.326z"/>
	<path style="fill:#194F82;" d="M205.253,32.85c-24.372,0-44.218,19.846-44.218,44.218c0,24.436,19.846,44.218,44.218,44.218
		s44.218-19.846,44.218-44.218C249.406,52.696,229.624,32.85,205.253,32.85z M205.253,99.435c-12.347,0-22.432-10.02-22.432-22.432
		s10.02-22.432,22.432-22.432s22.432,10.02,22.432,22.432S217.6,99.435,205.253,99.435z"/>
</g>
<g>
</g>
<g>
</g>
<g>
</g>
<g>
</g>
<g>
</g>
<g>
</g>
<g>
</g>
<g>
</g>
<g>
</g>
<g>
</g>
<g>
</g>
<g>
</g>
<g>
</g>
<g>
</g>
<g>
</g>
</svg>
