<?xml version="1.0" encoding="iso-8859-1"?>
<!-- Generator: Adobe Illustrator 19.0.0, SVG Export Plug-In . SVG Version: 6.00 Build 0)  -->
<svg version="1.1" id="Layer_1" xmlns="http://www.w3.org/2000/svg" xmlns:xlink="http://www.w3.org/1999/xlink" x="0px" y="0px"
	 viewBox="0 0 392.792 392.792" style="enable-background:new 0 0 392.792 392.792;" xml:space="preserve">
<g>
	<rect x="21.851" y="336.97" style="fill:#FFC10D;" width="33.875" height="33.875"/>
	<rect x="336.937" y="336.97" style="fill:#FFC10D;" width="33.875" height="33.875"/>
	<path style="fill:#FFC10D;" d="M196.331,336.97c-9.244,0-16.873,7.564-16.873,16.873c0,9.309,7.564,16.873,16.873,16.873
		s16.873-7.564,16.873-16.873C213.204,344.533,205.576,336.97,196.331,336.97z"/>
</g>
<g>
	<path style="fill:#FFFFFF;" d="M149.204,31.257c-18.36,7.564-34.521,19.329-47.321,34.133c9.762,1.875,19.653,3.426,29.543,4.719
		C136.081,55.046,142.093,41.923,149.204,31.257z"/>
	<path style="fill:#FFFFFF;" d="M149.204,261.786c-7.111-10.731-13.123-23.855-17.778-38.853
		c-9.891,1.293-19.717,2.844-29.543,4.719C114.683,242.521,130.78,254.287,149.204,261.786z"/>
	<path style="fill:#FFFFFF;" d="M72.21,135.596h48.485c0.517-15.58,2.392-30.448,5.172-44.283
		c-12.671-1.681-25.277-3.879-37.818-6.465C79.386,100.105,73.826,117.236,72.21,135.596z"/>
	<path style="fill:#FFFFFF;" d="M185.406,24.986c-12.024,6.465-23.79,23.273-31.935,47.451c10.667,0.905,21.269,1.487,31.935,1.681
		V24.986z"/>
	<path style="fill:#FFFFFF;" d="M120.695,157.446H72.21c1.616,18.36,7.176,35.556,15.903,50.747
		c12.541-2.651,25.083-4.784,37.818-6.465C123.087,187.96,121.212,173.026,120.695,157.446z"/>
	<path style="fill:#FFFFFF;" d="M185.406,157.446h-42.861c0.646,15.127,2.392,29.156,5.107,41.826
		c12.606-1.164,25.212-1.875,37.818-2.133v-39.693H185.406z"/>
	<path style="fill:#FFFFFF;" d="M185.406,268.057v-49.131c-10.667,0.259-21.333,0.776-31.935,1.681
		C161.616,244.784,173.382,261.592,185.406,268.057z"/>
	<path style="fill:#FFFFFF;" d="M185.406,95.903c-12.606-0.259-25.212-1.034-37.818-2.133c-2.715,12.671-4.461,26.764-5.107,41.826
		h42.861V95.903H185.406z"/>
	<path style="fill:#FFFFFF;" d="M320.453,157.446h-48.485c-0.517,15.58-2.392,30.448-5.172,44.283
		c12.671,1.681,25.277,3.879,37.818,6.465C313.277,192.937,318.901,175.806,320.453,157.446z"/>
	<path style="fill:#FFFFFF;" d="M271.968,135.596h48.485c-1.616-18.36-7.176-35.556-15.903-50.747
		c-12.541,2.651-25.083,4.784-37.818,6.465C269.576,105.083,271.451,120.016,271.968,135.596z"/>
	<path style="fill:#FFFFFF;" d="M290.78,227.653c-9.762-1.875-19.653-3.426-29.543-4.719c-4.719,14.998-10.731,28.121-17.778,38.853
		C261.883,254.287,277.98,242.521,290.78,227.653z"/>
	<path style="fill:#FFFFFF;" d="M239.192,220.541c-10.667-0.905-21.269-1.422-31.935-1.616v49.131
		C219.281,261.592,231.046,244.719,239.192,220.541z"/>
	<path style="fill:#FFFFFF;" d="M243.459,31.257c7.111,10.731,13.123,23.855,17.778,38.853c9.891-1.293,19.717-2.844,29.543-4.719
		C277.98,50.521,261.883,38.756,243.459,31.257z"/>
	<path style="fill:#FFFFFF;" d="M207.257,197.139c12.606,0.259,25.212,1.034,37.818,2.133c2.715-12.671,4.461-26.764,5.107-41.826
		h-42.861v39.693H207.257z"/>
	<path style="fill:#FFFFFF;" d="M207.257,135.596h42.861c-0.646-15.127-2.392-29.156-5.107-41.826
		c-12.606,1.164-25.212,1.875-37.818,2.133v39.693H207.257z"/>
	<path style="fill:#FFFFFF;" d="M207.257,24.986v49.131c10.667-0.259,21.333-0.776,31.935-1.681
		C231.046,48.259,219.281,31.451,207.257,24.986z"/>
</g>
<path style="fill:#194F82;" d="M381.737,315.184h-55.661c-6.012,0-10.925,4.848-10.925,10.925v16.873h-81.778
	c-3.685-12.541-13.576-22.303-26.117-26.053v-24.436c75.636-5.624,135.564-68.913,135.564-145.972
	C342.756,65.778,277.075,0.097,196.331,0.097S49.907,65.778,49.907,146.521c0,77.059,59.863,140.412,135.564,145.972v24.436
	c-12.541,3.685-22.432,13.511-26.117,26.053H77.511v-16.873c0-6.012-4.848-10.925-10.925-10.925H10.925
	C4.913,315.184,0,320.032,0,326.109v55.661c0,6.012,4.848,10.925,10.925,10.925h55.661c6.012,0,10.925-4.848,10.925-10.925v-17.002
	h81.842c4.719,15.968,19.523,27.733,37.042,27.733s32.323-11.766,37.042-27.733h81.842v17.002c0,6.012,4.849,10.925,10.925,10.925
	h55.661c6.012,0,10.925-4.848,10.925-10.925v-55.661C392.598,320.097,387.749,315.184,381.737,315.184z M55.725,370.844H21.851
	V336.97h33.875V370.844z M72.21,157.446h48.485c0.517,15.58,2.392,30.448,5.172,44.283c-12.671,1.681-25.277,3.879-37.818,6.465
	C79.386,192.937,73.826,175.806,72.21,157.446z M147.653,199.208c-2.715-12.671-4.461-26.764-5.107-41.826h42.861v39.693
	C172.865,197.398,160.259,198.044,147.653,199.208z M185.406,218.925v49.131c-12.024-6.465-23.79-23.273-31.935-47.451
	C164.137,219.701,174.804,219.184,185.406,218.925z M142.545,135.596c0.646-15.127,2.392-29.156,5.107-41.826
	c12.606,1.164,25.212,1.875,37.818,2.133v39.693H142.61l0,0H142.545z M153.471,72.436c8.21-24.178,19.846-40.986,31.935-47.451
	v49.131C174.804,73.859,164.137,73.341,153.471,72.436z M149.204,31.257c-7.111,10.731-13.123,23.855-17.778,38.853
	c-9.891-1.293-19.717-2.844-29.543-4.719C114.683,50.521,130.78,38.756,149.204,31.257z M125.867,91.378
	c-2.844,13.77-4.655,28.638-5.172,44.283H72.21c1.616-18.36,7.176-35.556,15.903-50.747
	C100.59,87.499,113.196,89.632,125.867,91.378z M131.362,222.998c4.719,14.998,10.731,28.121,17.778,38.853
	c-18.36-7.564-34.521-19.329-47.321-34.133C111.644,225.778,121.471,224.291,131.362,222.998z M320.453,135.596h-48.485
	c-0.517-15.58-2.392-30.448-5.172-44.283c12.671-1.681,25.277-3.879,37.818-6.465C313.277,100.105,318.901,117.236,320.453,135.596z
	 M245.01,93.834c2.715,12.671,4.461,26.764,5.107,41.826h-42.861V95.968C219.798,95.709,232.404,94.998,245.01,93.834z
	 M207.257,74.117V24.986c12.024,6.465,23.79,23.273,31.935,47.451C228.525,73.341,217.859,73.859,207.257,74.117z M250.117,157.446
	c-0.646,15.127-2.392,29.156-5.107,41.826c-12.606-1.164-25.212-1.875-37.818-2.133v-39.693h42.861v0H250.117z M261.301,222.933
	c9.891,1.293,19.717,2.844,29.543,4.719c-12.735,14.869-28.897,26.634-47.321,34.133
	C250.57,251.055,256.582,237.931,261.301,222.933z M266.796,201.665c2.844-13.77,4.655-28.638,5.172-44.283h48.485
	c-1.616,18.36-7.176,35.556-15.903,50.747C292.073,205.543,279.467,203.41,266.796,201.665z M261.301,70.044
	c-4.719-14.998-10.731-28.121-17.778-38.853c18.36,7.564,34.521,19.329,47.321,34.133C281.018,67.265,271.192,68.816,261.301,70.044
	z M207.257,218.925c10.667,0.259,21.333,0.776,31.935,1.616c-8.21,24.178-19.846,40.986-31.935,47.451V218.925z M196.331,370.586
	c-9.244,0-16.873-7.564-16.873-16.873c0-9.309,7.564-16.743,16.873-16.743s16.873,7.564,16.873,16.873
	C213.204,363.151,205.576,370.586,196.331,370.586z M370.812,370.844h-33.875V336.97h33.875V370.844z"/>
<g>
	<path style="fill:#56ACE0;" d="M207.257,135.596h42.861c-0.646-15.127-2.392-29.156-5.107-41.826
		c-12.606,1.164-25.212,1.875-37.818,2.133v39.693H207.257z"/>
	<path style="fill:#56ACE0;" d="M153.535,220.606c3.038,8.792,6.4,16.614,10.214,23.337c6.982,2.327,14.222,4.008,21.721,4.784
		v-29.802C174.804,219.184,164.137,219.701,153.535,220.606z"/>
	<path style="fill:#56ACE0;" d="M207.257,197.139c12.606,0.259,25.212,1.034,37.818,2.133c2.715-12.671,4.461-26.764,5.107-41.826
		h-42.861v39.693H207.257z"/>
	<path style="fill:#56ACE0;" d="M207.257,248.727c7.499-0.776,14.739-2.457,21.721-4.784c3.814-6.723,7.24-14.545,10.214-23.337
		c-10.667-0.905-21.269-1.422-31.935-1.616V248.727L207.257,248.727z"/>
	<path style="fill:#56ACE0;" d="M120.695,157.446h-26.57c1.745,17.067,7.822,32.97,17.002,46.545
		c4.913-0.776,9.826-1.616,14.739-2.263C123.087,187.96,121.212,173.026,120.695,157.446z"/>
	<path style="fill:#56ACE0;" d="M259.879,227.2c1.552-1.228,3.038-2.457,4.461-3.814c-1.034-0.129-2.004-0.323-3.038-0.453
		C260.848,224.42,260.331,225.778,259.879,227.2z"/>
	<path style="fill:#56ACE0;" d="M264.339,69.657c-1.487-1.293-2.909-2.521-4.461-3.814c0.453,1.422,1.034,2.78,1.487,4.267
		C262.335,69.915,263.305,69.786,264.339,69.657z"/>
	<path style="fill:#56ACE0;" d="M266.796,201.665c4.913,0.711,9.891,1.487,14.739,2.263c9.18-13.576,15.127-29.414,17.002-46.545
		h-26.57C271.451,173.026,269.576,187.96,266.796,201.665z"/>
	<path style="fill:#56ACE0;" d="M185.406,74.117V44.315c-7.499,0.776-14.739,2.457-21.721,4.784
		c-3.814,6.723-7.24,14.545-10.214,23.337C164.137,73.341,174.804,73.859,185.406,74.117z"/>
	<path style="fill:#56ACE0;" d="M239.192,72.436c-3.038-8.792-6.4-16.614-10.214-23.337c-6.982-2.327-14.222-4.008-21.721-4.784
		v29.802C217.859,73.859,228.525,73.341,239.192,72.436z"/>
	<path style="fill:#56ACE0;" d="M271.968,135.596h26.57c-1.745-17.067-7.822-32.97-17.002-46.545
		c-4.913,0.776-9.826,1.616-14.739,2.263C269.576,105.083,271.451,120.016,271.968,135.596z"/>
	<path style="fill:#56ACE0;" d="M128.323,223.386c1.487,1.293,2.909,2.521,4.461,3.814c-0.453-1.422-1.034-2.78-1.487-4.267
		C130.327,223.127,129.358,223.257,128.323,223.386z"/>
	<path style="fill:#56ACE0;" d="M120.695,135.596c0.517-15.58,2.392-30.448,5.172-44.283c-4.913-0.711-9.891-1.487-14.739-2.263
		c-9.18,13.576-15.127,29.414-17.002,46.545H120.695z"/>
	<path style="fill:#56ACE0;" d="M132.784,65.842c-1.551,1.228-3.038,2.457-4.461,3.814c1.034,0.129,2.004,0.323,3.038,0.453
		C131.814,68.622,132.331,67.265,132.784,65.842z"/>
	<path style="fill:#56ACE0;" d="M147.653,199.208c12.606-1.164,25.212-1.875,37.818-2.133v-39.693H142.61
		C143.192,172.574,144.937,186.537,147.653,199.208z"/>
	<path style="fill:#56ACE0;" d="M185.406,95.903c-12.606-0.259-25.212-1.034-37.818-2.133c-2.715,12.671-4.461,26.764-5.107,41.826
		h42.861V95.903H185.406z"/>
</g>
<g>
</g>
<g>
</g>
<g>
</g>
<g>
</g>
<g>
</g>
<g>
</g>
<g>
</g>
<g>
</g>
<g>
</g>
<g>
</g>
<g>
</g>
<g>
</g>
<g>
</g>
<g>
</g>
<g>
</g>
</svg>
