<?xml version="1.0" encoding="iso-8859-1"?>
<!-- Generator: Adobe Illustrator 19.0.0, SVG Export Plug-In . SVG Version: 6.00 Build 0)  -->
<svg version="1.1" id="Layer_1" xmlns="http://www.w3.org/2000/svg" xmlns:xlink="http://www.w3.org/1999/xlink" x="0px" y="0px"
	 viewBox="0 0 392.727 392.727" style="enable-background:new 0 0 392.727 392.727;" xml:space="preserve">
<path style="fill:#FFFFFF;" d="M71.499,51.911h19.006c6.012,0,10.925,4.848,10.925,10.925c0,6.012-4.848,10.925-10.925,10.925
	H71.499v34.586h19.006c6.012,0,10.925,4.848,10.925,10.925c0,6.012-4.848,10.925-10.925,10.925H71.499v132.267h19.006
	c6.012,0,10.925,4.849,10.925,10.925c0,6.012-4.848,10.925-10.925,10.925H71.499v34.586h19.006c6.012,0,10.925,4.848,10.925,10.925
	c0,6.012-4.848,10.925-10.925,10.925H71.499v30.125h229.107V21.786H71.499V51.911z"/>
<rect x="322.521" y="21.786" style="fill:#56ACE0;" width="28.638" height="62.061"/>
<rect x="322.521" y="105.697" style="fill:#FFC10D;" width="28.638" height="62.061"/>
<g>
	<rect x="322.521" y="189.543" style="fill:#56ACE0;" width="28.638" height="62.061"/>
	<rect x="93.414" y="43.572" style="fill:#56ACE0;" width="185.535" height="305.325"/>
</g>
<g>
	<path style="fill:#FFC10D;" d="M186.117,107.313c10.02,0,18.166-8.21,18.166-18.166c0-10.02-8.21-18.166-18.166-18.166
		c-10.02,0-18.166,8.21-18.166,18.166C167.887,99.232,176.097,107.313,186.117,107.313z"/>
	<path style="fill:#FFC10D;" d="M186.117,163.426c-30.448,0-55.79,22.109-60.962,51.071h121.988
		C241.907,185.535,216.566,163.426,186.117,163.426z"/>
</g>
<g>
	<path style="fill:#194F82;" d="M186.117,129.164c22.044,0,40.016-17.907,40.016-40.016c0-22.044-17.907-40.016-40.016-40.016
		c-22.044,0-40.016,17.907-40.016,40.016C146.101,111.192,164.008,129.164,186.117,129.164z M186.117,70.982
		c10.02,0,18.166,8.21,18.166,18.166c0,10.02-8.21,18.166-18.166,18.166c-10.02,0-18.166-8.21-18.166-18.166
		C167.887,79.127,176.097,70.982,186.117,70.982z"/>
	<path style="fill:#194F82;" d="M113.261,236.283h145.713c6.012,0,10.925-4.848,10.925-10.925c0-46.222-37.56-83.782-83.782-83.782
		s-83.782,37.56-83.782,83.782C102.335,231.434,107.249,236.283,113.261,236.283z M186.053,163.426
		c30.448,0,55.79,22.109,60.962,51.071H125.091C130.263,185.535,155.604,163.426,186.053,163.426z"/>
	<path style="fill:#194F82;" d="M228.913,261.818h-85.592c-6.012,0-10.925,4.848-10.925,10.925c0,6.012,4.848,10.925,10.925,10.925
		h85.592c6.012,0,10.925-4.848,10.925-10.925C239.838,266.667,234.925,261.818,228.913,261.818z"/>
	<path style="fill:#194F82;" d="M228.913,307.911h-85.592c-6.012,0-10.925,4.848-10.925,10.925s4.848,10.925,10.925,10.925h85.592
		c6.012,0,10.925-4.848,10.925-10.925C239.838,312.824,234.925,307.911,228.913,307.911z"/>
	<path style="fill:#194F82;" d="M362.085,0H60.703c-6.012,0-10.925,4.848-10.925,10.925v41.051H30.707
		c-6.012,0-10.925,4.848-10.925,10.925c0,6.077,4.848,10.925,10.925,10.925h19.006v34.521H30.707
		c-6.012,0-10.925,4.848-10.925,10.925c0,6.012,4.848,10.925,10.925,10.925h19.006v132.267H30.707
		c-6.012,0-10.925,4.849-10.925,10.925c0,6.012,4.848,10.925,10.925,10.925h19.006v34.586H30.707
		c-6.012,0-10.925,4.848-10.925,10.925c0,6.012,4.848,10.925,10.925,10.925h19.006v41.051c0,6.012,4.848,10.925,10.925,10.925
		h250.893c6.012,0,10.925-4.848,10.925-10.925V273.39h39.564c6.012,0,10.925-4.848,10.925-10.925V10.861
		C372.945,4.848,368.097,0,362.085,0z M300.606,370.747H71.499v-30.125h19.006c6.012,0,10.925-4.848,10.925-10.925
		c0-6.012-4.848-10.925-10.925-10.925H71.499v-34.586h19.006c6.012,0,10.925-4.848,10.925-10.925
		c0-6.012-4.848-10.925-10.925-10.925H71.499V130.133h19.006c6.012,0,10.925-4.848,10.925-10.925s-4.848-10.925-10.925-10.925
		H71.499V73.697h19.006c6.012,0,10.925-4.848,10.925-10.925s-4.848-10.925-10.925-10.925H71.499V21.721h229.107L300.606,370.747
		L300.606,370.747z M351.095,251.604h-28.638v-62.061h28.638V251.604z M351.095,167.758h-28.638v-62.061h28.638V167.758z
		 M351.095,83.846h-28.638V21.786h28.638V83.846z"/>
</g>
<g>
</g>
<g>
</g>
<g>
</g>
<g>
</g>
<g>
</g>
<g>
</g>
<g>
</g>
<g>
</g>
<g>
</g>
<g>
</g>
<g>
</g>
<g>
</g>
<g>
</g>
<g>
</g>
<g>
</g>
</svg>
