<?xml version="1.0" encoding="iso-8859-1"?>
<!-- Generator: Adobe Illustrator 19.0.0, SVG Export Plug-In . SVG Version: 6.00 Build 0)  -->
<svg version="1.1" id="Layer_1" xmlns="http://www.w3.org/2000/svg" xmlns:xlink="http://www.w3.org/1999/xlink" x="0px" y="0px"
	 viewBox="0 0 392.598 392.598" style="enable-background:new 0 0 392.598 392.598;" xml:space="preserve">
<g>
	<path style="fill:#FFC10D;" d="M216.428,32.711c0-6.012-4.848-10.925-10.925-10.925H32.832c-6.012,0-10.925,4.848-10.925,10.925
		v51.976h194.521L216.428,32.711L216.428,32.711z"/>
	<path style="fill:#FFC10D;" d="M21.907,359.822c0,6.012,4.848,10.925,10.925,10.925h172.735c6.012,0,10.925-4.848,10.925-10.925
		v-49.778H21.907V359.822z"/>
</g>
<rect x="21.907" y="106.537" style="fill:#FFFFFF;" width="194.521" height="181.592"/>
<path style="fill:#56ACE0;" d="M43.693,128.323v17.842h45.834c6.012,0,10.925,4.848,10.925,10.925
	c0,6.012-4.848,10.925-10.925,10.925H43.693v21.786h13.123c6.012,0,10.925,4.848,10.925,10.925s-4.848,10.925-10.925,10.925H43.693
	v54.691h150.885v-138.02H43.693z"/>
<g>
	<path style="fill:#194F82;" d="M283.273,159.03c-4.267-4.267-11.119-4.267-15.451,0c-4.267,4.267-4.267,11.119,0,15.451
		c11.96,12.024,11.96,31.612,0,43.572c-4.267,4.267-4.461,11.378,0,15.451c6.659,6.012,13.317,2.133,15.451,0
		C303.701,212.945,303.701,179.588,283.273,159.03z"/>
	<path style="fill:#194F82;" d="M316.63,125.608c-4.267-4.267-11.119-4.267-15.451,0c-4.267,4.267-4.267,11.119,0,15.451
		c30.448,30.448,30.448,79.968,0,110.352c-4.267,4.267-4.59,11.507,0,15.451c7.111,6.012,13.317,2.133,15.451,0
		c18.877-18.877,29.22-43.96,29.22-70.659S335.507,144.485,316.63,125.608z"/>
	<path style="fill:#194F82;" d="M349.729,92.638c-4.267-4.267-11.119-4.267-15.451,0c-4.267,4.267-4.267,11.119,0,15.451
		c48.679,48.679,48.679,127.806,0,176.485c-4.267,4.267-4.59,11.442,0,15.451c6.853,5.947,13.317,2.133,15.451,0
		C406.812,242.812,406.812,149.721,349.729,92.638z"/>
	<path style="fill:#194F82;" d="M205.503,0H32.832C14.731,0,0.057,14.675,0.057,32.711v327.111
		c0,18.101,14.675,32.776,32.776,32.776h172.735c18.036,0,32.711-14.675,32.711-32.711V32.711C238.214,14.675,223.539,0,205.503,0z
		 M216.428,359.822c0,6.012-4.848,10.925-10.925,10.925H32.832c-6.012,0-10.925-4.848-10.925-10.925v-49.778h194.521
		L216.428,359.822L216.428,359.822z M216.428,288.129H21.907V106.537h194.521V288.129z M216.428,84.687H21.907V32.711
		c0-6.012,4.848-10.925,10.925-10.925h172.735c6.012,0,10.925,4.848,10.925,10.925v51.976H216.428z"/>
	<path style="fill:#194F82;" d="M142.085,43.572H96.251c-6.012,0-10.925,4.848-10.925,10.925s4.848,10.925,10.925,10.925h45.834
		c6.012,0,10.925-4.848,10.925-10.925S148.097,43.572,142.085,43.572z"/>
	<path style="fill:#194F82;" d="M58.109,350.061h24.048c6.012,0,10.925-4.848,10.925-10.925c0-6.012-4.848-10.925-10.925-10.925
		H58.109c-6.012,0-10.925,4.848-10.925,10.925C47.184,345.083,52.032,350.061,58.109,350.061z"/>
	<path style="fill:#194F82;" d="M156.242,350.061h24.048c6.012,0,10.925-4.848,10.925-10.925c0-6.012-4.848-10.925-10.925-10.925
		h-24.048c-6.012,0-10.925,4.848-10.925,10.925C145.317,345.083,150.166,350.061,156.242,350.061z"/>
</g>
<g>
</g>
<g>
</g>
<g>
</g>
<g>
</g>
<g>
</g>
<g>
</g>
<g>
</g>
<g>
</g>
<g>
</g>
<g>
</g>
<g>
</g>
<g>
</g>
<g>
</g>
<g>
</g>
<g>
</g>
</svg>
