<?xml version="1.0" encoding="iso-8859-1"?>
<!-- Generator: Adobe Illustrator 19.0.0, SVG Export Plug-In . SVG Version: 6.00 Build 0)  -->
<svg version="1.1" id="Layer_1" xmlns="http://www.w3.org/2000/svg" xmlns:xlink="http://www.w3.org/1999/xlink" x="0px" y="0px"
	 viewBox="0 0 392.533 392.533" style="enable-background:new 0 0 392.533 392.533;" xml:space="preserve">
<path style="fill:#FFFFFF;" d="M196.267,21.786c-96.194,0-174.481,78.287-174.481,174.481c0,15.321,2.004,30.19,5.689,44.347h114.23
	c5.107-25.406,27.604-44.671,54.497-44.671c7.046,0,13.77,1.293,19.911,3.685l51.459-82.23c3.168-5.107,9.891-6.659,14.998-3.491
	s6.659,9.891,3.491,14.998l-51.459,82.36c8.145,7.758,13.834,17.842,16.162,29.22h114.23c3.685-14.222,5.689-29.026,5.689-44.347
	C370.747,100.073,292.461,21.786,196.267,21.786z"/>
<path style="fill:#FFC10D;" d="M345.406,200.339c0,13.77-2.004,27.087-5.495,39.758h-89.277
	c-2.327-11.184-8.081-21.139-16.032-28.768l51.523-82.295c0.323-0.453,0.517-1.034,0.776-1.552
	c13.511,17.648,21.657,39.24,21.657,62.642c0,6.012,4.848,10.861,10.925,10.861c6.012,0,10.925-4.848,10.925-10.861
	c0-70.788-60.121-128.453-134.077-128.453S62.19,119.337,62.19,190.19c0,6.012,4.848,10.861,10.925,10.861
	c6.012,0,10.925-4.848,10.925-10.861c0-58.828,50.36-106.537,112.291-106.537c29.931,0,57.018,11.184,77.188,29.35
	c-2.327,0.776-4.396,2.327-5.818,4.525l-51.394,82.23c-6.206-2.392-12.929-3.685-19.911-3.685
	c-26.699,0-49.131,18.941-54.368,44.154H52.622c-3.491-12.671-5.495-25.988-5.495-39.758c0-82.36,66.78-149.139,149.139-149.139
	S345.406,117.98,345.406,200.339z"/>
<path style="fill:#FFFFFF;" d="M196.267,217.729c-14.804,0-27.41,9.568-32,22.885h63.935
	C223.677,227.426,211.135,217.729,196.267,217.729z"/>
<path style="fill:#56ACE0;" d="M34.909,262.465c26.117,63.418,88.566,108.283,161.358,108.283s135.24-44.8,161.358-108.283
	L34.909,262.465L34.909,262.465z"/>
<g>
	<path style="fill:#194F82;" d="M196.267,0C87.984,0,0,87.984,0,196.267s87.984,196.267,196.267,196.267
		s196.267-87.984,196.267-196.267S304.549,0,196.267,0z M196.267,370.747c-72.792,0-135.24-44.8-161.358-108.283h322.78
		C331.507,325.947,269.059,370.747,196.267,370.747z M164.267,240.614c4.59-13.317,17.131-22.885,32-22.885
		c14.869,0,27.41,9.568,31.935,22.885H164.267z M250.764,240.614c-2.263-11.378-8.016-21.463-16.162-29.22l51.523-82.36
		c0.323-0.453,0.517-1.034,0.776-1.552c13.511,17.648,21.657,39.24,21.657,62.642c0,6.012,4.848,10.925,10.925,10.925
		c6.077,0,10.925-4.848,10.925-10.925c0-70.788-60.121-128.453-134.077-128.453S62.19,119.273,62.19,190.19
		c0,6.012,4.848,10.925,10.925,10.925s10.925-4.848,10.925-10.925c0-58.828,50.36-106.537,112.291-106.537
		c29.931,0,57.018,11.184,77.188,29.35c-2.327,0.776-4.396,2.327-5.818,4.59l-51.394,82.166c-6.206-2.392-12.929-3.685-19.911-3.685
		c-26.893,0-49.455,19.265-54.497,44.671H27.604c-3.685-14.222-5.689-29.026-5.689-44.347
		C21.851,100.137,100.137,21.85,196.331,21.85s174.416,78.222,174.416,174.416c0,15.321-2.004,30.19-5.689,44.347H250.764z"/>
	<path style="fill:#194F82;" d="M131.62,321.358h129.293c6.012,0,10.925-4.848,10.925-10.925c0-6.012-4.848-10.925-10.925-10.925
		H131.62c-6.012,0-10.925,4.848-10.925,10.925S125.543,321.358,131.62,321.358z"/>
</g>
<g>
</g>
<g>
</g>
<g>
</g>
<g>
</g>
<g>
</g>
<g>
</g>
<g>
</g>
<g>
</g>
<g>
</g>
<g>
</g>
<g>
</g>
<g>
</g>
<g>
</g>
<g>
</g>
<g>
</g>
</svg>
