<svg height="512pt" viewBox="-25 0 512 512" width="512pt" xmlns="http://www.w3.org/2000/svg"><path d="m422.765625 193.761719h-84.226563c-21.410156 0-38.832031 17.417969-38.832031 38.832031v77.902344c0 14.429687 7.851563 27.195312 19.835938 33.890625v113.167969c0 8.273437 6.707031 14.984374 14.984375 14.984374h92.246094c8.277343 0 14.988281-6.710937 14.988281-14.984374v-113.167969c11.984375-6.695313 19.832031-19.460938 19.832031-33.894531v-77.898438c.003906-21.414062-17.417969-38.832031-38.828125-38.832031zm0 0" fill="#ff2828"/><path d="m123.058594 193.761719h-84.226563c-21.410156 0-38.832031 17.417969-38.832031 38.832031v77.902344c0 14.429687 7.847656 27.195312 19.835938 33.890625v113.167969c0 8.273437 6.707031 14.984374 14.984374 14.984374h92.246094c8.277344 0 14.988282-6.710937 14.988282-14.984374v-113.167969c11.984374-6.695313 19.832031-19.460938 19.832031-33.894531v-77.898438c.003906-21.414062-17.417969-38.832031-38.828125-38.832031zm0 0" fill="#00ee84"/><path d="m123.058594 193.761719h-42.113282v278.777343h46.125c8.273438 0 14.984376-6.710937 14.984376-14.984374v-113.167969c11.984374-6.695313 19.835937-19.460938 19.835937-33.894531v-77.898438c0-21.414062-17.421875-38.832031-38.832031-38.832031zm0 0" fill="#00dd7b"/><path d="m80.925781 58.625c-32.371093 0-58.707031 26.335938-58.707031 58.703125 0 32.371094 26.335938 58.707031 58.707031 58.707031 32.371094 0 58.707031-26.335937 58.707031-58.707031 0-32.367187-26.335937-58.703125-58.707031-58.703125zm0 0" fill="#ffcdbe"/><path d="m282.71875 169.335938h-105.847656c-24.789063 0-44.957032 20.164062-44.957032 44.953124v97.90625c0 17.484376 9.949219 32.855469 24.929688 40.269532v144.550781c0 8.273437 6.707031 14.984375 14.984375 14.984375h115.933594c8.273437 0 14.984375-6.710938 14.984375-14.984375v-144.550781c14.976562-7.414063 24.929687-22.785156 24.929687-40.269532v-97.90625c0-24.789062-20.167969-44.953124-44.957031-44.953124zm0 0" fill="#0095ff"/><path d="m229.773438 0c-38.5625 0-69.933594 31.371094-69.933594 69.933594 0 38.558594 31.371094 69.929687 69.933594 69.929687 38.558593 0 69.929687-31.371093 69.929687-69.929687 0-38.5625-31.371094-69.933594-69.929687-69.933594zm0 0" fill="#ffcdbe"/><path d="m380.632812 58.625c-32.367187 0-58.703124 26.335938-58.703124 58.703125 0 32.371094 26.335937 58.707031 58.703124 58.707031 32.371094 0 58.707032-26.335937 58.707032-58.707031 0-32.367187-26.335938-58.703125-58.707032-58.703125zm0 0" fill="#ffcdbe"/><path d="m282.71875 169.335938h-52.917969v342.664062h57.960938c8.273437 0 14.984375-6.710938 14.984375-14.984375v-144.550781c14.976562-7.414063 24.929687-22.785156 24.929687-40.269532v-97.90625c0-24.789062-20.167969-44.953124-44.957031-44.953124zm0 0" fill="#0082ff"/><path d="m229.800781 0v139.863281c38.546875-.015625 69.902344-31.378906 69.902344-69.929687 0-38.550782-31.355469-69.917969-69.902344-69.933594zm0 0" fill="#ffbeaa"/><path d="m80.945312 58.625v117.410156c32.363282-.011718 58.6875-26.339844 58.6875-58.707031 0-32.363281-26.324218-58.695313-58.6875-58.703125zm0 0" fill="#ffbeaa"/><path d="m422.765625 193.761719h-42.113281v278.777343h46.125c8.273437 0 14.984375-6.710937 14.984375-14.984374v-113.167969c11.984375-6.695313 19.835937-19.460938 19.835937-33.894531v-77.898438c0-21.414062-17.421875-38.832031-38.832031-38.832031zm0 0" fill="#c9001c"/><path d="m380.652344 58.625v117.410156c32.363281-.011718 58.6875-26.339844 58.6875-58.707031 0-32.363281-26.324219-58.695313-58.6875-58.703125zm0 0" fill="#ffbeaa"/></svg>