<svg height="512pt" viewBox="0 0 512 512" width="512pt" xmlns="http://www.w3.org/2000/svg"><g fill-rule="evenodd"><path d="m437 91h60c8.285156 0 15 6.714844 15 15v60c0 8.285156-6.714844 15-15 15h-60c-8.285156 0-15-6.714844-15-15v-60c0-8.285156 6.714844-15 15-15zm0 0" fill="#00c200"/><path d="m437 211h60c8.285156 0 15 6.714844 15 15v60c0 8.285156-6.714844 15-15 15h-60c-8.285156 0-15-6.714844-15-15v-60c0-8.285156 6.714844-15 15-15zm0 0" fill="#d10505"/><path d="m437 331h60c8.285156 0 15 6.714844 15 15v60c0 8.285156-6.714844 15-15 15h-60c-8.285156 0-15-6.714844-15-15v-60c0-8.285156 6.714844-15 15-15zm0 0" fill="#ffcd00"/><path d="m45 0h392c8.285156 0 15 6.714844 15 15v482c0 8.285156-6.714844 15-15 15h-392c-8.285156 0-15-6.714844-15-15v-482c0-8.285156 6.714844-15 15-15zm0 0" fill="#0095ff"/><path d="m74 241h-59c-8.285156 0-15 6.714844-15 15s6.714844 15 15 15h59c8.285156 0 15-6.714844 15-15s-6.714844-15-15-15zm0 0" fill="#00465f"/><path d="m74 181h-59c-8.285156 0-15 6.71875-15 15 0 8.285156 6.714844 15 15 15h59c8.285156 0 15-6.714844 15-15 0-8.28125-6.714844-15-15-15zm0 0" fill="#00465f"/><path d="m74 121h-59c-8.285156 0-15 6.71875-15 15 0 8.285156 6.714844 15 15 15h59c8.285156 0 15-6.714844 15-15s-6.714844-15-15-15zm0 0" fill="#00465f"/><path d="m15 91h59c8.285156 0 15-6.714844 15-15 0-8.28125-6.714844-15-15-15h-59c-8.285156 0-15 6.71875-15 15 0 8.285156 6.714844 15 15 15zm0 0" fill="#00465f"/><path d="m74 301h-59c-8.285156 0-15 6.71875-15 15 0 8.285156 6.714844 15 15 15h59c8.285156 0 15-6.714844 15-15s-6.714844-15-15-15zm0 0" fill="#00465f"/><path d="m74 361h-59c-8.285156 0-15 6.714844-15 15s6.714844 15 15 15h59c8.285156 0 15-6.714844 15-15s-6.714844-15-15-15zm0 0" fill="#00465f"/><path d="m74 421h-59c-8.285156 0-15 6.714844-15 15s6.714844 15 15 15h59c8.285156 0 15-6.714844 15-15s-6.714844-15-15-15zm0 0" fill="#00465f"/></g><path d="m119 0h30v512h-30zm0 0" fill="#9ed0ff"/><path d="m241 0h196c8.285156 0 15 6.714844 15 15v482c0 8.285156-6.714844 15-15 15h-196zm0 0" fill="#0082ff" fill-rule="evenodd"/><path d="m271.957031 245.21875c3.824219 4.832031 8.09375 9.515625 12.453125 13.871094 4.355469 4.359375 9.039063 8.628906 13.871094 12.453125 2.011719 1.589843 4.464844 2.300781 6.886719 2.160156 2.300781-.136719 4.597656-1.136719 6.441406-2.976563l3.042969-3.046874c7.421875-7.417969 17.183594-11.128907 26.933594-11.128907s19.511718 3.710938 26.933593 11.128907l12.113281 12.117187c6.46875 6.464844 9.878907 13.617187 10.996094 21.011719 1.226563 8.097656-.46875 15.988281-3.96875 23.261718-.148437.304688-.304687.605469-.472656.898438-3.0625 6.050781-7.269531 11.523438-11.882812 16.136719-8.933594 8.933593-20.476563 15.535156-28.746094 17.324219-17.117188 5.328124-37.921875 3.511718-59.15625-4.65625-19.941406-7.671876-40.480469-20.953126-58.601563-39.074219-18.121093-18.121094-31.402343-38.660157-39.070312-58.601563-8.167969-21.234375-9.988281-42.039062-4.660157-59.15625 1.789063-8.269531 8.394532-19.8125 17.328126-28.746094 4.886718-4.890624 10.679687-9.296874 17.035156-12.355468.3125-.148438.628906-.289063.949218-.417969 7.015626-3.210937 14.570313-4.722656 22.308594-3.550781 7.394532 1.117187 14.546875 4.527344 21.015625 10.996094l12.113281 12.117187c7.417969 7.417969 11.128907 17.179687 11.128907 26.929687s-3.710938 19.515626-11.128907 26.933594l-3.042968 3.046875c-1.84375 1.839844-2.84375 4.136719-2.976563 6.4375-.144531 2.421875.566407 4.875 2.15625 6.886719zm0 0" fill="#9ed0ff"/><path d="m380.632812 279.796875-12.113281-12.117187c-7.421875-7.417969-17.183593-11.128907-26.933593-11.128907s-19.515626 3.710938-26.933594 11.128907l-3.042969 3.046874c-1.84375 1.839844-4.140625 2.84375-6.441406 2.976563-2.421875.140625-4.875-.570313-6.886719-2.160156-4.832031-3.824219-9.515625-8.09375-13.871094-12.453125-4.359375-4.355469-8.628906-9.039063-12.453125-13.871094-1.589843-2.011719-2.300781-4.464844-2.15625-6.886719.132813-2.300781 1.132813-4.597656 2.976563-6.441406l3.042968-3.042969c7.417969-7.421875 11.128907-17.183594 11.128907-26.933594s-3.710938-19.511718-11.128907-26.933593l-12.113281-12.113281c-6.46875-6.46875-13.621093-9.878907-21.015625-10.996094-.566406-.085938-1.128906-.15625-1.691406-.214844v174.226562c14.875 12.476563 30.820312 21.894532 46.402344 27.890626 21.234375 8.167968 42.042968 9.984374 59.15625 4.65625 8.269531-1.789063 19.8125-8.390626 28.75-17.324219 4.613281-4.613281 8.816406-10.085938 11.878906-16.136719.167969-.292969.328125-.59375.472656-.902344 3.5-7.273437 5.195313-15.164062 3.972656-23.257812-1.121093-7.394532-4.53125-14.546875-11-21.011719zm0 0" fill="#73bcff"/></svg>