<?xml version="1.0" encoding="windows-1252"?>
<!-- Generator: Adobe Illustrator 21.0.0, SVG Export Plug-In . SVG Version: 6.00 Build 0)  -->
<svg xmlns="http://www.w3.org/2000/svg" xmlns:xlink="http://www.w3.org/1999/xlink" version="1.1" id="Capa_1" x="0px" y="0px" viewBox="0 0 511.999 511.999" style="enable-background:new 0 0 511.999 511.999;" xml:space="preserve" width="512" height="512">
<g>
	<path style="fill:#FFF3F3;" d="M233.714,511.999c-3.185,0-6.369-1.011-9.045-3.034L87.647,405.388   c-22.727-17.18-39.703-40.221-50.456-68.482c-9.204-24.189-13.87-52.302-13.87-83.557V76.734c0-5.325,2.823-10.25,7.417-12.942   C100.374,22.989,168.519,1.554,233.281,0.083C303.373-1.516,372.01,20.1,437.33,64.312c4.123,2.791,6.592,7.444,6.592,12.422   v176.669c0,31.237-4.661,59.333-13.852,83.508c-10.74,28.249-27.698,51.283-50.403,68.462L242.765,508.961   C240.088,510.986,236.9,511.999,233.714,511.999z"/>
	<path style="fill:#E9DFDA;" d="M437.33,64.312C372.116,20.172,303.596-1.442,233.622,0.078v511.917   c0.031,0,0.061,0.004,0.092,0.004c3.187,0,6.374-1.013,9.051-3.039l136.903-103.587c22.705-17.18,39.663-40.214,50.403-68.462   c9.191-24.175,13.852-52.271,13.852-83.508V76.734C443.923,71.756,441.453,67.102,437.33,64.312z"/>
	<g>
		<path style="fill:#00ECCF;" d="M233.688,443.386c-3.185,0-6.369-1.011-9.045-3.034l-98.011-74.088    C95.42,342.67,78.923,303.886,78.923,254.103V117.77c0-5.325,2.823-10.25,7.417-12.942    c50.445-29.558,99.883-45.086,146.941-46.156c51.036-1.156,100.974,14.545,148.448,46.676c4.123,2.791,6.592,7.444,6.592,12.422    v136.372c0,49.754-16.479,88.521-47.656,112.111l-97.926,74.095C240.062,442.374,236.875,443.386,233.688,443.386z"/>
	</g>
	<path style="fill:#00CAB1;" d="M381.728,105.348c-47.368-32.059-97.19-47.758-148.107-46.68v384.716   c0.022,0,0.044,0.003,0.066,0.003c3.187,0,6.374-1.013,9.051-3.039l97.926-74.095c31.177-23.59,47.656-62.357,47.656-112.111   V117.77C388.321,112.792,385.851,108.138,381.728,105.348z"/>
	<g>
		<path style="fill:#00347B;" d="M231.563,327.692c-0.045,0-0.091,0-0.136-0.001c-2.049-0.037-3.994-0.911-5.381-2.418    l-77.551-84.222c-5.866-6.371-8.854-14.581-8.411-23.118c0.467-9.016,4.792-17.766,11.863-24.006    c13.851-12.223,34.002-11.323,46.872,2.092l35.038,36.526L431.194,33.23c6.169-6.23,14.413-9.686,23.211-9.729    c0.059,0,0.118,0,0.176,0c8.982,0,16.973,3.402,23.752,10.115c13.456,13.322,13.831,34.025,0.854,47.133L236.892,325.469    C235.482,326.893,233.563,327.692,231.563,327.692z"/>
	</g>
	<path style="fill:#001035;" d="M478.334,33.614c-6.78-6.712-14.77-10.115-23.752-10.115c-0.058,0-0.118,0-0.176,0   c-8.798,0.044-17.042,3.499-23.211,9.729L233.856,232.545l-0.234-0.244v95.098c1.226-0.35,2.356-1.006,3.27-1.929L479.188,80.747   C492.165,67.64,491.79,46.937,478.334,33.614z"/>
</g>















</svg>