<?xml version="1.0" encoding="iso-8859-1"?>
<!-- Generator: Adobe Illustrator 19.0.0, SVG Export Plug-In . SVG Version: 6.00 Build 0)  -->
<svg version="1.1" id="Capa_1" xmlns="http://www.w3.org/2000/svg" xmlns:xlink="http://www.w3.org/1999/xlink" x="0px" y="0px"
	 viewBox="0 0 512 512" style="enable-background:new 0 0 512 512;" xml:space="preserve">
<linearGradient id="SVGID_1_" gradientUnits="userSpaceOnUse" x1="55.3472" y1="464.2773" x2="456.8873" y2="62.7372" gradientTransform="matrix(1.0667 0 0 -1.0667 3.2667 557.5334)">
	<stop  offset="0" style="stop-color:#00A6F9"/>
	<stop  offset="1" style="stop-color:#0071E2"/>
</linearGradient>
<path style="fill:url(#SVGID_1_);" d="M447.031,512H65.789c-11.647,0-21.089-9.442-21.089-21.089l-0.82-469.822
	C43.879,9.442,53.322,0,64.969,0H446.21c11.647,0,21.089,9.442,21.089,21.089l0.82,469.822C468.121,502.558,458.678,512,447.031,512
	z"/>
<linearGradient id="SVGID_2_" gradientUnits="userSpaceOnUse" x1="298.4438" y1="94.2401" x2="-4.8861" y2="30.7501" gradientTransform="matrix(1.0667 0 0 -1.0667 3.2667 557.5334)">
	<stop  offset="1.000000e-004" style="stop-color:#008BF2;stop-opacity:0"/>
	<stop  offset="1" style="stop-color:#0046E2"/>
</linearGradient>
<path style="fill:url(#SVGID_2_);" d="M468.121,433.267v57.644c0,11.642-9.447,21.089-21.089,21.089H65.789
	c-11.642,0-21.089-9.447-21.089-21.089v-57.644H468.121z"/>
<linearGradient id="SVGID_3_" gradientUnits="userSpaceOnUse" x1="300.2666" y1="165.3366" x2="108.2766" y2="357.3267" gradientTransform="matrix(1.0667 0 0 -1.0667 3.2667 557.5334)">
	<stop  offset="1.000000e-004" style="stop-color:#008BF2;stop-opacity:0"/>
	<stop  offset="1" style="stop-color:#0046E2"/>
</linearGradient>
<path style="fill:url(#SVGID_3_);" d="M468.115,433.262v57.644c0,5.821-2.362,11.093-6.172,14.903
	c-0.703,0.717-1.476,1.392-2.291,1.997c-1.631,1.21-3.444,2.193-5.371,2.91c-0.646,0.239-1.308,0.436-1.983,0.619
	c-1.687,0.436-3.459,0.661-5.273,0.661H339.429l-78.733-78.733l-111.9-111.915l-37.173-37.173
	c-16.646-14.903-27.135-36.541-27.135-60.653c0-44.962,36.443-81.405,81.405-81.405c24.112,0,45.749,10.489,60.667,27.135
	l241.415,241.415l0.042,22.594L468.115,433.262L468.115,433.262z"/>
<linearGradient id="SVGID_4_" gradientUnits="userSpaceOnUse" x1="433.1405" y1="201.4105" x2="301.8805" y2="332.6605" gradientTransform="matrix(1.0667 0 0 -1.0667 3.2667 557.5334)">
	<stop  offset="1.000000e-004" style="stop-color:#008BF2;stop-opacity:0"/>
	<stop  offset="1" style="stop-color:#0046E2"/>
</linearGradient>
<path style="fill:url(#SVGID_4_);" d="M468.115,433.262v27.219l-27.219-27.219l-111.899-111.9l-37.173-37.187
	c-16.646-14.903-27.121-36.541-27.121-60.653c0-5.047,0.464-9.997,1.335-14.79c6.959-37.904,40.154-66.614,80.069-66.614
	c24.098,0,45.749,10.489,60.653,27.135l60.906,60.906l0.309,177.726v2.784l0.042,22.594L468.115,433.262L468.115,433.262z"/>
<linearGradient id="SVGID_5_" gradientUnits="userSpaceOnUse" x1="255.4475" y1="43.8275" x2="130.2675" y2="168.9975" gradientTransform="matrix(1.0667 0 0 -1.0667 3.2667 557.5334)">
	<stop  offset="1.000000e-004" style="stop-color:#008BF2;stop-opacity:0"/>
	<stop  offset="1" style="stop-color:#0046E2"/>
</linearGradient>
<path style="fill:url(#SVGID_5_);" d="M391.871,511.996H162.013l-50.389-50.389c-8.717-7.803-15.746-17.447-20.457-28.343
	c-4.288-9.911-6.678-20.822-6.678-32.308c0-39.1,27.556-71.76,64.308-79.605c5.511-1.181,11.233-1.799,17.097-1.799
	c24.112,0,45.749,10.475,60.667,27.121l39.479,39.493l47.114,47.1L391.871,511.996z"/>
<linearGradient id="SVGID_6_" gradientUnits="userSpaceOnUse" x1="404.8376" y1="63.3776" x2="311.8576" y2="156.3476" gradientTransform="matrix(1.0667 0 0 -1.0667 3.2667 557.5334)">
	<stop  offset="1.000000e-004" style="stop-color:#008BF2;stop-opacity:0"/>
	<stop  offset="1" style="stop-color:#0046E2"/>
</linearGradient>
<path style="fill:url(#SVGID_6_);" d="M468.115,433.262v57.644c0,5.821-2.362,11.093-6.172,14.903
	c-0.703,0.717-1.476,1.392-2.291,1.997c-1.631,1.21-3.444,2.193-5.371,2.91c-0.646,0.239-1.308,0.436-1.983,0.619
	c-1.687,0.436-3.459,0.661-5.273,0.661H342.212l-50.389-50.389c-8.717-7.803-15.732-17.447-20.443-28.343
	c-4.302-9.911-6.678-20.822-6.678-32.308c0-5.047,0.464-9.997,1.335-14.79c5.933-32.323,30.959-57.967,62.959-64.8
	c5.511-1.195,11.248-1.813,17.11-1.813c15.817,0,30.579,4.513,43.065,12.316c6.551,4.092,12.47,9.083,17.588,14.804l61.215,61.215
	v2.784l0.042,22.594h0.099V433.262z"/>
<linearGradient id="SVGID_7_" gradientUnits="userSpaceOnUse" x1="115.9575" y1="349.6375" x2="196.6075" y2="268.9875" gradientTransform="matrix(1.0667 0 0 -1.0667 3.2667 557.5334)">
	<stop  offset="0" style="stop-color:#FFFFFF"/>
	<stop  offset="1" style="stop-color:#E8EFEE"/>
</linearGradient>
<circle style="fill:url(#SVGID_7_);" cx="165.899" cy="223.531" r="81.408"/>
<linearGradient id="SVGID_8_" gradientUnits="userSpaceOnUse" x1="193.6687" y1="271.9288" x2="104.8087" y2="360.7888" gradientTransform="matrix(1.0667 0 0 -1.0667 3.2667 557.5334)">
	<stop  offset="0" style="stop-color:#C2CECE;stop-opacity:0"/>
	<stop  offset="0.179" style="stop-color:#AFBCBC;stop-opacity:0.179"/>
	<stop  offset="1" style="stop-color:#5B6A6A"/>
</linearGradient>
<path style="fill:url(#SVGID_8_);" d="M245.039,242.572l-69.461-69.431c-2.297-2.797-5.781-4.582-9.683-4.582
	c-6.917,0-12.524,5.607-12.524,12.524v29.919h-29.919c-6.917,0-12.524,5.607-12.524,12.524c0,3.902,1.786,7.386,4.582,9.682
	l69.413,69.466C214.588,295.566,237.925,272.234,245.039,242.572z"/>
<linearGradient id="SVGID_9_" gradientUnits="userSpaceOnUse" x1="152.4645" y1="399.0175" x2="152.4645" y2="207.1175" gradientTransform="matrix(1.0667 0 0 -1.0667 3.2667 557.5334)">
	<stop  offset="0" style="stop-color:#FFCF95"/>
	<stop  offset="0.427" style="stop-color:#FFC954"/>
	<stop  offset="1" style="stop-color:#FFC200"/>
</linearGradient>
<path style="fill:url(#SVGID_9_);" d="M208.338,211.001h-29.919v-29.919c0-6.917-5.607-12.524-12.524-12.524
	c-6.917,0-12.524,5.607-12.524,12.524v29.919h-29.919c-6.917,0-12.524,5.607-12.524,12.524s5.607,12.524,12.524,12.524h29.919
	v29.919c0,6.917,5.607,12.524,12.524,12.524c6.917,0,12.524-5.607,12.524-12.524v-29.919h29.919c6.917,0,12.524-5.607,12.524-12.524
	S215.255,211.001,208.338,211.001z"/>
<linearGradient id="SVGID_10_" gradientUnits="userSpaceOnUse" x1="284.9048" y1="349.6348" x2="365.5447" y2="268.9848" gradientTransform="matrix(1.0667 0 0 -1.0667 3.2667 557.5334)">
	<stop  offset="0" style="stop-color:#FFFFFF"/>
	<stop  offset="1" style="stop-color:#E8EFEE"/>
</linearGradient>
<circle style="fill:url(#SVGID_10_);" cx="346.101" cy="223.531" r="81.408"/>
<linearGradient id="SVGID_11_" gradientUnits="userSpaceOnUse" x1="366.89" y1="267.65" x2="263.87" y2="370.68" gradientTransform="matrix(1.0667 0 0 -1.0667 3.2667 557.5334)">
	<stop  offset="0" style="stop-color:#C2CECE;stop-opacity:0"/>
	<stop  offset="0.179" style="stop-color:#AFBCBC;stop-opacity:0.179"/>
	<stop  offset="1" style="stop-color:#5B6A6A"/>
</linearGradient>
<path style="fill:url(#SVGID_11_);" d="M425.245,242.589l-27.054-27.054c-2.298-2.769-5.763-4.534-9.643-4.534h-84.886
	c-6.917,0-12.524,5.607-12.524,12.524c0,3.879,1.764,7.345,4.534,9.643l69.498,69.498C394.81,295.55,418.129,272.23,425.245,242.589
	z"/>
<linearGradient id="SVGID_12_" gradientUnits="userSpaceOnUse" x1="321.41" y1="332.6975" x2="321.41" y2="288.9775" gradientTransform="matrix(1.0667 0 0 -1.0667 3.2667 557.5334)">
	<stop  offset="0" style="stop-color:#FFCF95"/>
	<stop  offset="0.427" style="stop-color:#FFC954"/>
	<stop  offset="1" style="stop-color:#FFC200"/>
</linearGradient>
<path style="fill:url(#SVGID_12_);" d="M291.137,223.525L291.137,223.525c0-6.917,5.607-12.524,12.524-12.524h84.886
	c6.917,0,12.524,5.607,12.524,12.524l0,0c0,6.917-5.607,12.524-12.524,12.524h-84.886
	C296.745,236.049,291.137,230.442,291.137,223.525z"/>
<linearGradient id="SVGID_13_" gradientUnits="userSpaceOnUse" x1="115.9602" y1="183.3002" x2="196.6102" y2="102.6602" gradientTransform="matrix(1.0667 0 0 -1.0667 3.2667 557.5334)">
	<stop  offset="0" style="stop-color:#FFFFFF"/>
	<stop  offset="1" style="stop-color:#E8EFEE"/>
</linearGradient>
<circle style="fill:url(#SVGID_13_);" cx="165.899" cy="400.949" r="81.408"/>
<linearGradient id="SVGID_14_" gradientUnits="userSpaceOnUse" x1="184.3095" y1="114.9495" x2="118.6095" y2="180.6495" gradientTransform="matrix(1.0667 0 0 -1.0667 3.2667 557.5334)">
	<stop  offset="0" style="stop-color:#C2CECE;stop-opacity:0"/>
	<stop  offset="0.179" style="stop-color:#AFBCBC;stop-opacity:0.179"/>
	<stop  offset="1" style="stop-color:#5B6A6A"/>
</linearGradient>
<path style="fill:url(#SVGID_14_);" d="M247.212,404.532l-42.449-42.449c-4.891-4.891-12.821-4.891-17.712,0l-21.156,21.156
	l-21.156-21.156c-4.891-4.891-12.821-4.891-17.712,0c-4.891,4.891-4.891,12.821,0,17.712l1.668,1.668l19.488,19.488l-21.156,21.156
	c-4.891,4.891-4.891,12.821,0,17.712l42.449,42.449C211.585,480.443,245.388,446.64,247.212,404.532z"/>
<linearGradient id="SVGID_15_" gradientUnits="userSpaceOnUse" x1="152.4645" y1="195.7175" x2="152.4645" y2="64.4775" gradientTransform="matrix(1.0667 0 0 -1.0667 3.2667 557.5334)">
	<stop  offset="0" style="stop-color:#FFCF95"/>
	<stop  offset="0.427" style="stop-color:#FFC954"/>
	<stop  offset="1" style="stop-color:#FFC200"/>
</linearGradient>
<path style="fill:url(#SVGID_15_);" d="M204.764,422.107l-21.156-21.156l21.156-21.156c4.891-4.891,4.891-12.821,0-17.712
	c-4.891-4.891-12.821-4.891-17.712,0l-21.156,21.156l-21.156-21.156c-4.891-4.891-12.821-4.891-17.712,0s-4.891,12.821,0,17.712
	l21.156,21.156l-21.156,21.156c-4.891,4.891-4.891,12.821,0,17.712c4.891,4.891,12.821,4.891,17.712,0l21.156-21.156l21.156,21.156
	c4.891,4.891,12.821,4.891,17.712,0C209.654,434.928,209.654,426.997,204.764,422.107z"/>
<linearGradient id="SVGID_16_" gradientUnits="userSpaceOnUse" x1="284.9075" y1="183.2975" x2="365.5475" y2="102.6575" gradientTransform="matrix(1.0667 0 0 -1.0667 3.2667 557.5334)">
	<stop  offset="0" style="stop-color:#FFFFFF"/>
	<stop  offset="1" style="stop-color:#E8EFEE"/>
</linearGradient>
<circle style="fill:url(#SVGID_16_);" cx="346.101" cy="400.949" r="81.408"/>
<linearGradient id="SVGID_17_" gradientUnits="userSpaceOnUse" x1="348.0276" y1="142.0276" x2="269.2476" y2="220.8076" gradientTransform="matrix(1.0667 0 0 -1.0667 3.2667 557.5334)">
	<stop  offset="0" style="stop-color:#C2CECE;stop-opacity:0"/>
	<stop  offset="0.179" style="stop-color:#AFBCBC;stop-opacity:0.179"/>
	<stop  offset="1" style="stop-color:#5B6A6A"/>
</linearGradient>
<path style="fill:url(#SVGID_17_);" d="M427.511,400.954c0,12.991-3.051,25.279-8.464,36.175
	c-7.902,15.916-20.864,28.864-36.766,36.766l-62.157-62.157l-24.449-24.449c-2.77-2.306-4.541-5.764-4.541-9.645
	c0-6.917,5.61-12.527,12.527-12.527h84.892c3.881,0,7.339,1.772,9.631,4.541l29.3,29.3
	C427.498,399.618,427.511,400.278,427.511,400.954z"/>
<linearGradient id="SVGID_18_" gradientUnits="userSpaceOnUse" x1="348.0368" y1="98.3168" x2="258.7068" y2="187.6468" gradientTransform="matrix(1.0667 0 0 -1.0667 3.2667 557.5334)">
	<stop  offset="0" style="stop-color:#C2CECE;stop-opacity:0"/>
	<stop  offset="0.179" style="stop-color:#AFBCBC;stop-opacity:0.179"/>
	<stop  offset="1" style="stop-color:#5B6A6A"/>
</linearGradient>
<path style="fill:url(#SVGID_18_);" d="M419.047,437.129c-7.902,15.916-20.864,28.864-36.766,36.766
	c-10.896,5.427-23.184,8.464-36.175,8.464c-0.675,0-1.349-0.014-2.011-0.028l-48.421-48.421c-2.77-2.306-4.541-5.764-4.541-9.645
	c0-6.917,5.61-12.527,12.527-12.527h84.892c3.881,0,7.339,1.758,9.631,4.527L419.047,437.129z"/>
<linearGradient id="SVGID_19_" gradientUnits="userSpaceOnUse" x1="321.41" y1="144.5175" x2="321.41" y2="100.7875" gradientTransform="matrix(1.0667 0 0 -1.0667 3.2667 557.5334)">
	<stop  offset="0" style="stop-color:#FFCF95"/>
	<stop  offset="0.427" style="stop-color:#FFC954"/>
	<stop  offset="1" style="stop-color:#FFC200"/>
</linearGradient>
<path style="fill:url(#SVGID_19_);" d="M291.137,424.259L291.137,424.259c0-6.917,5.607-12.524,12.524-12.524h84.886
	c6.917,0,12.524,5.607,12.524,12.524l0,0c0,6.917-5.607,12.524-12.524,12.524h-84.886
	C296.745,436.784,291.137,431.177,291.137,424.259z"/>
<linearGradient id="SVGID_20_" gradientUnits="userSpaceOnUse" x1="321.41" y1="188.2175" x2="321.41" y2="144.4975" gradientTransform="matrix(1.0667 0 0 -1.0667 3.2667 557.5334)">
	<stop  offset="0" style="stop-color:#FFCF95"/>
	<stop  offset="0.427" style="stop-color:#FFC954"/>
	<stop  offset="1" style="stop-color:#FFC200"/>
</linearGradient>
<path style="fill:url(#SVGID_20_);" d="M291.137,377.642L291.137,377.642c0-6.917,5.607-12.524,12.524-12.524h84.886
	c6.917,0,12.524,5.607,12.524,12.524l0,0c0,6.917-5.607,12.524-12.524,12.524h-84.886
	C296.745,390.166,291.137,384.559,291.137,377.642z"/>
<linearGradient id="SVGID_21_" gradientUnits="userSpaceOnUse" x1="236.9375" y1="501.9135" x2="236.9375" y2="399.0675" gradientTransform="matrix(1.0667 0 0 -1.0667 3.2667 557.5334)">
	<stop  offset="0" style="stop-color:#C2CECE"/>
	<stop  offset="1" style="stop-color:#97AAAA"/>
</linearGradient>
<path style="fill:url(#SVGID_21_);" d="M420.543,109.313H91.457c-10.687,0-19.351-8.663-19.351-19.351V49.909
	c0-10.687,8.663-19.351,19.351-19.351h329.086c10.687,0,19.351,8.663,19.351,19.351v40.052
	C439.893,100.649,431.23,109.313,420.543,109.313z"/>
<linearGradient id="SVGID_22_" gradientUnits="userSpaceOnUse" x1="236.9375" y1="478.4175" x2="236.9375" y2="498.9475" gradientTransform="matrix(1.0667 0 0 -1.0667 3.2667 557.5334)">
	<stop  offset="0" style="stop-color:#363F3E;stop-opacity:0"/>
	<stop  offset="1" style="stop-color:#303033"/>
</linearGradient>
<path style="fill:url(#SVGID_22_);" d="M420.543,30.558H91.457c-10.687,0-19.35,8.663-19.35,19.351v6.915h367.787v-6.915
	C439.893,39.221,431.23,30.558,420.543,30.558z"/>
<g>
</g>
<g>
</g>
<g>
</g>
<g>
</g>
<g>
</g>
<g>
</g>
<g>
</g>
<g>
</g>
<g>
</g>
<g>
</g>
<g>
</g>
<g>
</g>
<g>
</g>
<g>
</g>
<g>
</g>
</svg>
