<svg height="512pt" viewBox="0 0 512 512" width="512pt" xmlns="http://www.w3.org/2000/svg"><g fill="#ffde46"><path d="m340.210938 58.21875c-1.554688-4.914062-5.519532-8.683594-10.503907-9.984375l-39.152343-10.238281-22.34375-31.648438c-2.8125-3.980468-7.382813-6.347656-12.253907-6.347656-4.875 0-9.441406 2.367188-12.253906 6.347656l-22.347656 31.648438-39.148438 10.238281c-4.984375 1.300781-8.949219 5.070313-10.503906 9.980469s-.484375 10.277344 2.839844 14.210937l24.894531 29.457031-1.699219 37.433594c-.226562 4.976563 2.03125 9.742188 6.03125 12.714844 3.996094 2.972656 9.207031 3.769531 13.910157 2.125l38.277343-13.40625s38.238281 13.390625 38.277344 13.40625c4.457031 1.558594 9.910156.855469 13.914063-2.125 3.996093-2.972656 6.253906-7.738281 6.027343-12.714844l-1.699219-37.433594 24.894532-29.457031c3.320312-3.933593 4.394531-9.296875 2.839844-14.207031zm0 0"/><path d="m142.300781 73.125c-1.558593-4.910156-5.523437-8.679688-10.507812-9.984375l-30.570313-7.992187-17.425781-24.679688c-2.8125-3.980469-7.378906-6.347656-12.253906-6.347656-4.871094 0-9.441407 2.367187-12.253907 6.351562l-17.421874 24.675782-30.574219 7.992187c-4.984375 1.304687-8.949219 5.074219-10.507813 9.984375-1.554687 4.910156-.480468 10.273438 2.84375 14.210938l19.359375 22.90625-1.320312 29.074218c-.226563 4.976563 2.03125 9.742188 6.027343 12.714844 3.722657 2.769531 9.277344 3.746094 13.914063 2.125l29.933594-10.484375 29.933593 10.484375c4.703126 1.644531 9.914063.847656 13.914063-2.125 3.996094-2.972656 6.253906-7.738281 6.027344-12.714844l-1.320313-29.074218 19.355469-22.90625c3.328125-3.9375 4.402344-9.300782 2.847656-14.210938zm0 0"/><path d="m511.296875 73.125c-1.554687-4.910156-5.523437-8.679688-10.503906-9.984375l-30.574219-7.992187-17.425781-24.675782c-2.808594-3.984375-7.378907-6.351562-12.253907-6.351562-4.871093 0-9.441406 2.367187-12.25 6.351562l-17.425781 24.675782-30.574219 7.992187c-4.980468 1.304687-8.949218 5.074219-10.503906 9.984375-1.554687 4.910156-.480468 10.273438 2.84375 14.210938l19.355469 22.90625-1.320313 29.074218c-.226562 4.976563 2.035157 9.742188 6.03125 12.714844 3.996094 2.976562 9.210938 3.773438 13.910157 2.125l29.933593-10.480469s29.878907 10.460938 29.933594 10.480469c4.449219 1.554688 9.925782.84375 13.914063-2.125 3.996093-2.972656 6.253906-7.738281 6.027343-12.714844l-1.320312-29.074218 19.359375-22.90625c3.324219-3.9375 4.398437-9.300782 2.84375-14.210938zm0 0"/></g><path d="m104.65625 340.082031h-69.871094c-19.179687 0-34.785156 15.605469-34.785156 34.785157v34.625c0 12.398437 6.460938 23.417968 16.457031 29.589843v57.910157c0 8.285156 6.714844 15 15 15h76.527344c8.285156 0 15-6.714844 15-15v-57.910157c9.992187-6.175781 16.457031-17.191406 16.457031-29.589843v-34.625c0-19.179688-15.605468-34.785157-34.785156-34.785157zm0 0" fill="#00ee84"/><path d="m69.703125 227.972656c-28.269531 0-51.269531 23-51.269531 51.273438 0 28.269531 23 51.269531 51.269531 51.269531 28.273437 0 51.273437-23 51.273437-51.269531 0-28.273438-23-51.273438-51.273437-51.273438zm0 0" fill="#ffcdbe"/><path d="m299.03125 318.996094h-87.816406c-21.980469 0-39.863282 17.898437-39.863282 39.902344v21.253906c0 14.96875 8.210938 28.191406 20.714844 35.015625l.238282 81.875c.023437 8.269531 6.734374 14.957031 15 14.957031h96.179687c3.984375 0 7.808594-1.585938 10.621094-4.410156 2.8125-2.820313 4.390625-6.648438 4.378906-10.632813l-.242187-81.820312c12.46875-6.835938 20.652343-20.039063 20.652343-34.984375v-21.253906c0-22.003907-17.882812-39.902344-39.863281-39.902344zm0 0" fill="#0095ff"/><path d="m255.105469 178.34375c-33.40625 0-60.585938 27.175781-60.585938 60.582031s27.179688 60.585938 60.585938 60.585938 60.582031-27.179688 60.582031-60.585938-27.179688-60.582031-60.582031-60.582031zm0 0" fill="#ffcdbe"/><path d="m477.210938 340.082031h-69.871094c-19.179688 0-34.785156 15.605469-34.785156 34.785157v34.625c0 12.398437 6.464843 23.417968 16.457031 29.589843v57.910157c0 8.285156 6.714843 15 15 15h76.527343c8.285157 0 15-6.714844 15-15v-57.910157c9.992188-6.171875 16.457032-17.191406 16.457032-29.589843v-34.625c0-19.179688-15.605469-34.785157-34.785156-34.785157zm0 0" fill="#ff2828"/><path d="m442.257812 227.972656c-28.269531 0-51.269531 23-51.269531 51.273438 0 28.269531 23 51.269531 51.269531 51.269531 28.273438 0 51.273438-23 51.273438-51.269531 0-28.273438-23-51.273438-51.273438-51.273438zm0 0" fill="#ffcdbe"/><path d="m71.542969 228.019531v102.449219c27.421875-.972656 49.433593-23.570312 49.433593-51.226562 0-27.652344-22.011718-50.25-49.433593-51.222657zm0 0" fill="#ffbeaa"/><path d="m104.65625 340.082031h-33.113281v171.910157h36.441406c8.285156 0 15-6.714844 15-15v-57.910157c9.992187-6.175781 16.457031-17.191406 16.457031-29.589843v-34.625c0-19.179688-15.605468-34.785157-34.785156-34.785157zm0 0" fill="#00dd7b"/><path d="m255.105469 178.34375v121.167969c33.40625 0 60.582031-27.179688 60.582031-60.585938s-27.179688-60.582031-60.582031-60.582031zm0 0" fill="#ffbeaa"/><path d="m299.03125 318.996094h-43.925781v193.003906h48.378906c3.984375 0 7.808594-1.585938 10.621094-4.410156 2.8125-2.820313 4.390625-6.648438 4.378906-10.632813l-.242187-81.820312c12.46875-6.835938 20.652343-20.039063 20.652343-34.984375v-21.253906c0-22.003907-17.882812-39.902344-39.863281-39.902344zm0 0" fill="#0082ff"/><path d="m442.257812 227.972656c-.085937 0-.171874.007813-.261718.007813v102.527343c.085937 0 .175781.007813.261718.007813 28.273438 0 51.273438-23 51.273438-51.269531 0-28.273438-23-51.273438-51.273438-51.273438zm0 0" fill="#ffbeaa"/><path d="m477.210938 340.082031h-35.214844v171.910157h38.542968c8.285157 0 15-6.714844 15-15v-57.910157c9.992188-6.171875 16.457032-17.191406 16.457032-29.589843v-34.625c0-19.179688-15.605469-34.785157-34.785156-34.785157zm0 0" fill="#c9001c"/><path d="m142.300781 73.125c-1.558593-4.910156-5.523437-8.679688-10.507812-9.984375l-30.570313-7.992187-17.425781-24.679688c-2.8125-3.980469-7.378906-6.347656-12.253906-6.347656-.476563 0-.945313.042968-1.417969.085937v119.960938l1.417969-.492188 29.933593 10.480469c4.703126 1.644531 9.917969.851562 13.914063-2.125 3.996094-2.972656 6.253906-7.738281 6.03125-12.714844l-1.324219-29.074218 19.359375-22.90625c3.324219-3.9375 4.398438-9.300782 2.84375-14.210938zm0 0" fill="#ffcd00"/><path d="m340.210938 58.21875c-1.554688-4.914062-5.519532-8.683594-10.503907-9.984375l-39.152343-10.238281-22.34375-31.648438c-2.8125-3.980468-7.382813-6.347656-12.253907-6.347656-.289062 0-.570312.0351562-.855469.0507812v140.9999998l.855469-.300781s38.277344 13.40625 38.277344 13.40625c4.671875 1.636719 9.933594.835938 13.910156-2.125 3.996094-2.972656 6.257813-7.738281 6.03125-12.714844l-1.703125-37.433594 24.894532-29.457031c3.324218-3.933593 4.398437-9.296875 2.84375-14.207031zm0 0" fill="#ffcd00"/><path d="m511.296875 73.125c-1.554687-4.910156-5.523437-8.679688-10.503906-9.984375l-30.574219-7.992187-17.425781-24.675782c-2.527344-3.582031-6.480469-5.839844-10.796875-6.261718v119.972656s28.480468 9.972656 28.480468 9.972656c4.667969 1.636719 9.933594.835938 13.910157-2.121094 3.996093-2.976562 6.257812-7.738281 6.03125-12.714844l-1.320313-29.078124 19.355469-22.90625c3.324219-3.9375 4.398437-9.300782 2.84375-14.210938zm0 0" fill="#ffcd00"/></svg>