<?xml version="1.0" encoding="windows-1252"?>
<!-- Generator: Adobe Illustrator 21.0.0, SVG Export Plug-In . SVG Version: 6.00 Build 0)  -->
<svg xmlns="http://www.w3.org/2000/svg" xmlns:xlink="http://www.w3.org/1999/xlink" version="1.1" id="Capa_1" x="0px" y="0px" viewBox="0 0 511.998 511.998" style="enable-background:new 0 0 511.998 511.998;" xml:space="preserve" width="512" height="512">
<g>
	<path style="fill:#00347B;" d="M490.108,399.104l-177.063-80.84c-2.184-0.997-4.587-1.421-6.979-1.228l-50.067,3.996l-50.067-3.996   c-2.392-0.193-4.795,0.231-6.979,1.228l-177.063,80.84c-5.023,2.293-8.245,7.307-8.245,12.828v85.965   c0,7.788,6.313,14.101,14.101,14.101h227.562h1.381h227.562c7.788,0,14.101-6.313,14.101-14.101v-85.965   C498.353,406.411,495.13,401.397,490.108,399.104z"/>
	<path style="fill:#FFF3F3;" d="M133.349,348.217l68.843,77.297c5.513,6.183,14.995,6.726,21.179,1.212l28.612-25.513   c6.183-5.514,6.726-14.995,1.212-21.179l-52.445-62.473L133.349,348.217z"/>
	<path style="fill:#001035;" d="M490.108,399.104l-177.063-80.84c-2.184-0.997-4.587-1.421-6.979-1.228l-49.067,3.916v191.046   h227.252c7.788,0,14.101-6.313,14.101-14.101v-85.965C498.353,406.411,495.13,401.397,490.108,399.104z"/>
	<polygon style="fill:#FFF1DD;" points="207.622,318.043 194.357,326.128 252.332,390.019 272.666,390.019 326.499,336.908    298.332,322.274  "/>
	<polygon style="fill:#FFE4C1;" points="298.332,322.311 256.999,320.377 256.999,390.248 272.666,390.248 326.499,336.986  "/>
	<path style="fill:#FFE277;" d="M133.349,348.092l68.843,77.297c5.513,6.183,14.995,6.726,21.179,1.212l28.612-25.513   c6.183-5.514,6.726-14.995,1.212-21.179l-52.445-62.473L133.349,348.092z"/>
	<path style="fill:#FFCB00;" d="M380.054,348.883l-68.249,76.63c-5.513,6.183-14.995,6.726-21.179,1.212l-28.612-25.513   c-6.183-5.514-6.726-14.995-1.212-21.179l52.445-62.473L380.054,348.883z"/>
	<path style="fill-rule:evenodd;clip-rule:evenodd;fill:#FFDCCD;" d="M255.999,45L255.999,45   c59.903,0,108.913,49.011,108.913,108.913v79.21c0,59.903-49.011,108.913-108.913,108.913h0   c-59.902,0-108.913-49.011-108.913-108.913v-79.21C147.086,94.01,196.097,45,255.999,45z"/>
	<path style="fill-rule:evenodd;clip-rule:evenodd;fill:#FFCBBC;" d="M256.999,45.012v297.01   c59.446-0.543,107.913-49.332,107.913-108.901v-79.209C364.912,94.344,316.445,45.555,256.999,45.012z"/>
	<g>
		<path style="fill:#00347B;" d="M260.265,211.177c-50.271,0-101.639-10.88-130.865-27.719c-3.293-1.897-5.638-5.089-6.465-8.799    c-0.826-3.709-0.056-7.595,2.12-10.71l19.788-28.316c2.536-3.629,6.684-5.791,11.111-5.791h199.714    c4.361,0,8.456,2.099,11.003,5.638l20.163,28.024c2.232,3.103,3.051,7.004,2.255,10.741c-0.796,3.738-3.134,6.967-6.437,8.889    C352.049,200.956,307.44,211.177,260.265,211.177z"/>
	</g>
	<path style="fill:#001035;" d="M386.834,163.504l-20.163-28.024c-2.547-3.54-6.642-5.638-11.003-5.638h-98.669v81.313   c1.089,0.01,2.178,0.022,3.266,0.022c47.175,0,91.784-10.221,122.387-28.042c3.303-1.923,5.64-5.151,6.437-8.889   C389.885,170.508,389.067,166.607,386.834,163.504z"/>
	<g>
		<path style="fill:#046EFF;" d="M255.999,145.999c-35.461,0-70.921-0.002-106.382-0.005c-5.565-0.001-10.673-3.082-13.268-8.006    L101.61,72.082c-2.03-3.852-2.287-8.396-0.703-12.451s4.852-7.223,8.955-8.679L250.982,0.864c3.245-1.152,6.789-1.152,10.034,0    l141.12,50.088c4.104,1.456,7.371,4.623,8.955,8.679s1.328,8.6-0.703,12.451l-34.739,65.906    c-2.595,4.924-7.703,8.005-13.268,8.006C326.92,145.997,291.46,145.999,255.999,145.999z"/>
	</g>
	<path style="fill:#0051BD;" d="M411.091,59.631c-1.584-4.056-4.852-7.223-8.955-8.679L261.016,0.864   c-1.304-0.463-2.656-0.731-4.017-0.822v145.957c35.128,0,70.255-0.002,105.382-0.005c5.565-0.001,10.673-3.082,13.268-8.006   l34.739-65.906C412.418,68.23,412.675,63.687,411.091,59.631z"/>
	<path style="fill-rule:evenodd;clip-rule:evenodd;fill:#FFF3F3;" d="M255.999,100c8.262,0,15-6.739,15-15c0-8.262-6.738-15-15-15   c-8.262,0-15,6.738-15,15C240.999,93.261,247.737,100,255.999,100z"/>
	<path style="fill-rule:evenodd;clip-rule:evenodd;fill:#E9DFDA;" d="M256.999,70.05v29.899c7.797-0.52,14-7.025,14-14.95   S264.796,70.57,256.999,70.05z"/>
</g>















</svg>