<svg id="Capa_1" enable-background="new 0 0 512 512" height="512" viewBox="0 0 512 512" width="512" xmlns="http://www.w3.org/2000/svg"><g><g><path d="m512 286.229v209h-512v-209l30-30h452z" fill="#97de3d"/></g><path d="m512 286.229v209h-256v-239h226z" fill="#59c36a"/><path d="m0 226.229h512v60h-512z" fill="#2d5177"/><path d="m256 226.229h256v60h-256z" fill="#32405d"/><g><path d="m121 346.229h144.99v30h-144.99z" fill="#c0e1f0"/></g><g><path d="m61 406.229h120v30h-120z" fill="#c0e1f0"/></g><g><path d="m61 346.229h30v30h-30z" fill="#c0e1f0"/></g><g><g><path d="m473.631 40.283-38.369-23.512-47.024 76.737 17.741 28.465 12.79 7.837 21.272 13.036 24.934-2.313 47.025-76.738z" fill="#2d5177"/></g><g><path d="m464.975 140.533 47.025-76.738-38.369-23.512-54.862 89.527 21.272 13.036z" fill="#32405d"/></g><g><path d="m285.532 347.233-12.79-7.837-31.35 51.158 12.79 7.838 12.789 7.837 31.35-51.158z" fill="#2d5177"/></g><g><path d="m246.252 369.231h60v15h-60z" fill="#32405d" transform="matrix(.523 -.853 .853 .523 -189.306 415.433)"/></g><g><path d="m426.606 117.021-38.368-23.513-94.05 153.475 11.009 24.34 19.522 11.962 20.868 12.788 25.338-2.065 94.05-153.475z" fill="#ff641a"/></g><g><path d="m370.925 294.008 94.05-153.475-38.369-23.512-101.887 166.264 20.868 12.788z" fill="#f03800"/></g><g><path d="m332.557 270.496-38.369-23.512c-24.462 39.161-32.733 71.975-37.121 117.992l12.79 7.837 12.79 7.837c39.422-24.101 63.802-47.456 88.279-86.642z" fill="#ffe6cc"/></g><g><path d="m370.925 294.008-38.369-23.512-62.7 102.317 12.79 7.837c39.423-24.101 63.802-47.455 88.279-86.642z" fill="#fc9"/></g></g></g></svg>