<svg id="Layer_1" enable-background="new 0 0 511.252 511.252" height="512" viewBox="0 0 511.252 511.252" width="512" xmlns="http://www.w3.org/2000/svg"><g><ellipse cx="161.618" cy="161.618" fill="#04eb84" rx="77.672" ry="77.672" transform="matrix(.411 -.912 .912 .411 -52.15 242.514)"/><ellipse cx="161.618" cy="349.634" fill="#04eb84" rx="77.672" ry="77.672" transform="matrix(.411 -.912 .912 .411 -223.547 353.243)"/><ellipse cx="349.634" cy="349.634" fill="#0ed678" rx="77.672" ry="77.672" transform="matrix(.379 -.925 .925 .379 -106.445 540.632)"/><ellipse cx="349.634" cy="161.618" fill="#0ed678" rx="77.672" ry="77.672" transform="matrix(.987 -.159 .159 .987 -21.293 57.802)"/><g><path d="m452.985 186.569c-21.592-25.591-57.097-34.709-88.347-22.689l-28.058 10.792 10.792-28.058c12.02-31.251 2.901-66.755-22.689-88.347l-69.057-58.267-10.667 255.626 10.667 255.626 69.056-58.266c25.591-21.592 34.71-57.096 22.689-88.347l-10.791-28.059 28.059 10.792c31.252 12.021 66.755 2.902 88.347-22.689l58.267-69.057z" fill="#efe2dd"/><path d="m186.569 58.267c-25.591 21.592-34.709 57.096-22.689 88.347l10.791 28.058-28.059-10.792c-31.249-12.02-66.754-2.903-88.347 22.689l-58.265 69.057 58.266 69.057c21.592 25.59 57.096 34.709 88.347 22.689l28.059-10.792-10.791 28.058c-12.02 31.251-2.902 66.755 22.689 88.347l69.056 58.266v-511.251z" fill="#f7f0eb"/></g><g><path d="m255.626 167.508-10.667 88.118 10.667 88.118c48.588 0 88.117-39.529 88.117-88.118s-39.529-88.118-88.117-88.118z" fill="#fdb902"/><path d="m167.508 255.626c0 48.588 39.529 88.118 88.117 88.118v-176.236c-48.588 0-88.117 39.53-88.117 88.118z" fill="#fdd902"/></g></g></svg>