<svg id="Capa_1" enable-background="new 0 0 512.007 512.007" height="512" viewBox="0 0 512.007 512.007" width="512" xmlns="http://www.w3.org/2000/svg"><g><g><path d="m271.004 336.337v96.4c0 8.29-6.72 15-15 15s-15-6.71-15-15v-96.4c0-8.28 6.72-15 15-15s15 6.72 15 15z" fill="#ff2828"/></g><path d="m271.004 336.337v96.4c0 8.29-6.72 15-15 15v-126.4c8.28 0 15 6.72 15 15z" fill="#c00"/><g><path d="m497.004 479.874h-208.867c-8.284 0-15-6.716-15-15s6.716-15 15-15h208.867c8.284 0 15 6.716 15 15s-6.716 15-15 15z" fill="#c00"/></g><g><path d="m223.87 479.874h-208.866c-8.284 0-15-6.716-15-15s6.716-15 15-15h208.866c8.284 0 15 6.716 15 15s-6.716 15-15 15z" fill="#ff2828"/></g><path d="m303.134 464.877c0 25.99-21.14 47.13-47.13 47.13s-47.13-21.14-47.13-47.13 21.14-47.14 47.13-47.14 47.13 21.15 47.13 47.14z" fill="#58b354"/><path d="m303.134 464.877c0 25.99-21.14 47.13-47.13 47.13v-94.27c25.99 0 47.13 21.15 47.13 47.14z" fill="#00a963"/><path d="m444.994 167.427c-5.429 6.273-14.912 6.932-21.16 1.52l-9.34-8.09v160.83c0 16.35-13.8 29.65-30.77 29.65h-255.44c-16.97 0-30.77-13.3-30.77-29.65v-160.83l-9.34 8.09c-6.27 5.42-15.74 4.74-21.16-1.52-5.42-6.27-4.74-15.74 1.52-21.16l154.22-133.5c18.545-17.015 47.938-17.031 66.5 0l154.22 133.5c6.26 5.42 6.94 14.89 1.52 21.16z" fill="#ffec00"/><path d="m444.994 167.427c-5.429 6.273-14.912 6.932-21.16 1.52l-9.34-8.09v160.83c0 16.35-13.8 29.65-30.77 29.65h-127.72v-351.33c12.48 0 24.28 4.53 33.25 12.76l154.22 133.5c6.26 5.42 6.94 14.89 1.52 21.16z" fill="#ffd92e"/><path d="m331.004 146.997v121.62c0 7.84-6.35 14.19-14.19 14.19h-121.62c-7.84 0-14.19-6.35-14.19-14.19v-121.62c0-7.84 6.35-14.19 14.19-14.19h121.62c7.84 0 14.19 6.35 14.19 14.19z" fill="#ecf9fd"/><path d="m331.004 146.997v121.62c0 7.84-6.35 14.19-14.19 14.19h-60.81v-150h60.81c7.84 0 14.19 6.35 14.19 14.19z" fill="#d9f3fc"/><path d="m320.274 128.537h-128.54c-8.28 0-15 6.72-15 15v128.54c0 8.28 6.72 15 15 15h128.54c8.28 0 15-6.72 15-15v-128.54c0-8.28-6.72-15-15-15zm-79.27 128.54h-34.27v-34.27h34.27zm0-64.27h-34.27v-34.27h34.27zm64.27 64.27h-34.27v-34.27h34.27zm0-64.27h-34.27v-34.27h34.27z" fill="#00357b"/><path d="m320.274 128.537h-64.27v158.54h64.27c8.28 0 15-6.72 15-15v-128.54c0-8.28-6.72-15-15-15zm-15 128.54h-34.27v-34.27h34.27zm0-64.27h-34.27v-34.27h34.27z" fill="#001737"/></g></svg>