<svg id="Capa_1" enable-background="new 0 0 512 512" height="512" viewBox="0 0 512 512" width="512" xmlns="http://www.w3.org/2000/svg"><g><path d="m331 286h-75-75c-57.891 0-105 47.109-105 105v105h75l30-30h75 75l30 30h75v-105c0-57.891-47.109-105-105-105z" fill="#97de3d"/><path d="m361 496h75v-105c0-57.891-47.109-105-105-105h-75v180h75z" fill="#59c36a"/><path d="m256 241h-45v45c0 24.853 20.147 45 45 45s45-20.147 45-45v-45z" fill="#fc9"/><path d="m301 286v-45h-45v90c24.853 0 45-20.147 45-45z" fill="#ffaa80"/><path d="m0 151h46v-135h60v135h45l-75 105z" fill="#ff641a"/><path d="m361 121h45v135h60v-135h46l-76-105z" fill="#59c36a"/><path d="m297.29 136h-41.29-45l-30 15v60c0 41.353 33.647 75 75 75s75-33.647 75-75v-60z" fill="#ffe6cc"/><path d="m331 211v-60l-33.71-15h-41.29v150c41.353 0 75-33.647 75-75z" fill="#fc9"/><path d="m256 76h-75v75h75 75c0-41.353-33.647-75-75-75z" fill="#fabe2c"/><path d="m256 76v75h75c0-41.353-33.647-75-75-75z" fill="#ff9100"/><path d="m256 346h-105v150h105 105v-150z" fill="#edf9ff"/><path d="m256 346h105v150h-105z" fill="#c0e1f0"/><path d="m256 406h-15v30h15 15v-30z" fill="#2d5177"/><path d="m256 406h15v30h-15z" fill="#32405d"/></g></svg>