<?xml version="1.0" encoding="iso-8859-1"?>
<!-- Generator: Adobe Illustrator 19.0.0, SVG Export Plug-In . SVG Version: 6.00 Build 0)  -->
<svg version="1.1" id="Capa_1" xmlns="http://www.w3.org/2000/svg" xmlns:xlink="http://www.w3.org/1999/xlink" x="0px" y="0px"
	 viewBox="0 0 512.001 512.001" style="enable-background:new 0 0 512.001 512.001;" xml:space="preserve">
<linearGradient id="SVGID_1_" gradientUnits="userSpaceOnUse" x1="417.1909" y1="101.9704" x2="483.311" y2="35.8405" gradientTransform="matrix(1.0667 0 0 -1.0667 3.2666 557.5334)">
	<stop  offset="0" style="stop-color:#97AAAA"/>
	<stop  offset="1" style="stop-color:#E8EFEE"/>
</linearGradient>
<path style="fill:url(#SVGID_1_);" d="M511.534,27.295v457.876c0,14.81-12.019,26.829-26.829,26.829H26.829
	c-14.81,0-26.829-12.019-26.829-26.829V27.295c0-14.81,12.019-26.829,26.829-26.829h457.876
	C499.515,0.466,511.534,12.485,511.534,27.295z"/>
<linearGradient id="SVGID_2_" gradientUnits="userSpaceOnUse" x1="236.7195" y1="537.3415" x2="236.7195" y2="29.1375" gradientTransform="matrix(1.0667 0 0 -1.0667 3.2666 557.5334)">
	<stop  offset="0" style="stop-color:#FFFFFF"/>
	<stop  offset="1" style="stop-color:#E8EFEE"/>
</linearGradient>
<path style="fill:url(#SVGID_2_);" d="M376.478,512H26.829c-14.817,0-26.829-12.012-26.829-26.829V27.295
	c0-14.817,12.012-26.829,26.829-26.829h457.876c14.817,0,26.829,12.012,26.829,26.829v356.674c0,4.106-1.615,8.046-4.497,10.971
	L402.382,501.157C395.547,508.094,386.217,512,376.478,512z"/>
<linearGradient id="SVGID_3_" gradientUnits="userSpaceOnUse" x1="236.7195" y1="71.2675" x2="236.7195" y2="38.1175" gradientTransform="matrix(1.0667 0 0 -1.0667 3.2666 557.5334)">
	<stop  offset="0" style="stop-color:#C2CECE;stop-opacity:0"/>
	<stop  offset="0.179" style="stop-color:#AFBCBC;stop-opacity:0.179"/>
	<stop  offset="1" style="stop-color:#5B6A6A"/>
</linearGradient>
<path style="fill:url(#SVGID_3_);" d="M511.534,463.709v21.464c0,14.81-12.019,26.829-26.829,26.829H26.829
	C12.02,512,0.001,499.981,0.001,485.171v-21.463h511.534V463.709z"/>
<path style="fill:#FFFFFF;" d="M471.43,63.194v367.883c-13.095,13.287-27.802,28.224-40.22,40.82H62.727
	c-12.481,0-22.623-10.141-22.623-22.623V63.194c0-12.481,10.141-22.623,22.623-22.623h386.08
	C461.289,40.571,471.43,50.711,471.43,63.194z"/>
<linearGradient id="SVGID_4_" gradientUnits="userSpaceOnUse" x1="175.3707" y1="277.8891" x2="523.1907" y2="244.7391" gradientTransform="matrix(1.0667 0 0 -1.0667 3.2666 557.5334)">
	<stop  offset="0" style="stop-color:#C2CECE;stop-opacity:0"/>
	<stop  offset="0.179" style="stop-color:#AFBCBC;stop-opacity:0.179"/>
	<stop  offset="1" style="stop-color:#5B6A6A"/>
</linearGradient>
<path style="fill:url(#SVGID_4_);" d="M255.117,0.466H24.068c-13.292,0-24.067,12.012-24.067,26.829v51.869v406.009
	C0.001,499.988,10.776,512,24.068,512h231.05C256.58,512,255.117,0.466,255.117,0.466z"/>
<linearGradient id="SVGID_5_" gradientUnits="userSpaceOnUse" x1="237.1565" y1="361.7275" x2="237.1565" y2="9.0375" gradientTransform="matrix(1.0667 0 0 -1.0667 3.2666 557.5334)">
	<stop  offset="0" style="stop-color:#C2CECE;stop-opacity:0"/>
	<stop  offset="0.179" style="stop-color:#AFBCBC;stop-opacity:0.179"/>
	<stop  offset="1" style="stop-color:#5B6A6A"/>
</linearGradient>
<path style="fill:url(#SVGID_5_);" d="M512.001,258.685V24.404C512.001,10.926,499.989,0,485.172,0h-51.869H27.295
	C12.478,0,0.467,10.926,0.467,24.404v234.281C0.467,260.167,512.001,258.685,512.001,258.685z"/>
<linearGradient id="SVGID_6_" gradientUnits="userSpaceOnUse" x1="163.2971" y1="-32.8425" x2="163.2971" y2="794.9875" gradientTransform="matrix(1.0667 0 0 -1.0667 3.2666 557.5334)">
	<stop  offset="0" style="stop-color:#FFCF95"/>
	<stop  offset="0.054" style="stop-color:#FED19A"/>
	<stop  offset="1" style="stop-color:#E8EFEE"/>
</linearGradient>
<path style="fill:url(#SVGID_6_);" d="M82.248,109.158c19.136-19.136,44.579-29.676,71.643-29.676
	c27.062,0,52.507,10.539,71.643,29.676l50.231,50.231l39.031-39.031l-79.788-79.788H62.727c-12.481,0-22.623,10.141-22.623,22.623
	v88.109L82.248,109.158z"/>
<linearGradient id="SVGID_7_" gradientUnits="userSpaceOnUse" x1="308.1675" y1="47.7575" x2="308.1675" y2="746.6575" gradientTransform="matrix(1.0667 0 0 -1.0667 3.2666 557.5334)">
	<stop  offset="0" style="stop-color:#FFCF95"/>
	<stop  offset="0.054" style="stop-color:#FED19A"/>
	<stop  offset="1" style="stop-color:#E8EFEE"/>
</linearGradient>
<path style="fill:url(#SVGID_7_);" d="M348.625,86.531l45.961-45.961H269.372l45.961,45.961
	C324.526,95.725,339.431,95.725,348.625,86.531z"/>
<g>
	
		<linearGradient id="SVGID_8_" gradientUnits="userSpaceOnUse" x1="381.589" y1="-32.8425" x2="381.589" y2="794.9875" gradientTransform="matrix(1.0667 0 0 -1.0667 3.2666 557.5334)">
		<stop  offset="0" style="stop-color:#FFCF95"/>
		<stop  offset="0.054" style="stop-color:#FED19A"/>
		<stop  offset="1" style="stop-color:#E8EFEE"/>
	</linearGradient>
	<path style="fill:url(#SVGID_8_);" d="M471.43,242.628V63.194c0-12.481-10.141-22.623-22.623-22.623h-19.859l-79.788,79.788
		L471.43,242.628z"/>
	
		<linearGradient id="SVGID_9_" gradientUnits="userSpaceOnUse" x1="144.2395" y1="-32.8425" x2="144.2395" y2="794.9875" gradientTransform="matrix(1.0667 0 0 -1.0667 3.2666 557.5334)">
		<stop  offset="0" style="stop-color:#FFCF95"/>
		<stop  offset="0.054" style="stop-color:#FED19A"/>
		<stop  offset="1" style="stop-color:#E8EFEE"/>
	</linearGradient>
	<path style="fill:url(#SVGID_9_);" d="M153.891,103.781c-20.573,0-39.915,8.012-54.462,22.559l-43.767,43.766L160.355,274.8
		l98.228-98.228l-50.231-50.231C193.805,111.792,174.463,103.781,153.891,103.781z"/>
	
		<linearGradient id="SVGID_10_" gradientUnits="userSpaceOnUse" x1="107.4245" y1="-32.8425" x2="107.4245" y2="794.9875" gradientTransform="matrix(1.0667 0 0 -1.0667 3.2666 557.5334)">
		<stop  offset="0" style="stop-color:#FFCF95"/>
		<stop  offset="0.054" style="stop-color:#FED19A"/>
		<stop  offset="1" style="stop-color:#E8EFEE"/>
	</linearGradient>
	<path style="fill:url(#SVGID_10_);" d="M183.496,410.611c-8.046-15.374-5.618-34.843,7.283-47.744
		c3.109-3.109,4.821-7.244,4.821-11.641c0-4.397-1.713-8.531-4.821-11.641L40.105,188.912v260.362
		c0,12.481,10.141,22.623,22.623,22.623h59.485L183.496,410.611z"/>
	
		<linearGradient id="SVGID_11_" gradientUnits="userSpaceOnUse" x1="301.1415" y1="-32.8425" x2="301.1415" y2="794.9875" gradientTransform="matrix(1.0667 0 0 -1.0667 3.2666 557.5334)">
		<stop  offset="0" style="stop-color:#FFCF95"/>
		<stop  offset="0.054" style="stop-color:#FED19A"/>
		<stop  offset="1" style="stop-color:#E8EFEE"/>
	</linearGradient>
	<path style="fill:url(#SVGID_11_);" d="M471.43,276.991L331.979,137.54L177.538,291.982l30.422,30.422
		c15.893,15.893,15.893,41.751,0,57.645c-6.418,6.418-6.418,16.862,0,23.28l68.566,68.566h154.685
		c12.417-12.596,27.124-27.534,40.22-40.82V276.991H471.43z"/>
	
		<linearGradient id="SVGID_12_" gradientUnits="userSpaceOnUse" x1="183.8465" y1="-32.8425" x2="183.8465" y2="794.9875" gradientTransform="matrix(1.0667 0 0 -1.0667 3.2666 557.5334)">
		<stop  offset="0" style="stop-color:#FFCF95"/>
		<stop  offset="0.054" style="stop-color:#FED19A"/>
		<stop  offset="1" style="stop-color:#E8EFEE"/>
	</linearGradient>
	<polygon style="fill:url(#SVGID_12_);" points="242.164,471.896 199.369,429.101 156.575,471.896 	"/>
</g>
<path style="fill:#FFB000;" d="M438.861,209.984l-79.422-79.919c-5.498-5.533-5.483-14.519,0.031-20.034l69.461-69.461h-34.363
	L342.29,92.849c-14.959,14.96-14.996,39.338-0.084,54.343l79.422,79.919c5.498,5.533,5.484,14.519-0.031,20.034L297.26,371.479
	c-2.679,2.681-6.242,4.156-10.032,4.156c-3.79,0-7.353-1.476-10.033-4.156c-15.005-15.004-39.421-15.004-54.428,0L122.353,471.895
	h34.364l83.233-83.234c5.533-5.53,14.534-5.533,20.065,0c7.269,7.268,16.934,11.273,27.213,11.273
	c10.281,0,19.945-4.004,27.213-11.273l124.336-124.334C453.736,249.366,453.773,224.989,438.861,209.984z"/>
<g>
	
		<linearGradient id="SVGID_13_" gradientUnits="userSpaceOnUse" x1="12.8089" y1="339.3279" x2="277.8889" y2="541.9979" gradientTransform="matrix(1.0667 0 0 -1.0667 3.2666 557.5334)">
		<stop  offset="0" style="stop-color:#C69C6D;stop-opacity:0"/>
		<stop  offset="1" style="stop-color:#754C24"/>
	</linearGradient>
	<path style="fill:url(#SVGID_13_);" d="M255.448,139.067l-29.911-29.911c-19.145-19.132-44.58-29.669-71.641-29.669
		c-27.073,0-52.509,10.538-71.653,29.669l-42.138,42.15V63.194c0-12.481,10.141-22.623,22.623-22.623h172.285l20.257,20.257
		C255.333,82.849,255.397,109.641,255.448,139.067z"/>
	
		<linearGradient id="SVGID_14_" gradientUnits="userSpaceOnUse" x1="53.9362" y1="285.5359" x2="319.0162" y2="488.2059" gradientTransform="matrix(1.0667 0 0 -1.0667 3.2666 557.5334)">
		<stop  offset="0" style="stop-color:#C69C6D;stop-opacity:0"/>
		<stop  offset="1" style="stop-color:#754C24"/>
	</linearGradient>
	<path style="fill:url(#SVGID_14_);" d="M255.525,179.631l-95.171,95.171L55.668,170.103l43.762-43.762
		c14.541-14.553,33.889-22.559,54.465-22.559c20.563,0,39.913,8.005,54.452,22.559l47.164,47.164
		C255.525,175.538,255.525,177.585,255.525,179.631z"/>
	
		<linearGradient id="SVGID_15_" gradientUnits="userSpaceOnUse" x1="96.0091" y1="230.507" x2="361.0891" y2="433.177" gradientTransform="matrix(1.0667 0 0 -1.0667 3.2666 557.5334)">
		<stop  offset="0" style="stop-color:#C69C6D;stop-opacity:0"/>
		<stop  offset="1" style="stop-color:#754C24"/>
	</linearGradient>
	<path style="fill:url(#SVGID_15_);" d="M183.496,410.611c-8.046-15.374-5.618-34.843,7.283-47.744
		c3.109-3.109,4.821-7.244,4.821-11.641c0-4.397-1.713-8.531-4.821-11.641L40.105,188.912v260.362
		c0,12.481,10.141,22.623,22.623,22.623h59.485L183.496,410.611z"/>
	
		<linearGradient id="SVGID_16_" gradientUnits="userSpaceOnUse" x1="157.3" y1="150.3423" x2="422.3801" y2="353.0123" gradientTransform="matrix(1.0667 0 0 -1.0667 3.2666 557.5334)">
		<stop  offset="0" style="stop-color:#C69C6D;stop-opacity:0"/>
		<stop  offset="1" style="stop-color:#754C24"/>
	</linearGradient>
	<path style="fill:url(#SVGID_16_);" d="M255.691,451.064l-47.726-47.739c-6.419-6.42-6.419-16.855,0-23.275
		c15.883-15.895,15.883-41.755,0-57.65l-30.423-30.423l78.047-78.047C255.742,299.828,255.844,392.288,255.691,451.064z"/>
	
		<linearGradient id="SVGID_17_" gradientUnits="userSpaceOnUse" x1="198.6172" y1="96.3019" x2="463.6973" y2="298.9719" gradientTransform="matrix(1.0667 0 0 -1.0667 3.2666 557.5334)">
		<stop  offset="0" style="stop-color:#C69C6D;stop-opacity:0"/>
		<stop  offset="1" style="stop-color:#754C24"/>
	</linearGradient>
	<polygon style="fill:url(#SVGID_17_);" points="242.164,471.896 199.369,429.101 156.575,471.896 	"/>
</g>
<linearGradient id="SVGID_18_" gradientUnits="userSpaceOnUse" x1="144.241" y1="413.1475" x2="144.241" y2="265.5275" gradientTransform="matrix(1.0667 0 0 -1.0667 3.2666 557.5334)">
	<stop  offset="0" style="stop-color:#C2D600"/>
	<stop  offset="1" style="stop-color:#7BD101"/>
</linearGradient>
<path style="fill:url(#SVGID_18_);" d="M82.795,170.105l30.198-30.198c10.916-10.925,25.44-16.94,40.901-16.94
	c15.454,0,29.972,6.015,40.883,16.933l36.674,36.675l-71.098,71.098L82.795,170.105z"/>
<linearGradient id="SVGID_19_" gradientUnits="userSpaceOnUse" x1="394.3065" y1="485.0845" x2="394.3065" y2="336.3975" gradientTransform="matrix(1.0667 0 0 -1.0667 3.2666 557.5334)">
	<stop  offset="0" style="stop-color:#C2D600"/>
	<stop  offset="1" style="stop-color:#7BD101"/>
</linearGradient>
<path style="fill:url(#SVGID_19_);" d="M455.156,41.492l-78.866,78.866l95.141,95.141V63.194
	C471.43,52.917,464.55,44.242,455.156,41.492z"/>
<g>
	
		<linearGradient id="SVGID_20_" gradientUnits="userSpaceOnUse" x1="274.6367" y1="549.3978" x2="-154.8333" y2="130.0377" gradientTransform="matrix(1.0667 0 0 -1.0667 3.2666 557.5334)">
		<stop  offset="0" style="stop-color:#C69C6D;stop-opacity:0"/>
		<stop  offset="1" style="stop-color:#754C24"/>
	</linearGradient>
	<path style="fill:url(#SVGID_20_);" d="M82.248,109.158c19.136-19.136,44.579-29.676,71.643-29.676
		c27.062,0,52.507,10.539,71.643,29.676l50.231,50.231l39.031-39.031l-79.788-79.788H62.727c-12.481,0-22.623,10.141-22.623,22.623
		v88.109L82.248,109.158z"/>
	
		<linearGradient id="SVGID_21_" gradientUnits="userSpaceOnUse" x1="424.8013" y1="395.613" x2="-4.6687" y2="-23.7471" gradientTransform="matrix(1.0667 0 0 -1.0667 3.2666 557.5334)">
		<stop  offset="0" style="stop-color:#C69C6D;stop-opacity:0"/>
		<stop  offset="1" style="stop-color:#754C24"/>
	</linearGradient>
	<path style="fill:url(#SVGID_21_);" d="M471.43,242.628V63.194c0-12.481-10.141-22.623-22.623-22.623h-19.859l-79.788,79.788
		L471.43,242.628z"/>
	
		<linearGradient id="SVGID_22_" gradientUnits="userSpaceOnUse" x1="305.789" y1="517.4944" x2="-123.681" y2="98.1344" gradientTransform="matrix(1.0667 0 0 -1.0667 3.2666 557.5334)">
		<stop  offset="0" style="stop-color:#C69C6D;stop-opacity:0"/>
		<stop  offset="1" style="stop-color:#754C24"/>
	</linearGradient>
	<path style="fill:url(#SVGID_22_);" d="M258.581,176.575l-83.227,83.227c-10.218,0-20.231,0.013-29.988,0.013l-89.697-89.711
		l43.762-43.762c14.541-14.553,33.889-22.559,54.465-22.559c20.563,0,39.913,8.005,54.452,22.559L258.581,176.575z"/>
	
		<linearGradient id="SVGID_23_" gradientUnits="userSpaceOnUse" x1="292.1535" y1="531.4587" x2="-137.3165" y2="112.0987" gradientTransform="matrix(1.0667 0 0 -1.0667 3.2666 557.5334)">
		<stop  offset="0" style="stop-color:#C69C6D;stop-opacity:0"/>
		<stop  offset="1" style="stop-color:#754C24"/>
	</linearGradient>
	<path style="fill:url(#SVGID_23_);" d="M110.99,259.802c-27.75,0-52.112-0.051-70.885-0.128v-70.757L110.99,259.802z"/>
	
		<linearGradient id="SVGID_24_" gradientUnits="userSpaceOnUse" x1="425.1993" y1="395.2054" x2="-4.2707" y2="-24.1547" gradientTransform="matrix(1.0667 0 0 -1.0667 3.2666 557.5334)">
		<stop  offset="0" style="stop-color:#C69C6D;stop-opacity:0"/>
		<stop  offset="1" style="stop-color:#754C24"/>
	</linearGradient>
	<path style="fill:url(#SVGID_24_);" d="M453.743,259.315c-59.427,0.141-155.519,0.358-244.002,0.461l122.231-122.231
		L453.743,259.315z"/>
</g>
<linearGradient id="SVGID_25_" gradientUnits="userSpaceOnUse" x1="426.4086" y1="131.6681" x2="223.7386" y2="334.3381" gradientTransform="matrix(1.0667 0 0 -1.0667 3.2666 557.5334)">
	<stop  offset="0" style="stop-color:#C69C6D;stop-opacity:0"/>
	<stop  offset="1" style="stop-color:#754C24"/>
</linearGradient>
<path style="fill:url(#SVGID_25_);" d="M409.099,213.812c-17.198-18.325-41.532-29.873-68.581-30.149
	c-54.188-0.554-97.52,44.915-96.385,99.093c1.38,65.902,39.678,115.011,67.319,141.994l82.672,82.672
	c3.01-1.67,5.797-3.767,8.257-6.265L507.036,394.94c2.881-2.925,4.497-6.865,4.497-10.971v-67.723L409.099,213.812z"/>
<linearGradient id="SVGID_26_" gradientUnits="userSpaceOnUse" x1="315.2478" y1="184.1575" x2="315.2478" y2="513.8605" gradientTransform="matrix(1.0667 0 0 -1.0667 3.2666 557.5334)">
	<stop  offset="0" style="stop-color:#E05A00"/>
	<stop  offset="0.251" style="stop-color:#DB5300"/>
	<stop  offset="0.618" style="stop-color:#CC3F00"/>
	<stop  offset="1" style="stop-color:#B72401"/>
</linearGradient>
<path style="fill:url(#SVGID_26_);" d="M340.518,183.663c-54.188-0.554-97.52,44.915-96.385,99.093
	c1.638,78.206,55.266,132.765,81.378,154.759c8.112,6.833,19.953,6.801,28.063-0.033c26.534-22.359,81.377-78.268,81.377-158.397
	C434.951,226.715,392.763,184.196,340.518,183.663z"/>
<linearGradient id="SVGID_27_" gradientUnits="userSpaceOnUse" x1="315.2479" y1="328.2875" x2="315.2479" y2="124.8175" gradientTransform="matrix(1.0667 0 0 -1.0667 3.2666 557.5334)">
	<stop  offset="0" style="stop-color:#E05A00"/>
	<stop  offset="0.251" style="stop-color:#DB5300"/>
	<stop  offset="0.618" style="stop-color:#CC3F00"/>
	<stop  offset="1" style="stop-color:#B72401"/>
</linearGradient>
<path style="fill:url(#SVGID_27_);" d="M340.461,191.092c-51.078-0.522-91.924,42.338-90.854,93.408
	c1.545,73.718,52.095,125.147,76.708,145.879c7.647,6.441,18.807,6.411,26.453-0.032c25.011-21.077,76.707-73.776,76.707-149.308
	C429.476,231.674,389.708,191.596,340.461,191.092z"/>
<radialGradient id="SVGID_28_" cx="315.238" cy="261.0475" r="63.01" gradientTransform="matrix(1.0667 0 0 -1.0667 3.2666 557.5334)" gradientUnits="userSpaceOnUse">
	<stop  offset="0" style="stop-color:#E05A00"/>
	<stop  offset="0.251" style="stop-color:#DB5300"/>
	<stop  offset="0.618" style="stop-color:#CC3F00"/>
	<stop  offset="1" style="stop-color:#B72401"/>
</radialGradient>
<circle style="fill:url(#SVGID_28_);" cx="339.521" cy="279.083" r="45.467"/>
<linearGradient id="SVGID_29_" gradientUnits="userSpaceOnUse" x1="367.0041" y1="144.8239" x2="416.5702" y2="95.2677" gradientTransform="matrix(1.0667 0 0 -1.0667 3.2666 557.5334)">
	<stop  offset="0" style="stop-color:#FFFFFF"/>
	<stop  offset="1" style="stop-color:#E8EFEE"/>
</linearGradient>
<path style="fill:url(#SVGID_29_);" d="M510.161,390.377c0,0-0.793,2.245-3.914,5.366c-1.158,1.159-103.25,104.79-103.25,104.79
	C395.769,507.869,385.9,512,375.602,512l0,0l0,0c8.891,0,16.097-7.207,16.097-16.097v-78.698c0-14.817,12.012-26.829,26.829-26.829
	H510.161z"/>
<linearGradient id="SVGID_30_" gradientUnits="userSpaceOnUse" x1="90.627" y1="211.7375" x2="90.627" y2="56.4075" gradientTransform="matrix(1.0667 0 0 -1.0667 3.2666 557.5334)">
	<stop  offset="0" style="stop-color:#00A6F9"/>
	<stop  offset="1" style="stop-color:#0071E2"/>
</linearGradient>
<path style="fill:url(#SVGID_30_);" d="M159.766,434.341l-30.608-30.608c-6.586-6.587-6.586-17.301,0-23.888
	c10.574-10.573,10.574-27.778,0-38.354l-89.053-89.053v14.468l81.819,81.819c6.586,6.587,6.586,17.301,0,23.887
	c-10.573,10.574-10.573,27.781,0,38.355l30.609,30.609L159.766,434.341z"/>
<g>
</g>
<g>
</g>
<g>
</g>
<g>
</g>
<g>
</g>
<g>
</g>
<g>
</g>
<g>
</g>
<g>
</g>
<g>
</g>
<g>
</g>
<g>
</g>
<g>
</g>
<g>
</g>
<g>
</g>
</svg>
