<svg height="512pt" viewBox="-3 0 512 512" width="512pt" xmlns="http://www.w3.org/2000/svg"><path d="m231.996094 218c-31.453125 0-157.265625-.035156-188.722656-.035156-11.515626 0-22.359376 4.46875-30.539063 12.582031-8.214844 8.144531-12.73828125 18.964844-12.734375 30.46875l.0195312 90.4375c0 16.558594 9.3710938 31.132813 23.5195308 38.320313l.054688 107.234374c.003906 8.28125 6.71875 14.992188 15 14.992188h89.382812c8.285157 0 15-6.714844 15-15l.003907-189h89.015625c8.285156 0 15-6.714844 15-15v-60c0-8.285156-6.714844-15-15-15zm0 0" fill="#00ee84"/><path d="m83.445312 57c-36.777343 0-66.695312 29.917969-66.695312 66.695312 0 36.777344 29.917969 66.695313 66.695312 66.695313 36.777344 0 66.695313-29.917969 66.695313-66.695313 0-36.777343-29.917969-66.695312-66.695313-66.695312zm0 0" fill="#ffcdbe"/><path d="m231.996094 218c-31.453125 0-130.449219-.023438-148.496094-.027344v294.027344h44.476562c8.285157 0 15-6.714844 15-15l.003907-189h89.015625c8.285156 0 15-6.714844 15-15v-60c0-8.285156-6.714844-15-15-15zm0 0" fill="#00dd7b"/><path d="m505 41.03125c0-4.890625-2.386719-9.476562-6.394531-12.28125-43.417969-30.425781-90.1875-30.675781-142.972657-.769531-35.109374 19.890625-73.082031 19.777343-112.867187-.332031-4.648437-2.351563-10.1875-2.121094-14.625.609374-4.4375 2.726563-7.140625 7.566407-7.140625 12.773438v147.128906c0 4.890625 2.386719 9.476563 6.390625 12.28125 21.894531 15.34375 44.636719 23.011719 68.578125 23.011719 23.535156-.003906 48.230469-7.417969 74.398438-22.242187 35.105468-19.890626 73.078124-19.777344 112.863281.335937 4.648437 2.347656 10.1875 2.117187 14.625-.609375 4.4375-2.730469 7.144531-7.570312 7.144531-12.777344v-.121094s0-.003906 0-.007812zm0 0" fill="#ff2828"/><path d="m236 512c-8.285156 0-15-6.714844-15-15v-482c0-8.285156 6.714844-15 15-15s15 6.714844 15 15v482c0 8.285156-6.714844 15-15 15zm0 0" fill="#a8ebfa"/><path d="m83.5 57v133.390625c36.75-.03125 66.640625-29.9375 66.640625-66.695313 0-36.757812-29.890625-66.664062-66.640625-66.695312zm0 0" fill="#ffbeaa"/><path d="m498.605469 28.75c-41.433594-29.035156-85.917969-30.570312-135.773438-4.660156v181.1875c2.5-1.292969 5.011719-2.636719 7.535157-4.066406 35.105468-19.890626 73.078124-19.777344 112.863281.335937 4.648437 2.347656 10.1875 2.117187 14.625-.609375 4.4375-2.730469 7.144531-7.570312 7.144531-12.777344v-.121094s0-.003906 0-.007812v-147c0-4.890625-2.386719-9.476562-6.394531-12.28125zm0 0" fill="#c9001c"/></svg>