<svg id="Capa_1" enable-background="new 0 0 512 512" height="512" viewBox="0 0 512 512" width="512" xmlns="http://www.w3.org/2000/svg"><g><path d="m505 70.25v299.5c0 32.74-26.631 59.371-59.371 59.371h-379.258c-32.74 0-59.371-26.631-59.371-59.371v-299.5c0-32.74 26.631-59.371 59.371-59.371h379.258c32.74 0 59.371 26.631 59.371 59.371z" fill="#ecf9fd"/><path d="m505 70.25v299.5c0 32.74-26.631 59.371-59.371 59.371h-189.629v-418.242h189.629c32.74 0 59.371 26.631 59.371 59.371z" fill="#d9f3fc"/><path d="m352.39 420v72c0 8.28-6.71 15-15 15h-162.78c-8.29 0-15-6.72-15-15v-72c0-8.28 6.71-15 15-15h162.78c8.29 0 15 6.72 15 15z" fill="#006aad"/><path d="m352.39 420v72c0 8.28-6.71 15-15 15h-81.39v-102h81.39c8.29 0 15 6.72 15 15z" fill="#004397"/><path d="m400 477h-288c-8.28 0-15 6.72-15 15s6.72 15 15 15h288c8.28 0 15-6.72 15-15s-6.72-15-15-15z" fill="#00357b"/><path d="m415 492c0 8.28-6.72 15-15 15h-144v-30h144c8.28 0 15 6.72 15 15z" fill="#001737"/><path d="m450.96 5h-389.92c-33.66 0-61.04 27.38-61.04 61.04v307.92c0 33.66 27.38 61.04 61.04 61.04h389.92c33.66 0 61.04-27.38 61.04-61.04v-307.92c0-33.66-27.38-61.04-61.04-61.04zm31.04 351h-452v-289.96c0-17.11 13.93-31.04 31.04-31.04h389.92c17.11 0 31.04 13.93 31.04 31.04z" fill="#00357b"/><path d="m512 66.04v307.92c0 33.66-27.38 61.04-61.04 61.04h-194.96v-79h226v-289.96c0-17.11-13.93-31.04-31.04-31.04h-194.96v-30h194.96c33.66 0 61.04 27.38 61.04 61.04z" fill="#001737"/><path d="m208 277h-24c-8.284 0-15 6.716-15 15s6.716 15 15 15h24c8.284 0 15-6.716 15-15s-6.716-15-15-15z" fill="#00357b"/><path d="m312 277h-24c-8.284 0-15 6.716-15 15s6.716 15 15 15h24c8.284 0 15-6.716 15-15s-6.716-15-15-15z" fill="#001737"/><path d="m176 69h-47.422c-8.284 0-15 6.716-15 15s6.716 15 15 15h32.422v65c0 8.284 6.716 15 15 15s15-6.716 15-15v-80c0-8.284-6.716-15-15-15z" fill="#00357b"/><path d="m356.09 149.02-21.34 81.31c-2.58 9.81-11.47 16.67-21.62 16.67h-129.78c-12.32 0-22.35-10.03-22.35-22.35v-81.3c0-12.32 10.03-22.35 22.35-22.35h151.12c14.644 0 25.338 13.842 21.62 28.02z" fill="#ffec00"/><path d="m356.09 149.02-21.34 81.31c-2.58 9.81-11.47 16.67-21.62 16.67h-57.13v-126h78.47c14.644 0 25.338 13.842 21.62 28.02z" fill="#ffd92e"/></g></svg>