<?xml version="1.0" encoding="iso-8859-1"?>
<!-- Generator: Adobe Illustrator 19.0.0, SVG Export Plug-In . SVG Version: 6.00 Build 0)  -->
<svg version="1.1" id="Capa_1" xmlns="http://www.w3.org/2000/svg" xmlns:xlink="http://www.w3.org/1999/xlink" x="0px" y="0px"
	 viewBox="0 0 512 512" style="enable-background:new 0 0 512 512;" xml:space="preserve">
<linearGradient id="SVGID_1_" gradientUnits="userSpaceOnUse" x1="417.5875" y1="102.0375" x2="483.7775" y2="35.8475" gradientTransform="matrix(1.0667 0 0 -1.0667 3.2667 557.5334)">
	<stop  offset="0" style="stop-color:#97AAAA"/>
	<stop  offset="1" style="stop-color:#E8EFEE"/>
</linearGradient>
<path style="fill:url(#SVGID_1_);" d="M512,26.853v458.293C512,499.97,499.97,512,485.147,512H26.853C12.03,512,0,499.97,0,485.147
	V26.853C0,12.03,12.03,0,26.853,0h458.293C499.97,0,512,12.03,512,26.853z"/>
<linearGradient id="SVGID_2_" gradientUnits="userSpaceOnUse" x1="236.9375" y1="537.7875" x2="236.9375" y2="29.1275" gradientTransform="matrix(1.0667 0 0 -1.0667 3.2667 557.5334)">
	<stop  offset="0" style="stop-color:#FFFFFF"/>
	<stop  offset="1" style="stop-color:#E8EFEE"/>
</linearGradient>
<path style="fill:url(#SVGID_2_);" d="M376.821,512H26.853C12.022,512,0,499.978,0,485.147V26.853C0,12.022,12.022,0,26.853,0
	h458.293C499.978,0,512,12.022,512,26.853v356.999c0,4.109-1.617,8.053-4.501,10.98L402.748,501.148
	C395.907,508.091,386.569,512,376.821,512z"/>
<linearGradient id="SVGID_3_" gradientUnits="userSpaceOnUse" x1="236.9375" y1="71.2975" x2="236.9375" y2="38.1175" gradientTransform="matrix(1.0667 0 0 -1.0667 3.2667 557.5334)">
	<stop  offset="0" style="stop-color:#C2CECE;stop-opacity:0"/>
	<stop  offset="0.179" style="stop-color:#AFBCBC;stop-opacity:0.179"/>
	<stop  offset="1" style="stop-color:#5B6A6A"/>
</linearGradient>
<path style="fill:url(#SVGID_3_);" d="M512,463.664v21.483C512,499.97,499.97,512,485.147,512H26.853C12.03,512,0,499.97,0,485.147
	v-21.483H512z"/>
<g>
	<path style="fill:#C2CECE;" d="M429.714,230.234H205.298c-5.05,0-9.142-4.094-9.142-9.142l0,0c0-5.05,4.094-9.142,9.142-9.142
		h224.416c5.05,0,9.142,4.094,9.142,9.142l0,0C438.858,226.141,434.764,230.234,429.714,230.234z"/>
	<path style="fill:#C2CECE;" d="M429.714,300.052H205.298c-5.05,0-9.142-4.094-9.142-9.142l0,0c0-5.05,4.094-9.142,9.142-9.142
		h224.416c5.05,0,9.142,4.094,9.142,9.142l0,0C438.858,295.958,434.764,300.052,429.714,300.052z"/>
	<path style="fill:#C2CECE;" d="M429.714,369.87H205.298c-5.05,0-9.142-4.094-9.142-9.142l0,0c0-5.05,4.094-9.142,9.142-9.142
		h224.416c5.05,0,9.142,4.094,9.142,9.142l0,0C438.858,365.777,434.764,369.87,429.714,369.87z"/>
	<path style="fill:#C2CECE;" d="M361.053,439.689H205.299c-5.05,0-9.142-4.094-9.142-9.142l0,0c0-5.05,4.094-9.142,9.142-9.142
		h155.754c5.05,0,9.142,4.094,9.142,9.142l0,0C370.195,435.595,366.102,439.689,361.053,439.689z"/>
</g>
<linearGradient id="SVGID_4_" gradientUnits="userSpaceOnUse" x1="236.9375" y1="361.5775" x2="236.9375" y2="8.5775" gradientTransform="matrix(1.0667 0 0 -1.0667 3.2667 557.5334)">
	<stop  offset="0" style="stop-color:#C2CECE;stop-opacity:0"/>
	<stop  offset="0.179" style="stop-color:#AFBCBC;stop-opacity:0.179"/>
	<stop  offset="1" style="stop-color:#5B6A6A"/>
</linearGradient>
<path style="fill:url(#SVGID_4_);" d="M512,258.922V24.427C512,10.937,499.978,0,485.147,0h-51.916H26.853
	C12.022,0,0,10.937,0,24.427v234.495C0,260.404,512,258.922,512,258.922z"/>
<linearGradient id="SVGID_5_" gradientUnits="userSpaceOnUse" x1="54.5995" y1="366.0645" x2="408.3655" y2="366.0645" gradientTransform="matrix(1.0667 0 0 -1.0667 3.2667 557.5334)">
	<stop  offset="0" style="stop-color:#D63305"/>
	<stop  offset="0.366" style="stop-color:#CF3004"/>
	<stop  offset="0.899" style="stop-color:#BC2602"/>
	<stop  offset="1" style="stop-color:#B72401"/>
</linearGradient>
<path style="fill:url(#SVGID_5_);" d="M435.533,170.389H64.831c-1.836,0-3.325-1.488-3.325-3.325l0,0
	c0-1.836,1.488-3.325,3.325-3.325h370.701c1.836,0,3.325,1.488,3.325,3.325l0,0C438.858,168.901,437.369,170.389,435.533,170.389z"
	/>
<linearGradient id="SVGID_6_" gradientUnits="userSpaceOnUse" x1="175.5379" y1="278.1028" x2="523.668" y2="244.9229" gradientTransform="matrix(1.0667 0 0 -1.0667 3.2667 557.5334)">
	<stop  offset="0" style="stop-color:#C2CECE;stop-opacity:0"/>
	<stop  offset="0.179" style="stop-color:#AFBCBC;stop-opacity:0.179"/>
	<stop  offset="1" style="stop-color:#5B6A6A"/>
</linearGradient>
<path style="fill:url(#SVGID_6_);" d="M255.349,0H24.09C10.785,0,0,12.022,0,26.853v51.916v406.378C0,499.978,10.785,512,24.09,512
	h231.26C256.813,512,255.349,0,255.349,0z"/>
<linearGradient id="SVGID_7_" gradientUnits="userSpaceOnUse" x1="367.3458" y1="144.9218" x2="416.9565" y2="95.3111" gradientTransform="matrix(1.0667 0 0 -1.0667 3.2667 557.5334)">
	<stop  offset="0" style="stop-color:#FFFFFF"/>
	<stop  offset="1" style="stop-color:#E8EFEE"/>
</linearGradient>
<path style="fill:url(#SVGID_7_);" d="M510.625,390.266c0,0-0.794,2.247-3.917,5.371c-1.159,1.159-103.344,104.886-103.344,104.886
	c-7.235,7.343-17.111,11.477-27.42,11.477l0,0l0,0c8.898,0,16.112-7.214,16.112-16.112v-78.769
	c0-14.831,12.022-26.853,26.853-26.853H510.625z"/>
<linearGradient id="SVGID_8_" gradientUnits="userSpaceOnUse" x1="106.808" y1="319.8375" x2="106.808" y2="107.0075" gradientTransform="matrix(1.0667 0 0 -1.0667 3.2667 557.5334)">
	<stop  offset="0" style="stop-color:#FFCF95"/>
	<stop  offset="0.427" style="stop-color:#FFC954"/>
	<stop  offset="1" style="stop-color:#FFC200"/>
</linearGradient>
<path style="fill:url(#SVGID_8_);" d="M70.508,439.689h93.375c4.971,0,9.001-4.03,9.001-9.001V220.949
	c0-4.971-4.03-9.001-9.001-9.001H70.508c-4.971,0-9.001,4.03-9.001,9.001v209.739C61.506,435.659,65.536,439.689,70.508,439.689z"/>
<linearGradient id="SVGID_9_" gradientUnits="userSpaceOnUse" x1="106.8075" y1="323.9865" x2="106.8075" y2="266.1565" gradientTransform="matrix(1.0667 0 0 -1.0667 3.2667 557.5334)">
	<stop  offset="0" style="stop-color:#FFC200;stop-opacity:0"/>
	<stop  offset="0.203" style="stop-color:#FFBB00;stop-opacity:0.203"/>
	<stop  offset="0.499" style="stop-color:#FFA700;stop-opacity:0.499"/>
	<stop  offset="0.852" style="stop-color:#FF8800;stop-opacity:0.852"/>
	<stop  offset="1" style="stop-color:#FF7800"/>
</linearGradient>
<path style="fill:url(#SVGID_9_);" d="M172.883,259.319v-47.372H61.506v47.322C89.611,259.322,129.091,259.332,172.883,259.319z"/>
<g>
	
		<linearGradient id="SVGID_10_" gradientUnits="userSpaceOnUse" x1="122.972" y1="498.6375" x2="122.972" y2="335.9075" gradientTransform="matrix(1.0667 0 0 -1.0667 3.2667 557.5334)">
		<stop  offset="0" style="stop-color:#00A6F9"/>
		<stop  offset="1" style="stop-color:#0071E2"/>
	</linearGradient>
	<path style="fill:url(#SVGID_10_);" d="M105.156,139.216V55.251c0-2.963,2.243-4.446,6.733-4.446c2.37,0,4.275,0.53,5.716,1.588
		c1.439,1.06,2.922,3.071,4.446,6.034l28.201,55.003V55.124c0-1.439,0.655-2.518,1.969-3.239c1.312-0.719,2.899-1.079,4.764-1.079
		c1.861,0,3.45,0.362,4.764,1.079c1.312,0.72,1.969,1.801,1.969,3.239v84.093c0,1.356-0.657,2.435-1.969,3.239
		c-1.314,0.805-2.901,1.206-4.764,1.206c-3.557,0-6.224-1.651-8.003-4.954l-30.359-57.797v58.306c0,1.356-0.657,2.435-1.969,3.239
		c-1.314,0.805-2.902,1.206-4.764,1.206c-1.778,0-3.346-0.401-4.7-1.206C105.834,141.652,105.156,140.572,105.156,139.216z"/>
	
		<linearGradient id="SVGID_11_" gradientUnits="userSpaceOnUse" x1="192.22" y1="498.6375" x2="192.22" y2="335.9075" gradientTransform="matrix(1.0667 0 0 -1.0667 3.2667 557.5334)">
		<stop  offset="0" style="stop-color:#00A6F9"/>
		<stop  offset="1" style="stop-color:#0071E2"/>
	</linearGradient>
	<path style="fill:url(#SVGID_11_);" d="M180.482,139.216V55.251c0-1.354,0.592-2.433,1.778-3.239
		c1.185-0.804,2.582-1.206,4.192-1.206h45.222c1.439,0,2.541,0.593,3.302,1.778c0.762,1.187,1.143,2.541,1.143,4.065
		c0,1.695-0.403,3.134-1.207,4.319c-0.805,1.187-1.886,1.778-3.239,1.778h-37.727v29.089h19.563c1.354,0,2.433,0.53,3.239,1.588
		c0.803,1.06,1.206,2.35,1.206,3.874c0,1.356-0.381,2.562-1.143,3.62c-0.762,1.06-1.863,1.588-3.302,1.588h-19.563v29.216h37.727
		c1.354,0,2.433,0.593,3.239,1.778c0.804,1.187,1.207,2.626,1.207,4.319c0,1.524-0.381,2.88-1.143,4.065
		c-0.762,1.187-1.863,1.778-3.302,1.778h-45.222c-1.61,0-3.007-0.401-4.192-1.206C181.074,141.652,180.482,140.572,180.482,139.216z
		"/>
	
		<linearGradient id="SVGID_12_" gradientUnits="userSpaceOnUse" x1="270.84" y1="498.6375" x2="270.84" y2="335.9075" gradientTransform="matrix(1.0667 0 0 -1.0667 3.2667 557.5334)">
		<stop  offset="0" style="stop-color:#00A6F9"/>
		<stop  offset="1" style="stop-color:#0071E2"/>
	</linearGradient>
	<path style="fill:url(#SVGID_12_);" d="M240.311,56.268c0-1.524,0.89-2.815,2.668-3.874c1.778-1.058,3.683-1.588,5.716-1.588
		c2.624,0,4.192,0.933,4.7,2.795l20.833,72.406l11.435-45.476c0.579-2.624,2.771-3.938,6.578-3.938c3.641,0,5.792,1.34,6.454,4.015
		l11.557,45.476l20.749-72.559c0.505-1.812,2.062-2.719,4.674-2.719c2.02,0,3.915,0.522,5.684,1.566
		c1.769,1.044,2.654,2.316,2.654,3.819c0,0.586-0.044,1.003-0.127,1.252l-25.127,82.32c-0.502,1.469-1.568,2.612-3.198,3.431
		c-1.63,0.819-3.406,1.23-5.327,1.23c-1.923,0-3.699-0.401-5.329-1.201c-1.63-0.8-2.612-1.918-2.945-3.35l-9.768-38.432
		l-9.646,38.365c-0.332,1.455-1.303,2.588-2.917,3.402c-1.616,0.812-3.428,1.219-5.437,1.219c-2.009,0-3.819-0.403-5.426-1.206
		c-1.61-0.803-2.626-1.925-3.049-3.366l-25.279-82.314C240.353,57.284,240.311,56.861,240.311,56.268z"/>
	
		<linearGradient id="SVGID_13_" gradientUnits="userSpaceOnUse" x1="351.6185" y1="498.6375" x2="351.6185" y2="335.9075" gradientTransform="matrix(1.0667 0 0 -1.0667 3.2667 557.5334)">
		<stop  offset="0" style="stop-color:#00A6F9"/>
		<stop  offset="1" style="stop-color:#0071E2"/>
	</linearGradient>
	<path style="fill:url(#SVGID_13_);" d="M349.808,129.69c0-1.607,0.592-3.217,1.778-4.827c1.185-1.607,2.541-2.414,4.065-2.414
		c0.931,0,2.052,0.544,3.366,1.63c1.312,1.086,2.604,2.257,3.874,3.515c1.27,1.259,3.196,2.431,5.779,3.517
		c2.582,1.086,5.482,1.628,8.702,1.628c4.827,0,8.702-1.149,11.623-3.447c2.922-2.299,4.383-5.663,4.383-10.091
		c0-4.084-1.419-7.491-4.255-10.217c-2.838-2.723-6.268-4.895-10.289-6.514c-4.023-1.617-8.066-3.362-12.131-5.236
		c-4.065-1.874-7.517-4.683-10.353-8.43c-2.838-3.745-4.256-8.428-4.256-14.048c0-4.478,0.867-8.364,2.604-11.659
		c1.734-3.295,4.084-5.829,7.05-7.604c2.963-1.774,6.076-3.062,9.337-3.865c3.259-0.802,6.71-1.204,10.353-1.204
		c2.287,0,4.678,0.147,7.178,0.441c2.497,0.293,4.974,0.774,7.431,1.445c2.455,0.671,4.487,1.633,6.097,2.89
		c1.607,1.257,2.414,2.679,2.414,4.272c0,1.591-0.508,3.196-1.524,4.813c-1.017,1.617-2.372,2.426-4.065,2.426
		c-0.847,0-1.99-0.403-3.429-1.213c-1.441-0.81-3.366-1.618-5.779-2.428c-2.414-0.807-5.188-1.213-8.321-1.213
		c-4.827,0-8.682,0.959-11.559,2.874c-2.88,1.917-4.319,4.833-4.319,8.749c0,2.555,0.762,4.748,2.287,6.578
		c1.524,1.83,3.493,3.342,5.906,4.533c2.414,1.193,5.101,2.364,8.066,3.513c2.963,1.15,5.906,2.489,8.828,4.021
		c2.922,1.532,5.589,3.3,8.003,5.301c2.414,2.001,4.383,4.748,5.907,8.237c1.524,3.491,2.287,7.536,2.287,12.133
		c0,8.751-2.647,15.42-7.939,20.005c-5.294,4.585-12.302,6.878-21.023,6.878c-7.792,0-14.418-1.63-19.881-4.891
		C352.539,136.529,349.808,133.163,349.808,129.69z"/>
</g>
<linearGradient id="SVGID_14_" gradientUnits="userSpaceOnUse" x1="214.3375" y1="448.7275" x2="256.1775" y2="448.7275" gradientTransform="matrix(1.0667 0 0 -1.0667 3.2667 557.5334)">
	<stop  offset="1.000000e-004" style="stop-color:#008BF2;stop-opacity:0"/>
	<stop  offset="1" style="stop-color:#0046E2"/>
</linearGradient>
<path style="fill:url(#SVGID_14_);" d="M255.509,60.947l-2.114-7.347c-0.508-1.861-2.077-2.795-4.7-2.795
	c-2.032,0-3.938,0.53-5.716,1.588c-1.778,1.06-2.668,2.35-2.668,3.874c0,0.593,0.042,1.017,0.127,1.27l15.182,49.438
	C255.581,89.611,255.542,74.029,255.509,60.947z"/>
<g>
</g>
<g>
</g>
<g>
</g>
<g>
</g>
<g>
</g>
<g>
</g>
<g>
</g>
<g>
</g>
<g>
</g>
<g>
</g>
<g>
</g>
<g>
</g>
<g>
</g>
<g>
</g>
<g>
</g>
</svg>
