<svg height="512pt" viewBox="-12 0 512 512" width="512pt" xmlns="http://www.w3.org/2000/svg"><g fill-rule="evenodd"><path d="m15 61h458c8.285156 0 15 6.714844 15 15v300c0 8.285156-6.714844 15-15 15h-109.964844v106c0 8.285156-6.714844 15-15 15h-333.035156c-8.285156 0-15-6.714844-15-15v-421c0-8.285156 6.714844-15 15-15zm0 0" fill="#dff3ff"/><path d="m244 61h229c8.285156 0 15 6.714844 15 15v300c0 8.285156-6.714844 15-15 15h-109.964844v106c0 8.285156-6.714844 15-15 15h-104.035156zm0 0" fill="#c5e7fd"/><path d="m333 497v-121c0-8.285156 6.714844-15 15-15h124.5v.042969c3.898438 0 7.789062 1.511719 10.722656 4.527343 5.761719 5.921876 5.628906 15.390626-.292968 21.152344l-123.714844 120.234375c-2.746094 3.09375-6.753906 5.042969-11.214844 5.042969-8.285156 0-15-6.714844-15-15zm0 0" fill="#69b1e9"/><g fill="#0095ff"><path d="m75 242c-8.285156 0-15-6.71875-15-15 0-8.285156 6.714844-15 15-15h338c8.285156 0 15 6.714844 15 15 0 8.28125-6.714844 15-15 15zm0 0"/><path d="m75 302c-8.285156 0-15-6.71875-15-15 0-8.285156 6.714844-15 15-15h279.5c8.285156 0 15 6.714844 15 15 0 8.28125-6.714844 15-15 15zm0 0"/><path d="m75 362c-8.285156 0-15-6.71875-15-15 0-8.285156 6.714844-15 15-15h148c8.285156 0 15 6.714844 15 15 0 8.28125-6.714844 15-15 15zm0 0"/></g><path d="m244 212h169c8.285156 0 15 6.714844 15 15 0 8.28125-6.714844 15-15 15h-169zm0 0" fill="#0082ff"/><path d="m244 272h110.5c8.285156 0 15 6.714844 15 15 0 8.28125-6.714844 15-15 15h-110.5zm0 0" fill="#0082ff"/><path d="m251.832031 91.457031c5.855469-5.855469 15.351563-5.855469 21.210938 0 5.855469 5.855469 5.855469 15.355469 0 21.210938l-48.441407 48.4375c-5.855468 5.859375-15.351562 5.859375-21.210937 0-5.855469-5.855469-5.855469-15.351563 0-21.210938zm0 0" fill="#c5e7fd"/><path d="m273.042969 91.457031c5.855469 5.855469 5.855469 15.355469 0 21.210938l-48.441407 48.4375c-5.855468 5.859375-15.351562 5.859375-21.210937 0zm0 0" fill="#69b1e9"/><path d="m251.832031 19.332031c11.941407-11.945312 28.441407-19.332031 46.667969-19.332031 18.222656 0 34.722656 7.386719 46.667969 19.332031 11.941406 11.945313 19.332031 28.445313 19.332031 46.667969s-7.390625 34.722656-19.332031 46.667969c-11.945313 11.945312-28.445313 19.332031-46.667969 19.332031-18.226562 0-34.726562-7.386719-46.667969-19.332031-11.945312-11.945313-19.332031-28.445313-19.332031-46.667969s7.386719-34.722656 19.332031-46.667969zm0 0" fill="#00da26"/><path d="m345.167969 19.332031c11.941406 11.945313 19.332031 28.445313 19.332031 46.667969s-7.390625 34.722656-19.332031 46.667969c-11.945313 11.945312-28.445313 19.332031-46.667969 19.332031s-34.722656-7.386719-46.667969-19.332031zm0 0" fill="#00c200"/></g></svg>