<svg id="Capa_1" enable-background="new 0 0 510 510" height="512" viewBox="0 0 510 510" width="512" xmlns="http://www.w3.org/2000/svg" xmlns:xlink="http://www.w3.org/1999/xlink"><linearGradient id="SVGID_1_" gradientUnits="userSpaceOnUse" x1="345.496" x2="451.496" y1="73.382" y2="275.382"><stop offset="0" stop-color="#18cffc"/><stop offset="1" stop-color="#4a98f7"/></linearGradient><linearGradient id="SVGID_2_" gradientUnits="userSpaceOnUse" x1="407.026" x2="294.026" y1="188.93" y2="-20.07"><stop offset="0" stop-color="#18cffc" stop-opacity="0"/><stop offset="1" stop-color="#65e1dc"/></linearGradient><linearGradient id="SVGID_3_" gradientUnits="userSpaceOnUse" x1="485.327" x2="340.384" y1="335.673" y2="190.73"><stop offset="0" stop-color="#0469bc" stop-opacity="0"/><stop offset="1" stop-color="#0469bc"/></linearGradient><linearGradient id="SVGID_4_" gradientTransform="matrix(.707 .707 -.707 .707 278.923 -17.472)" gradientUnits="userSpaceOnUse" x1="49.362" x2="467.197" y1="147.675" y2="565.51"><stop offset="0" stop-color="#f9f7fc"/><stop offset="1" stop-color="#f0ddfc"/></linearGradient><linearGradient id="SVGID_5_" gradientUnits="userSpaceOnUse" x1="189.47" x2="65.37" y1="331.011" y2="156.871"><stop offset="0" stop-color="#fff" stop-opacity="0"/><stop offset="1" stop-color="#fff"/></linearGradient><linearGradient id="lg1"><stop offset="0" stop-color="#f0ddfc" stop-opacity="0"/><stop offset=".2085" stop-color="#dfcdf1" stop-opacity=".209"/><stop offset=".6167" stop-color="#b5a4d3" stop-opacity=".617"/><stop offset="1" stop-color="#8779b3"/></linearGradient><linearGradient id="SVGID_6_" gradientUnits="userSpaceOnUse" x1="266.86" x2="185.795" xlink:href="#lg1" y1="485.62" y2="389.542"/><linearGradient id="SVGID_7_" gradientUnits="userSpaceOnUse" x1="245.142" x2="146.063" xlink:href="#lg1" y1="271.12" y2="151.024"/><linearGradient id="SVGID_8_" gradientUnits="userSpaceOnUse" x1="327.987" x2="212.894" xlink:href="#lg1" y1="358.472" y2="269.401"/><linearGradient id="SVGID_9_" gradientUnits="userSpaceOnUse" x1="143.603" x2="302.722" y1="265.555" y2="345.115"><stop offset="0" stop-color="#ff7044"/><stop offset="1" stop-color="#f92814"/></linearGradient><path d="m282.778 227.345c-51.982-51.982-51.982-136.26 0-188.242 51.755-51.756 135.001-52.195 187.272-.961 39.479 38.695 49.695 95.788 30.662 144.014-3.185 8.07-4 16.881-2.375 25.403l7.934 41.615c1.517 7.957-5.465 14.939-13.422 13.422l-41.614-7.934c-8.496-1.62-17.286-.834-25.329 2.346-47.844 18.915-104.433 9.032-143.128-29.663z" fill="url(#SVGID_1_)"/><path d="m498.423 254.748c.545-.545 1.766-2.059 1.333-4.332l-7.935-41.615c-1.866-9.786-.925-19.842 2.722-29.08 18.72-47.433 7.283-101.146-29.136-136.842-24.023-23.546-55.684-36.418-89.153-36.245-33.464.173-64.999 13.371-88.786 37.158-.001.001.001-.001 0 0-49.312 49.313-49.312 129.55 0 178.862 35.678 35.678 89.061 46.741 135.999 28.184 9.181-3.63 19.213-4.561 29.01-2.693l41.614 7.935c2.273.434 3.786-.787 4.332-1.332z" fill="url(#SVGID_2_)"/><path d="m359.607 154.71v110.485c22.274 2.9 45.141.178 66.298-8.187 8.043-3.18 16.834-3.966 25.329-2.346l10.285 1.961z" fill="url(#SVGID_3_)"/><path d="m357.476 448.675c81.78-81.78 81.78-214.37 0-296.15-81.423-81.425-212.388-82.116-294.624-1.512-62.11 60.876-78.182 150.698-48.24 226.568 5.01 12.696 6.293 26.558 3.737 39.965l-12.482 65.471c-2.387 12.519 8.598 23.503 21.116 21.116l65.469-12.483c13.366-2.548 27.196-1.312 39.849 3.691 75.27 29.758 164.298 14.211 225.175-46.666z" fill="url(#SVGID_4_)"/><path d="m18.214 491.786c-.857-.857-2.779-3.239-2.097-6.815l12.484-65.47c2.935-15.396 1.455-31.217-4.282-45.751-29.451-74.623-11.458-159.128 45.838-215.286 37.794-37.044 87.605-57.294 140.259-57.022 52.647.272 102.259 21.036 139.682 58.459.002.002-.001-.001.001.001 77.58 77.581 77.58 203.813 0 281.393-56.13 56.13-140.115 73.536-213.959 44.341-14.445-5.711-30.227-7.175-45.64-4.237l-65.47 12.483c-3.577.683-5.958-1.238-6.816-2.096z" fill="url(#SVGID_5_)"/><path d="m311.597 483.44c-19.816 11.089-41.043 18.705-62.81 22.848l-69.706-69.706c-6.045-6.035-9.057-13.13-9.057-21.267 0-8.397 3.022-15.563 9.087-21.467 6.065-5.905 13.271-8.857 21.627-8.857 8.407 0 15.562 3.022 21.467 9.057z" fill="url(#SVGID_6_)"/><path d="m417.512 323.962c-5.084 45.557-25.1 89.782-60.038 124.71-13.461 13.461-28.293 24.7-44.045 33.737l-130.014-130.025c-3.153-3.623-4.734-10.478-4.734-20.566 0-18.925 5.364-35.018 16.023-48.309l-58.777-58.827c-4.844-3.933-7.266-9.448-7.266-16.543 0-12.6 6.825-24.55 20.486-35.839 13.651-11.289 32.686-16.934 57.106-16.934 24.94 0 45.156 6.175 60.659 18.505 2.482 1.982 102.482 101.952 150.6 150.091z" fill="url(#SVGID_7_)"/><path d="m417.512 323.962c-5.084 45.557-25.1 89.782-60.038 124.71-13.461 13.461-28.293 24.7-44.045 33.737l-129.054-129.064c3.273 2.982 8.597 4.464 15.973 4.464 15.492 0 23.239-5.374 23.239-16.153 0-8.397.32-14.632.981-18.705.651-4.063 2.622-8.797 5.915-14.171 3.273-5.384 8.347-10.839 15.202-16.353 29.634-22.838 44.466-46.867 44.466-72.078 0-13.811-4.253-25.881-12.75-36.229 27.291 27.021 100.91 100.63 140.111 139.842z" fill="url(#SVGID_8_)"/><path d="m128.662 208.142c0-12.603 6.827-24.549 20.481-35.841 13.65-11.287 32.691-16.936 57.112-16.936 24.941 0 45.158 6.173 60.653 18.51 15.491 12.345 23.24 27.836 23.24 46.476 0 25.208-14.826 49.235-44.463 72.079-6.857 5.515-11.928 10.965-15.207 16.346-3.288 5.384-5.256 10.109-5.909 14.177-.66 4.075-.985 10.309-.985 18.709 0 10.771-7.747 16.149-23.238 16.149-8.141 0-13.785-1.809-16.936-5.428-3.15-3.619-4.726-10.474-4.726-20.566 0-24.31 8.794-43.966 26.39-58.97.787-.776 4.195-3.491 10.24-8.143 6.036-4.651 10.24-8.148 12.603-10.474 2.363-2.328 4.984-5.882 7.877-10.672 2.886-4.788 4.333-9.637 4.333-14.549 0-8.535-3.275-15.065-9.816-19.593-6.544-4.524-15.047-6.788-25.511-6.788-8.898 0-16.222 1.45-21.977 4.356-5.759 2.904-9.551 6.118-11.383 9.625-1.836 3.514-4.323 6.719-7.46 9.625s-7.064 4.356-11.772 4.356c-6.02 0-11.447-1.968-16.286-5.907-4.84-3.936-7.26-9.451-7.26-16.541zm41.358 207.171c0-8.399 3.028-15.557 9.094-21.464 6.063-5.907 13.268-8.863 21.627-8.863 8.401 0 15.557 3.023 21.464 9.059 5.909 6.043 8.864 13.132 8.864 21.268 0 8.143-2.955 15.231-8.864 21.27-5.907 6.043-13.063 9.059-21.464 9.059-8.408 0-15.626-3.016-21.662-9.059-6.045-6.039-9.059-13.127-9.059-21.27z" fill="url(#SVGID_9_)"/></svg>