<svg id="Capa_1" enable-background="new 0 0 512 512" height="512" viewBox="0 0 512 512" width="512" xmlns="http://www.w3.org/2000/svg"><g><path d="m407 0h-151l-30 15 30 15h151c41.355 0 75 33.645 75 75v302c0 41.355-33.645 75-75 75h-151l-30 15 30 15h151c57.897 0 105-47.103 105-105v-302c0-57.897-47.103-105-105-105z" fill="#acd5df"/><path d="m105 482c-41.355 0-75-33.645-75-75v-302c0-41.355 33.645-75 75-75h151v-30h-151c-57.897 0-105 47.103-105 105v302c0 57.897 47.103 105 105 105h151v-30z" fill="#c4f3ff"/><path d="m437.019 74.981h-95.459v95.459c21.897 21.897 35.44 52.147 35.44 85.56s-13.543 63.663-35.44 85.56v95.459h95.459c46.327-46.326 74.981-110.327 74.981-181.019s-28.654-134.692-74.981-181.019z" fill="#ffd06a"/><path d="m74.981 74.981h95.459v95.459c-21.897 21.897-35.44 52.147-35.44 85.56s13.543 63.663 35.44 85.56v95.459h-95.459c-46.327-46.326-74.981-110.327-74.981-181.019s28.654-134.692 74.981-181.019z" fill="#ffe7b5"/><path d="m341.56 170.44 95.459-95.459c-46.327-46.327-110.327-74.981-181.019-74.981l-60 67.5 60 67.5c33.413 0 63.663 13.543 85.56 35.44z" fill="#ff3e3a"/><path d="m256 135v-135c-70.692 0-134.693 28.654-181.019 74.981l95.459 95.459c21.897-21.897 52.147-35.44 85.56-35.44z" fill="#ff5d34"/><path d="m256 377-60 67.5 60 67.5c70.692 0 134.692-28.654 181.019-74.981l-95.459-95.459c-21.897 21.897-52.147 35.44-85.56 35.44z" fill="#ff3e3a"/><path d="m170.44 341.56-95.459 95.459c46.326 46.327 110.327 74.981 181.019 74.981v-135c-33.413 0-63.663-13.543-85.56-35.44z" fill="#ff5d34"/></g></svg>