<?xml version="1.0" encoding="utf-8"?>
<!-- Generator: Adobe Illustrator 16.2.0, SVG Export Plug-In . SVG Version: 6.00 Build 0)  -->
<!DOCTYPE svg PUBLIC "-//W3C//DTD SVG 1.1//EN" "http://www.w3.org/Graphics/SVG/1.1/DTD/svg11.dtd">
<svg version="1.1" id="Слой_1" xmlns="http://www.w3.org/2000/svg" xmlns:xlink="http://www.w3.org/1999/xlink" x="0px" y="0px"
	 width="32px" height="42px" viewBox="0 0 32 42" enable-background="new 0 0 32 42" xml:space="preserve">
<path fill-rule="evenodd" clip-rule="evenodd" fill="#E2F0F5" d="M2.57,0h26.756c1.412,0,2.569,1.156,2.569,2.569v36.582
	c0,1.413-1.157,2.569-2.569,2.569H2.57c-1.414,0-2.57-1.156-2.57-2.569V2.569C0,1.156,1.156,0,2.57,0z"/>
<path fill-rule="evenodd" clip-rule="evenodd" fill="#BDD2DA" d="M15.872,0h13.454c1.412,0,2.569,1.156,2.569,2.569v36.582
	c0,1.413-1.157,2.569-2.569,2.569H15.872V0z"/>
<path fill-rule="evenodd" clip-rule="evenodd" fill="#B5557E" d="M31.896,30.988v8.163c0,1.413-1.157,2.569-2.569,2.569H2.57
	c-1.414,0-2.57-1.156-2.57-2.569v-8.163H31.896z"/>
<path fill-rule="evenodd" clip-rule="evenodd" fill="#964168" d="M31.896,30.988v8.163c0,1.413-1.157,2.569-2.569,2.569H15.872
	V30.988H31.896z"/>
<rect x="6.449" y="6.258" fill-rule="evenodd" clip-rule="evenodd" fill="#B5557E" width="18.734" height="18.733"/>
<rect x="15.843" y="6.258" fill-rule="evenodd" clip-rule="evenodd" fill="#964168" width="9.34" height="18.733"/>
<rect x="8.64" y="8.449" fill-rule="evenodd" clip-rule="evenodd" fill="#E2F0F5" width="14.352" height="14.352"/>
<rect x="15.843" y="8.449" fill-rule="evenodd" clip-rule="evenodd" fill="#BDD2DA" width="7.148" height="14.352"/>
<path fill-rule="evenodd" clip-rule="evenodd" fill="#B5557E" d="M11.642,10.593h8.28c0.307,0,0.557,0.252,0.557,0.559v0.307
	l-0.83,0.017h-5.244v1.308h6.074v0.316c0,0.307-0.251,0.559-0.557,0.559h-8.28c-0.307,0-0.559-0.252-0.559-0.559v-1.948
	C11.083,10.845,11.335,10.593,11.642,10.593z"/>
<path fill-rule="evenodd" clip-rule="evenodd" fill="#964168" d="M15.867,10.593h4.055c0.307,0,0.557,0.252,0.557,0.559v0.307
	l-0.83,0.017h-3.781V10.593L15.867,10.593z M15.867,12.783h4.611v0.316c0,0.307-0.251,0.559-0.557,0.559h-4.055V12.783z"/>
<rect x="12.102" y="11.475" fill-rule="evenodd" clip-rule="evenodd" fill="#FFFFFF" width="7.835" height="1.308"/>
<rect x="15.867" y="11.475" fill-rule="evenodd" clip-rule="evenodd" fill="#E2F0F5" width="4.069" height="1.308"/>
<path fill-rule="evenodd" clip-rule="evenodd" fill="#3193D1" d="M11.642,13.866h8.28c0.307,0,0.557,0.252,0.557,0.559v0.307
	l-0.83,0.017h-5.244v1.308h6.074v0.316c0,0.306-0.251,0.558-0.557,0.558h-8.28c-0.307,0-0.559-0.251-0.559-0.558v-1.948
	C11.083,14.118,11.335,13.866,11.642,13.866z"/>
<path fill-rule="evenodd" clip-rule="evenodd" fill="#0D84C7" d="M15.867,13.866h4.055c0.307,0,0.557,0.252,0.557,0.559v0.307
	l-0.83,0.017h-3.781V13.866L15.867,13.866z M15.867,16.056h4.611v0.316c0,0.306-0.251,0.558-0.557,0.558h-4.055V16.056z"/>
<rect x="12.102" y="14.748" fill-rule="evenodd" clip-rule="evenodd" fill="#FFFFFF" width="7.835" height="1.308"/>
<rect x="15.867" y="14.748" fill-rule="evenodd" clip-rule="evenodd" fill="#E2F0F5" width="4.069" height="1.308"/>
<path fill-rule="evenodd" clip-rule="evenodd" fill="#67BE68" d="M11.642,17.165h8.28c0.307,0,0.557,0.252,0.557,0.558v0.308
	l-0.83,0.016h-5.244v1.309h6.074v0.316c0,0.306-0.251,0.557-0.557,0.557h-8.28c-0.307,0-0.559-0.25-0.559-0.557v-1.949
	C11.083,17.416,11.335,17.165,11.642,17.165z"/>
<path fill-rule="evenodd" clip-rule="evenodd" fill="#499A4B" d="M15.867,17.165h4.055c0.307,0,0.557,0.252,0.557,0.558v0.308
	l-0.83,0.016h-3.781V17.165L15.867,17.165z M15.867,19.355h4.611v0.316c0,0.306-0.251,0.557-0.557,0.557h-4.055V19.355z"/>
<rect x="12.102" y="18.047" fill-rule="evenodd" clip-rule="evenodd" fill="#FFFFFF" width="7.835" height="1.309"/>
<rect x="15.867" y="18.047" fill-rule="evenodd" clip-rule="evenodd" fill="#E2F0F5" width="4.069" height="1.309"/>
<text transform="matrix(1 0 0 1 8.6338 39.4121)"><tspan x="0" y="0" fill="#FFFFFF" font-family="'ArialMT'" font-size="7.6589">R</tspan><tspan x="5.531" y="0" fill="#FFFFFF" font-family="'ArialMT'" font-size="7.6589">AR</tspan></text>
<rect id="_x3C_Фрагмент_x3E_" x="0.136" y="0.152" fill="none" width="32.248" height="41.519"/>
</svg>
