<svg id="Layer_1" enable-background="new 0 0 511.843 511.843" height="512" viewBox="0 0 511.843 511.843" width="512" xmlns="http://www.w3.org/2000/svg"><g><path d="m495.47 64.332h-212.464l-14.357 124.329 14.357 124.328h178.166z" fill="#0ed678"/><path d="m87.316 64.332 32 248.657h163.69v-248.657z" fill="#04eb84"/><g><path d="m392.3 366.862v-.177h-109.294l-14.357 17.31 14.357 12.69h49.965c-8.748 11.98-13.929 26.722-13.929 42.657 0 39.977 32.523 72.5 72.5 72.5s72.5-32.523 72.5-72.5c.001-39.722-32.114-72.07-71.742-72.48z" fill="#fd9402"/><path d="m283.006 366.685h-140.209l-50.578-366.685h-75.846v30h49.7l50.499 366.114c-9 12.079-14.335 27.042-14.335 43.229 0 39.977 32.523 72.5 72.5 72.5s72.5-32.523 72.5-72.5c0-15.936-5.18-30.678-13.929-42.657h49.698z" fill="#fdb902"/></g><circle cx="174.737" cy="439.343" fill="#fffbf5" r="42.5"/><circle cx="391.543" cy="439.343" fill="#f7f0eb" r="42.5"/></g></svg>