<svg height="512pt" viewBox="0 0 512 512" width="512pt" xmlns="http://www.w3.org/2000/svg"><path d="m256 241h-241c-8.285156 0-15 6.714844-15 15v241c0 8.285156 6.714844 15 15 15h241c8.285156 0 15-6.714844 15-15v-241c0-8.285156-6.714844-15-15-15zm0 0" fill="#0095ff"/><path d="m256 241h-136v271h136c8.285156 0 15-6.714844 15-15v-241c0-8.285156-6.714844-15-15-15zm0 0" fill="#0082ff"/><path d="m497 241h-241c-8.285156 0-15 6.714844-15 15v75h-16.5c-25.089844 0-45.5 20.410156-45.5 45.5s20.410156 45.5 45.5 45.5h16.5v75c0 8.285156 6.714844 15 15 15h241c8.285156 0 15-6.714844 15-15v-241c0-8.285156-6.714844-15-15-15zm0 0" fill="#ff2828"/><path d="m497 241h-120v271h120c8.285156 0 15-6.714844 15-15v-241c0-8.285156-6.714844-15-15-15zm0 0" fill="#c9001c"/><path d="m497 0h-261.332031c-8.285157 0-15 6.714844-15 15v241c0 8.285156 6.714843 15 15 15h95.332031v16.445312c0 25.085938 20.410156 45.5 45.5 45.5s45.5-20.414062 45.5-45.5v-16.445312h90v-256c0-8.285156-6.714844-15-15-15zm0 0" fill="#ffde46"/><path d="m257.441406 90h-16.445312v-90h-225.996094c-8.285156 0-15 6.714844-15 15v256h240.996094v-90h16.445312c25.085938 0 45.5-20.410156 45.5-45.5s-20.414062-45.5-45.5-45.5zm0 0" fill="#00ee84"/><path d="m257.441406 90h-16.445312v-90h-120.996094v271h120.996094v-90h16.445312c25.085938 0 45.5-20.410156 45.5-45.5s-20.414062-45.5-45.5-45.5zm0 0" fill="#00dd7b"/><path d="m497 0h-120v332.933594c24.859375-.273438 45-20.566406 45-45.488282v-16.445312h90v-256c0-8.285156-6.714844-15-15-15zm0 0" fill="#ffcd00"/></svg>