<svg id="Capa_1" enable-background="new 0 0 512.054 512.054" height="512" viewBox="0 0 512.054 512.054" width="512" xmlns="http://www.w3.org/2000/svg"><g><path d="m438.965 113.027c-103.704 0-68.782.201-214.91-1v400h139.6c14.03 0 26.692-6.662 34.88-16.9 6.373-7.577 10.18-19.075 10.18-23.82.107-.479 30.35-.28 30.25-.28 19.731 0 34.992-16.959 34.05-34.884.058-1.346.04-288.906.04-289.026-.001-18.797-15.294-34.09-34.09-34.09z" fill="#001737"/><path d="m473.054 184.367v250.06c0 20.18-15.13 36.6-33.72 36.6-32.89 0-30.526-.141-30.62.28 0 .624-6.035 2.821-8.66 8.72-6.87 16.131-21.319 24-40 24h-312c-27.28 0-40-12.826-40-40 0-312.774-8.394-291.158-7.08-298.72 5.121-29.249 31.416-52.28 63.89-52.28h32.41c8.28 0 15 6.72 15 15h226.78c0-8.28 6.72-15 15-15h55.17c35.2 0 63.83 32 63.83 71.34z" fill="#00357b"/><path d="m369.054 15.027v209c0 8.28-6.72 15-15 15h-256c-8.28 0-15-6.72-15-15v-209c0-8.28 6.72-15 15-15h256c8.28 0 15 6.72 15 15z" fill="#58b354"/><path d="m369.054 15.027v209c0 8.28-6.72 15-15 15h-130v-239h130c8.28 0 15 6.72 15 15z" fill="#00a963"/><path d="m290.054 65.027h-128c-8.28 0-15 6.72-15 15v144c0 8.28 6.72 15 15 15h128c8.28 0 15-6.72 15-15v-144c0-8.28-6.72-15-15-15zm-15 144h-34v-49c0-9.093-8.057-16.099-17-14.86-7.34.97-13 7.26-13 14.86v49h-34v-114h98z" fill="#ecf9fd"/><path d="m305.054 80.027v144c0 8.28-6.72 15-15 15h-66v-93.86c8.933-1.237 17 5.756 17 14.86v49h34v-114h-51v-30h66c8.28 0 15 6.72 15 15z" fill="#d9f3fc"/><path d="m409.054 477.937c0 18.8-15.29 34.09-34.09 34.09-16.004 0-320.453 0-325.61 0-27.28 0-49.3-23.04-49.3-50.21 0-312.77-.39-288.95.92-296.51 6.54 31.97 46.31 43.72 63.89 43.72h329.19c8.28 0 15 6.72 15 15z" fill="#ffec00"/><path d="m409.054 477.937c0 18.8-15.29 34.09-34.09 34.09-4.798 0-145.277 0-150.91 0v-303h170c8.28 0 15 6.72 15 15z" fill="#ffd92e"/><path d="m512.054 296.027v96c0 8.28-6.72 15-15 15h-154.15c-25.28 0-45.85-20.49-45.85-45.68v-34.64c0-25.19 20.57-45.68 45.85-45.68h154.15c8.28 0 15 6.72 15 15z" fill="#fcbe00"/></g></svg>