<svg xmlns="http://www.w3.org/2000/svg" viewBox="0 0 19.2 19.2">  <defs>    <style>      .cls-1 {        fill: #363334;      }      .cls-2 {        fill: none;      }      .cls-3 {        fill: #fff;      }    </style>  </defs>  <title>WordPress</title>  <g id="Layer_2" data-name="Layer 2">    <g id="Layer_1-2" data-name="Layer 1">      <g>        <path class="cls-1" d="M0,0H19.2V19.2H0Z"/>        <g>          <path class="cls-2" d="M14.3,7.1v.5a5.37,5.37,0,0,1-.4,1.9l-1.6,4.6A5.22,5.22,0,0,0,15,9.6,6.61,6.61,0,0,0,14.3,7.1Z"/>          <path class="cls-2" d="M4.2,9.6a5.2,5.2,0,0,0,3,4.7L4.7,7.5A4.65,4.65,0,0,0,4.2,9.6Z"/>          <path class="cls-2" d="M9.7,10.1,8.1,14.6a7.72,7.72,0,0,0,1.5.2,5.66,5.66,0,0,0,1.8-.3v-.1Z"/>          <path class="cls-3" d="M9.6,3.4A6.17,6.17,0,0,0,3.4,9.6,6.2,6.2,0,1,0,9.6,3.4ZM4.2,9.6a4.65,4.65,0,0,1,.5-2.1l2.5,6.8A5.37,5.37,0,0,1,4.2,9.6Zm5.4,5.2a7.72,7.72,0,0,1-1.5-.2l1.6-4.5,1.6,4.4v.1A8.81,8.81,0,0,1,9.6,14.8Zm.7-7.6c.3,0,.6,0,.6-.1.3,0,.3-.5,0-.4,0,0-.9.1-1.4.1s-1.4-.1-1.4-.1a.2.2,0,1,0,0,.4h.6l.8,2.2L8.3,12.7l-2-5.6h.6c.3,0,.3-.5,0-.4,0,0-.9.1-1.4.1H5.2A5.54,5.54,0,0,1,9.7,4.4a5.06,5.06,0,0,1,3.6,1.4h-.1a1,1,0,0,0-.9.9,3.08,3.08,0,0,0,.5,1.2,2.59,2.59,0,0,1,.4,1.4,7.93,7.93,0,0,1-.4,1.7l-.5,1.7Zm2,6.9,1.6-4.6a4.64,4.64,0,0,0,.4-1.9V7.1a5.14,5.14,0,0,1,.6,2.5A5.34,5.34,0,0,1,12.3,14.1Z"/>        </g>      </g>    </g>  </g></svg>