<?xml version="1.0" encoding="utf-8"?>
<!-- Generator: Adobe Illustrator 16.2.0, SVG Export Plug-In . SVG Version: 6.00 Build 0)  -->
<!DOCTYPE svg PUBLIC "-//W3C//DTD SVG 1.1//EN" "http://www.w3.org/Graphics/SVG/1.1/DTD/svg11.dtd">
<svg version="1.1" id="Слой_1" xmlns="http://www.w3.org/2000/svg" xmlns:xlink="http://www.w3.org/1999/xlink" x="0px" y="0px"
	 width="32px" height="42px" viewBox="0 0 32 42" enable-background="new 0 0 32 42" xml:space="preserve">
<path fill-rule="evenodd" clip-rule="evenodd" fill="#E2F0F5" d="M2.75,0.341h26.499c1.399,0,2.545,1.145,2.545,2.545v36.229
	c0,1.4-1.146,2.545-2.545,2.545H2.75c-1.4,0-2.545-1.145-2.545-2.545V2.886C0.205,1.486,1.35,0.341,2.75,0.341z"/>
<path fill-rule="evenodd" clip-rule="evenodd" fill="#BDD2DA" d="M15.926,0.341h13.323c1.399,0,2.545,1.145,2.545,2.545v36.229
	c0,1.4-1.146,2.545-2.545,2.545H15.926V0.341z"/>
<path fill-rule="evenodd" clip-rule="evenodd" fill="#474A4B" d="M31.794,31.031v8.084c0,1.4-1.146,2.545-2.545,2.545H2.75
	c-1.4,0-2.545-1.145-2.545-2.545v-8.084H31.794z"/>
<path fill-rule="evenodd" clip-rule="evenodd" fill="#000003" d="M31.794,31.031v8.084c0,1.4-1.146,2.545-2.545,2.545H15.926V31.031
	H31.794z"/>
<rect x="6.256" y="6.57" fill-rule="evenodd" clip-rule="evenodd" fill="#474A4B" width="19.412" height="19.413"/>
<rect x="15.99" y="6.57" fill-rule="evenodd" clip-rule="evenodd" fill="#000003" width="9.678" height="19.413"/>
<rect x="8.526" y="8.839" fill-rule="evenodd" clip-rule="evenodd" fill="#E2F0F5" width="14.873" height="14.874"/>
<rect x="15.99" y="8.839" fill-rule="evenodd" clip-rule="evenodd" fill="#BDD2DA" width="7.408" height="14.874"/>
<rect x="16.01" y="10.861" fill-rule="evenodd" clip-rule="evenodd" fill="#000003" width="4.057" height="10.565"/>
<rect x="16.705" y="11.822" fill-rule="evenodd" clip-rule="evenodd" fill="#BDD2DA" width="2.155" height="0.76"/>
<rect x="17.191" y="12.773" fill-rule="evenodd" clip-rule="evenodd" fill="#BDD2DA" width="2.154" height="0.761"/>
<rect x="16.705" y="13.724" fill-rule="evenodd" clip-rule="evenodd" fill="#BDD2DA" width="2.155" height="0.761"/>
<rect x="17.191" y="14.675" fill-rule="evenodd" clip-rule="evenodd" fill="#BDD2DA" width="2.154" height="0.761"/>
<rect x="16.705" y="15.646" fill-rule="evenodd" clip-rule="evenodd" fill="#BDD2DA" width="2.155" height="0.761"/>
<rect x="17.191" y="16.598" fill-rule="evenodd" clip-rule="evenodd" fill="#BDD2DA" width="2.154" height="0.76"/>
<path fill-rule="evenodd" clip-rule="evenodd" fill="#BDD2DA" d="M18.06,20.916c-1.762-0.02-0.589-2.033-0.497-3.167
	c0.199-0.012,0.315-0.026,0.497-0.027V20.916z"/>
<path fill-rule="evenodd" clip-rule="evenodd" fill="#BDD2DA" d="M18.026,20.916c1.763-0.02,0.589-2.033,0.497-3.167
	c-0.199-0.012-0.316-0.026-0.497-0.027V20.916z"/>
<circle fill-rule="evenodd" clip-rule="evenodd" fill="#000003" cx="18.051" cy="19.965" r="0.55"/>
<text transform="matrix(1 0 0 1 11.2271 39.374)"><tspan x="0" y="0" fill="#FFFFFF" font-family="'ArialMT'" font-size="7.5853">Z</tspan><tspan x="4.633" y="0" fill="#FFFFFF" font-family="'ArialMT'" font-size="7.5853">IP</tspan></text>
</svg>
