<svg height="512" viewBox="0 0 64 64" width="512" xmlns="http://www.w3.org/2000/svg"><g id="flat"><path d="m45 23h12v14h-12z" fill="#b11e48" transform="matrix(-1 0 0 -1 102 60)"/><path d="m3 21h12v16h-12z" fill="#55b56a"/><path d="m6 55h8v4h-8z" fill="#394d5c"/><path d="m19 29h-8v-4a2 2 0 0 0 -4 0v8h12z" fill="#8ec13f"/><path d="m3 5h12v12h-12z" fill="#ffd782"/><path d="m3 5h12v4h-12z" fill="#55b56a"/><path d="m6 37h6v18h-6z" fill="#ad6327"/><path d="m15 7h5v2h-5z" fill="#8ec13f"/><path d="m19 15h14v14h-14z" fill="#d3843d"/><path d="m24 15h4v6h-4z" fill="#f9bb4b"/><path d="m22 24h2v2h-2z" fill="#f4f4e6"/><path d="m26 24h2v2h-2z" fill="#f4f4e6"/><path d="m19 29h6a0 0 0 0 1 0 0v2a2 2 0 0 1 -2 2h-4a0 0 0 0 1 0 0v-4a0 0 0 0 1 0 0z" fill="#ffd782"/><path d="m46 55h8v4h-8z" fill="#394d5c" transform="matrix(-1 0 0 -1 100 114)"/><path d="m41 29h8v-2a2 2 0 0 1 4 0v6h-12z" fill="#ffd782"/><path d="m45 7h12v12h-12z" fill="#ffd782" transform="matrix(-1 0 0 -1 102 26)"/><path d="m45 7h12v4h-12z" fill="#394d5c" transform="matrix(-1 0 0 -1 102 18)"/><path d="m48 51h6v4h-6z" fill="#ffd782" transform="matrix(-1 0 0 -1 102 106)"/><path d="m45 37h12v14h-12z" fill="#da1c4b"/><path d="m57 7a4 4 0 0 1 4 4v6a0 0 0 0 1 0 0 4 4 0 0 1 -4-4v-6a0 0 0 0 1 0 0z" fill="#143441" transform="matrix(-1 0 0 -1 118 24)"/><g fill="#394d5c"><path d="m10 12h2v2h-2z"/><path d="m48 14h2v2h-2z"/></g></g></svg>