<svg height="512" viewBox="0 0 64 64" width="512" xmlns="http://www.w3.org/2000/svg"><g id="flat"><path d="m21 53h26v4h-26z" fill="#5f79ba"/><circle cx="26" cy="58" fill="#394d5c" r="3"/><circle cx="42" cy="58" fill="#394d5c" r="3"/><path d="m27 53h-4v-9-7h4v7z" fill="#7fcac9"/><path d="m19 33h8a2 2 0 0 1 2 2v2a0 0 0 0 1 0 0h-10a2 2 0 0 1 -2-2 2 2 0 0 1 2-2z" fill="#5f79ba"/><path d="m17 27h-12l-2-2v-16l2-2h12l2 2v16z" fill="#96c3f0"/><path d="m59 27h-6l-2-2v-14a2 2 0 0 1 2-2h6a2 2 0 0 1 2 2v14z" fill="#96c3f0"/><path d="m45 19h-20l-2-2v-12a2 2 0 0 1 2-2h20a2 2 0 0 1 2 2v12z" fill="#96c3f0"/><path d="m32 19h6v4h-6z" fill="#394d5c"/><g fill="#5a6470"><rect height="4" rx="2" width="16" x="27" y="23"/><path d="m3 23h16a0 0 0 0 1 0 0v2a2 2 0 0 1 -2 2h-12a2 2 0 0 1 -2-2v-2a0 0 0 0 1 0 0z"/><path d="m5 7h12a2 2 0 0 1 2 2v2a0 0 0 0 1 0 0h-16a0 0 0 0 1 0 0v-2a2 2 0 0 1 2-2z"/><path d="m51 23h10a0 0 0 0 1 0 0v2a2 2 0 0 1 -2 2h-6a2 2 0 0 1 -2-2v-2a0 0 0 0 1 0 0z"/><path d="m23 15h24a0 0 0 0 1 0 0v2a2 2 0 0 1 -2 2h-20a2 2 0 0 1 -2-2v-2a0 0 0 0 1 0 0z"/></g><path d="m55 12h2v2h-2z" fill="#f4f4e6"/><path d="m10 20h-3a1 1 0 0 1 -1-1v-3h2v2h2z" fill="#f4f4e6"/><path d="m44 10h-2v-2h-2v-2h3a1 1 0 0 1 1 1z" fill="#f4f4e6"/><path d="m31 39h12v10h-12z" fill="#f9bb4b"/><path d="m35 39h4v4h-4z" fill="#d3843d"/><g fill="#e97424"><path d="m9 30h2v4h-2z"/><path d="m9 36h2v4h-2z"/><path d="m13 46h-3a1 1 0 0 1 -1-1v-3h2v2h2z"/><path d="m14.707 48.707-1.414-1.414 2.293-2.293-2.293-2.293 1.414-1.414 3 3a1 1 0 0 1 0 1.414z"/><path d="m55 30h2v4h-2z"/><path d="m55 36h2v4h-2z"/><path d="m56 46h-3v-2h2v-2h2v3a1 1 0 0 1 -1 1z"/><path d="m51.293 48.707-3-3a1 1 0 0 1 0-1.414l3-3 1.414 1.414-2.293 2.293 2.293 2.293z"/><path d="m35 36a1 1 0 0 1 -.707-.293l-3-3 1.414-1.414 2.293 2.292 2.292-2.292 1.414 1.414-3 3a1 1 0 0 1 -.706.293z"/><path d="m34 30h2v2h-2z"/></g></g></svg>