<svg height="512" viewBox="0 0 64 64" width="512" xmlns="http://www.w3.org/2000/svg"><g id="flat"><g fill="#e97424"><path d="m52 33h-10v-2h9v-6h2v7a1 1 0 0 1 -1 1z"/><path d="m45 56h-13a1 1 0 0 1 -1-1v-13h2v12h12z"/><path d="m22 33h-15a1 1 0 0 1 -1-1v-11h2v10h14z"/></g><path d="m26.852 55a3.807 3.807 0 0 0 .148-1 4.09 4.09 0 0 0 -4.174-4 4.273 4.273 0 0 0 -1.322.225 6.238 6.238 0 0 0 -5.982-4.225 6.208 6.208 0 0 0 -6.094 4.642 4.277 4.277 0 0 0 -2.254-.642 4.09 4.09 0 0 0 -4.174 4 3.807 3.807 0 0 0 .148 1z" fill="#50b3c9"/><path d="m59 61h-12l-2-2v-16l2-2h12l2 2v16z" fill="#96c3f0"/><path d="m11 21h-6l-2-2v-14a2 2 0 0 1 2-2h6a2 2 0 0 1 2 2v14z" fill="#96c3f0"/><path d="m59 17h-14l-2-2v-10a2 2 0 0 1 2-2h14a2 2 0 0 1 2 2v10z" fill="#96c3f0"/><path d="m54 21h-4l-1-4h6z" fill="#394d5c"/><g fill="#5a6470"><path d="m47 21h10v4h-10z"/><path d="m45 57h16a0 0 0 0 1 0 0v2a2 2 0 0 1 -2 2h-12a2 2 0 0 1 -2-2v-2a0 0 0 0 1 0 0z"/><path d="m47 41h12a2 2 0 0 1 2 2v2a0 0 0 0 1 0 0h-16a0 0 0 0 1 0 0v-2a2 2 0 0 1 2-2z"/><path d="m3 17h10a0 0 0 0 1 0 0v2a2 2 0 0 1 -2 2h-6a2 2 0 0 1 -2-2v-2a0 0 0 0 1 0 0z"/><path d="m43 13h18a0 0 0 0 1 0 0v2a2 2 0 0 1 -2 2h-14a2 2 0 0 1 -2-2v-2a0 0 0 0 1 0 0z"/></g><path d="m7 6h2v2h-2z" fill="#f4f4e6"/><path d="m51 6h2v2h-2z" fill="#f4f4e6"/><path d="m52 48h2v2h-2z" fill="#f4f4e6"/><path d="m32 21a11 11 0 1 0 11 11 11.013 11.013 0 0 0 -11-11zm8.05 7h-2.8a17.313 17.313 0 0 0 -2.637-4.612 9.036 9.036 0 0 1 5.437 4.612zm.95 4a8.971 8.971 0 0 1 -.232 2h-2.968a10.251 10.251 0 0 0 0-4h2.965a8.971 8.971 0 0 1 .235 2zm-18 0a8.971 8.971 0 0 1 .232-2h2.968a10.251 10.251 0 0 0 0 4h-2.968a8.971 8.971 0 0 1 -.232-2zm5 0a8.843 8.843 0 0 1 .243-2h2.757v4h-2.757a8.843 8.843 0 0 1 -.243-2zm3-4h-2.081a16.176 16.176 0 0 1 2.081-3.408zm2-3.408a16.176 16.176 0 0 1 2.081 3.408h-2.081zm-2 11.408v3.408a16.176 16.176 0 0 1 -2.081-3.408zm2 0h2.081a16.176 16.176 0 0 1 -2.081 3.408zm0-2v-4h2.757a8.352 8.352 0 0 1 0 4zm-3.608-10.612a17.313 17.313 0 0 0 -2.637 4.612h-2.8a9.036 9.036 0 0 1 5.437-4.612zm-5.442 12.612h2.805a17.313 17.313 0 0 0 2.637 4.612 9.036 9.036 0 0 1 -5.442-4.612zm10.658 4.612a17.313 17.313 0 0 0 2.637-4.612h2.805a9.036 9.036 0 0 1 -5.442 4.612z" fill="#2d75bb"/></g></svg>