<svg height="512" viewBox="0 0 64 64" width="512" xmlns="http://www.w3.org/2000/svg"><g id="flat"><path d="m3 3h58v58h-58z" fill="#cfdfe8"/><path d="m3 3h16v8h-16z" fill="#5a6470"/><path d="m19 3h42v8h-42z" fill="#7d8d9c"/><path d="m6 6h2v2h-2z" fill="#dd3e46"/><path d="m10 6h2v2h-2z" fill="#f9bb4b"/><path d="m14 6h2v2h-2z" fill="#55b56a"/><path d="m9 53h46v4h-46z" fill="#5a6470"/><path d="m9 29h46v4h-46z" fill="#5a6470"/><path d="m51 29h-38l19-14z" fill="#aabece"/><path d="m13 37h6v12h-6z" fill="#aabece"/><path d="m11 33h10v4h-10z" fill="#7d8d9c"/><path d="m11 49h10v4h-10z" fill="#7d8d9c"/><path d="m45 37h6v12h-6z" fill="#aabece"/><path d="m43 33h10v4h-10z" fill="#7d8d9c"/><path d="m43 49h10v4h-10z" fill="#7d8d9c"/><path d="m37 40v-2h-4v-2h-2v2h-3a1 1 0 0 0 -1 1v4a1 1 0 0 0 1 1h3v2h-4v2h4v2h2v-2h3a1 1 0 0 0 1-1v-4a1 1 0 0 0 -1-1h-3v-2zm-2 4v2h-2v-2zm-4-2h-2v-2h2z" fill="#195c85"/><g fill="#f4f4e6"><path d="m30 27h-6a1 1 0 0 1 -.555-1.832l6-4 1.11 1.664-3.255 2.168h2.7z"/><path d="m40 27h-6v-2h2.7l-3.252-2.168 1.11-1.664 6 4a1 1 0 0 1 -.558 1.832z"/></g></g></svg>